{"glyphs":{"0":{"ha":894,"x_min":67,"x_max":828,"o":"m 447 -14 q 163 106 260 -14 q 67 458 67 225 q 163 811 67 692 q 447 931 260 931 q 731 811 635 931 q 828 458 828 692 q 731 106 828 225 q 447 -14 635 -14 m 447 172 q 531 201 499 172 q 577 292 563 229 q 592 458 592 356 q 577 624 592 561 q 531 716 563 688 q 447 744 499 744 q 365 716 397 744 q 317 624 332 688 q 303 458 303 561 q 317 292 303 356 q 365 201 332 229 q 447 172 397 172 z "},"1":{"ha":599,"x_min":26,"x_max":496,"o":"m 265 0 l 265 528 q 266 602 265 564 q 267 681 267 640 q 165 608 221 639 q 49 565 110 576 l 26 763 q 103 781 63 765 q 185 818 144 796 q 257 866 225 840 q 306 917 289 892 l 496 917 l 496 0 l 265 0 z "},"2":{"ha":828,"x_min":54,"x_max":771,"o":"m 83 0 l 83 153 q 285 290 201 226 q 420 411 368 354 q 497 519 472 468 q 522 619 522 571 q 491 708 522 672 q 399 743 460 743 q 297 695 333 743 q 258 556 261 647 l 54 618 q 103 790 57 721 q 231 895 150 860 q 414 931 311 931 q 570 905 504 931 q 678 837 636 879 q 740 742 719 794 q 760 636 760 690 q 714 470 760 547 q 581 322 668 393 q 371 178 494 250 l 371 176 q 426 179 394 178 q 493 181 458 181 q 556 182 528 182 l 771 182 l 771 0 l 83 0 z "},"3":{"ha":824,"x_min":38,"x_max":763,"o":"m 418 -14 q 173 44 271 -14 q 38 213 75 101 l 257 307 q 283 227 264 257 q 333 184 301 197 q 408 171 365 171 q 474 184 447 171 q 517 222 501 197 q 532 282 532 247 q 517 340 532 318 q 476 372 503 363 q 410 382 449 382 q 376 381 392 382 q 342 378 361 381 l 342 533 q 364 531 353 532 q 390 531 375 531 q 484 558 456 531 q 513 643 513 585 q 484 719 513 693 q 404 746 456 746 q 315 717 350 746 q 271 621 281 689 l 61 693 q 126 822 76 769 q 252 903 176 875 q 419 931 328 931 q 597 900 525 931 q 707 813 669 869 q 744 679 744 756 q 726 579 744 619 q 678 514 707 539 q 621 477 650 489 q 572 463 592 465 l 572 458 q 629 449 597 458 q 692 417 661 439 q 742 358 722 396 q 763 265 763 321 q 717 117 763 179 q 594 20 672 54 q 418 -14 517 -14 z "},"4":{"ha":897,"x_min":60,"x_max":858,"o":"m 507 0 l 507 201 l 60 201 l 60 351 q 92 406 72 374 q 140 479 113 438 l 439 917 l 718 917 l 718 365 l 858 365 l 858 201 l 718 201 l 718 0 l 507 0 m 251 365 l 510 365 l 510 643 q 511 701 510 671 q 514 761 513 731 l 511 761 q 478 701 497 732 q 443 644 460 669 l 281 407 q 267 386 274 396 q 251 365 260 376 z "},"5":{"ha":810,"x_min":42,"x_max":757,"o":"m 397 -14 q 190 33 278 -14 q 42 185 101 79 l 251 289 q 301 200 267 233 q 403 167 335 167 q 476 182 446 167 q 524 227 507 197 q 542 300 542 257 q 526 369 542 342 q 479 412 510 397 q 403 426 449 426 q 343 420 369 426 q 295 402 317 414 q 256 372 274 390 l 75 406 l 133 917 l 711 917 l 711 732 l 307 732 l 283 549 l 279 526 l 281 526 q 358 575 308 558 q 469 592 408 592 q 624 556 560 592 q 722 457 688 519 q 757 314 757 394 q 728 167 757 229 q 649 65 700 106 q 534 6 599 25 q 397 -14 469 -14 z "},"6":{"ha":856,"x_min":67,"x_max":807,"o":"m 475 931 q 612 911 549 931 q 722 847 675 892 q 793 728 769 803 l 599 636 q 551 713 585 685 q 460 742 517 742 q 388 723 421 742 q 332 669 356 704 q 297 585 308 635 q 285 472 285 535 q 285 463 285 468 q 285 450 285 458 l 288 442 q 340 512 304 483 q 421 556 375 540 q 513 571 467 571 q 664 538 597 571 q 769 442 731 504 q 807 293 807 381 q 764 130 807 199 q 644 24 721 61 q 463 -14 568 -14 q 255 38 344 -14 q 116 194 165 90 q 67 450 67 297 q 121 719 67 614 q 267 878 175 825 q 475 931 360 931 m 458 410 q 392 395 422 410 q 345 353 363 381 q 328 288 328 325 q 346 224 328 251 q 393 181 364 196 q 458 165 422 165 q 555 197 521 165 q 589 288 589 229 q 574 353 589 326 q 530 395 558 381 q 458 410 501 410 z "},"7":{"ha":844,"x_min":46,"x_max":800,"o":"m 46 917 l 800 917 l 800 747 q 620 516 686 635 q 527 269 554 397 q 500 0 500 142 l 264 0 q 302 288 264 151 q 422 550 340 425 q 632 792 503 675 l 682 729 l 46 729 l 46 917 z "},"8":{"ha":871,"x_min":63,"x_max":808,"o":"m 435 928 q 615 897 539 928 q 734 810 692 867 q 776 676 776 754 q 740 550 776 603 q 633 469 704 497 l 633 468 q 763 387 717 440 q 808 250 808 333 q 763 110 808 169 q 635 19 718 51 q 435 -14 551 -14 q 236 19 319 -14 q 108 110 153 51 q 63 250 63 169 q 108 387 63 333 q 238 468 154 440 l 238 469 q 131 549 168 496 q 93 676 93 603 q 135 810 93 754 q 256 897 178 867 q 435 928 333 928 m 436 754 q 347 726 381 754 q 314 649 314 699 q 347 572 314 600 q 436 543 381 543 q 524 572 492 543 q 557 649 557 600 q 524 726 557 699 q 436 754 492 754 m 436 160 q 512 173 481 160 q 560 213 543 186 q 576 274 576 239 q 560 335 576 310 q 511 374 543 361 q 436 388 479 388 q 360 374 393 388 q 311 335 328 361 q 294 274 294 310 q 311 213 294 239 q 360 173 328 186 q 436 160 392 160 z "},"9":{"ha":856,"x_min":57,"x_max":790,"o":"m 407 931 q 619 877 533 931 q 747 719 704 824 q 790 461 790 615 q 741 190 790 294 q 606 35 692 85 q 407 -14 519 -14 q 199 34 288 -14 q 68 186 111 82 l 282 271 q 324 194 293 222 q 411 167 356 167 q 486 184 454 167 q 538 235 518 201 q 568 316 558 268 q 578 426 578 364 q 578 437 578 432 q 578 449 578 442 l 574 449 q 524 381 558 407 q 444 341 489 354 q 353 328 400 328 q 199 363 267 328 q 94 463 132 399 q 57 614 57 528 q 101 783 57 713 q 223 892 144 853 q 407 931 301 931 m 407 747 q 312 714 347 747 q 276 619 276 681 q 313 533 276 564 q 407 501 349 501 q 474 517 444 501 q 521 559 504 532 q 538 624 538 586 q 521 690 538 663 q 474 732 504 717 q 407 747 444 747 z "},"A":{"ha":940,"x_min":6,"x_max":935,"o":"m 935 0 l 689 0 l 625 207 l 311 207 l 246 0 l 6 0 l 328 917 l 614 917 l 935 0 m 356 369 l 581 369 l 468 740 l 356 369 z "},"Á":{"ha":940,"x_min":6,"x_max":935,"o":"m 935 0 l 689 0 l 625 207 l 311 207 l 246 0 l 6 0 l 328 917 l 614 917 l 935 0 m 356 369 l 581 369 l 468 740 l 356 369 m 454 1231 l 665 1231 l 542 1004 l 369 1004 l 454 1231 z "},"Ă":{"ha":940,"x_min":6,"x_max":935,"o":"m 935 0 l 689 0 l 625 207 l 311 207 l 246 0 l 6 0 l 328 917 l 614 917 l 935 0 m 356 369 l 581 369 l 468 740 l 356 369 m 704 1219 q 641 1053 704 1114 q 469 993 578 993 q 299 1053 363 993 q 235 1219 235 1114 l 386 1219 q 408 1151 388 1178 q 469 1125 429 1125 q 531 1151 511 1125 q 553 1219 551 1178 l 704 1219 z "},"Ắ":{"ha":940,"x_min":6,"x_max":935,"o":"m 690 1206 q 631 1049 690 1106 q 469 993 571 993 q 310 1049 369 993 q 250 1206 250 1106 l 390 1206 q 411 1140 392 1165 q 469 1114 431 1114 q 529 1140 510 1114 q 550 1206 549 1165 l 690 1206 m 372 1235 l 444 1433 l 638 1433 l 528 1235 l 372 1235 m 935 0 l 689 0 l 625 207 l 311 207 l 246 0 l 6 0 l 328 917 l 614 917 l 935 0 m 356 369 l 581 369 l 468 740 l 356 369 z "},"Ặ":{"ha":940,"x_min":6,"x_max":935,"o":"m 935 0 l 689 0 l 625 207 l 311 207 l 246 0 l 6 0 l 328 917 l 614 917 l 935 0 m 356 369 l 581 369 l 468 740 l 356 369 m 469 -308 q 376 -280 408 -308 q 343 -197 343 -251 q 376 -114 343 -143 q 469 -85 408 -85 q 566 -114 533 -85 q 599 -197 599 -143 q 566 -280 599 -251 q 469 -308 533 -308 m 704 1219 q 641 1053 704 1114 q 469 993 578 993 q 299 1053 363 993 q 235 1219 235 1114 l 386 1219 q 408 1151 388 1178 q 469 1125 429 1125 q 531 1151 511 1125 q 553 1219 551 1178 l 704 1219 z "},"Ằ":{"ha":940,"x_min":6,"x_max":935,"o":"m 690 1206 q 631 1049 690 1106 q 469 993 571 993 q 310 1049 369 993 q 250 1206 250 1106 l 390 1206 q 411 1140 392 1165 q 469 1114 431 1114 q 529 1140 510 1114 q 550 1206 549 1165 l 690 1206 m 569 1235 l 413 1235 l 303 1433 l 496 1433 l 569 1235 m 935 0 l 689 0 l 625 207 l 311 207 l 246 0 l 6 0 l 328 917 l 614 917 l 935 0 m 356 369 l 581 369 l 468 740 l 356 369 z "},"Ẳ":{"ha":940,"x_min":6,"x_max":935,"o":"m 690 1206 q 631 1049 690 1106 q 469 993 571 993 q 310 1049 369 993 q 250 1206 250 1106 l 390 1206 q 411 1140 392 1165 q 469 1114 431 1114 q 529 1140 510 1114 q 550 1206 549 1165 l 690 1206 m 471 1213 l 424 1278 q 475 1310 460 1293 q 490 1347 490 1326 q 479 1377 490 1365 q 446 1389 468 1389 q 415 1380 428 1389 q 394 1353 403 1371 l 294 1403 q 356 1481 311 1453 q 463 1508 400 1508 q 540 1492 504 1508 q 597 1447 575 1476 q 618 1375 618 1417 q 596 1297 618 1329 q 540 1244 574 1264 q 471 1213 507 1224 m 935 0 l 689 0 l 625 207 l 311 207 l 246 0 l 6 0 l 328 917 l 614 917 l 935 0 m 356 369 l 581 369 l 468 740 l 356 369 z "},"Ẵ":{"ha":940,"x_min":6,"x_max":935,"o":"m 690 1206 q 631 1049 690 1106 q 471 993 571 993 q 310 1049 369 993 q 251 1206 251 1106 l 392 1206 q 412 1140 392 1165 q 471 1114 432 1114 q 530 1140 510 1114 q 550 1206 550 1165 l 690 1206 m 725 1443 q 676 1292 721 1340 q 567 1243 631 1243 q 505 1253 531 1243 q 460 1278 479 1264 q 424 1303 440 1292 q 389 1314 407 1314 q 356 1297 367 1314 q 339 1246 344 1281 l 217 1246 q 267 1397 221 1349 q 383 1446 314 1446 q 444 1435 419 1446 q 486 1410 468 1424 q 519 1385 504 1396 q 554 1375 535 1375 q 586 1392 575 1375 q 603 1443 597 1408 l 725 1443 m 935 0 l 689 0 l 625 207 l 311 207 l 246 0 l 6 0 l 328 917 l 614 917 l 935 0 m 356 369 l 581 369 l 468 740 l 356 369 z "},"Â":{"ha":940,"x_min":6,"x_max":935,"o":"m 935 0 l 689 0 l 625 207 l 311 207 l 246 0 l 6 0 l 328 917 l 614 917 l 935 0 m 356 369 l 581 369 l 468 740 l 356 369 m 724 1004 l 560 1004 l 469 1132 l 379 1004 l 215 1004 l 354 1231 l 585 1231 l 724 1004 z "},"Ấ":{"ha":940,"x_min":6,"x_max":942,"o":"m 718 999 l 560 999 l 469 1115 l 379 999 l 222 999 l 365 1224 l 575 1224 l 718 999 m 751 1347 l 942 1347 l 831 1142 l 675 1142 l 751 1347 m 935 0 l 689 0 l 625 207 l 311 207 l 246 0 l 6 0 l 328 917 l 614 917 l 935 0 m 356 369 l 581 369 l 468 740 l 356 369 z "},"Ậ":{"ha":940,"x_min":6,"x_max":935,"o":"m 935 0 l 689 0 l 625 207 l 311 207 l 246 0 l 6 0 l 328 917 l 614 917 l 935 0 m 356 369 l 581 369 l 468 740 l 356 369 m 469 -308 q 376 -280 408 -308 q 343 -197 343 -251 q 376 -114 343 -143 q 469 -85 408 -85 q 566 -114 533 -85 q 599 -197 599 -143 q 566 -280 599 -251 q 469 -308 533 -308 m 724 1004 l 560 1004 l 469 1132 l 379 1004 l 215 1004 l 354 1231 l 585 1231 l 724 1004 z "},"Ầ":{"ha":940,"x_min":6,"x_max":935,"o":"m 718 999 l 560 999 l 469 1115 l 379 999 l 222 999 l 365 1224 l 575 1224 l 718 999 m 779 1347 l 856 1142 l 700 1142 l 589 1347 l 779 1347 m 935 0 l 689 0 l 625 207 l 311 207 l 246 0 l 6 0 l 328 917 l 614 917 l 935 0 m 356 369 l 581 369 l 468 740 l 356 369 z "},"Ẩ":{"ha":940,"x_min":6,"x_max":935,"o":"m 718 999 l 560 999 l 469 1115 l 379 999 l 222 999 l 365 1224 l 575 1224 l 718 999 m 715 1119 l 664 1189 q 719 1223 703 1206 q 736 1263 736 1240 q 724 1294 736 1282 q 689 1307 713 1307 q 657 1297 669 1307 q 635 1268 644 1288 l 528 1321 q 592 1404 544 1375 q 707 1433 639 1433 q 788 1417 750 1433 q 849 1369 826 1401 q 872 1292 872 1338 q 849 1208 872 1243 q 789 1152 825 1174 q 715 1119 753 1131 m 935 0 l 689 0 l 625 207 l 311 207 l 246 0 l 6 0 l 328 917 l 614 917 l 935 0 m 356 369 l 581 369 l 468 740 l 356 369 z "},"Ẫ":{"ha":940,"x_min":6,"x_max":935,"o":"m 718 999 l 560 999 l 469 1115 l 379 999 l 222 999 l 365 1224 l 575 1224 l 718 999 m 725 1458 q 675 1306 721 1356 q 567 1257 629 1257 q 503 1268 529 1257 q 459 1293 478 1279 q 424 1318 440 1307 q 388 1329 407 1329 q 354 1313 365 1329 q 339 1260 343 1296 l 215 1260 q 266 1413 219 1364 q 383 1461 313 1461 q 442 1450 418 1461 q 485 1425 467 1439 q 518 1400 503 1411 q 553 1389 533 1389 q 585 1406 574 1389 q 601 1458 597 1422 l 725 1458 m 935 0 l 689 0 l 625 207 l 311 207 l 246 0 l 6 0 l 328 917 l 614 917 l 935 0 m 356 369 l 581 369 l 468 740 l 356 369 z "},"Ȁ":{"ha":940,"x_min":6,"x_max":935,"o":"m 935 0 l 689 0 l 625 207 l 311 207 l 246 0 l 6 0 l 328 917 l 614 917 l 935 0 m 356 369 l 581 369 l 468 740 l 356 369 m 322 1231 l 407 1004 l 236 1004 l 113 1231 l 322 1231 m 633 1231 l 718 1004 l 546 1004 l 422 1231 l 633 1231 z "},"Ä":{"ha":940,"x_min":6,"x_max":935,"o":"m 935 0 l 689 0 l 625 207 l 311 207 l 246 0 l 6 0 l 328 917 l 614 917 l 935 0 m 356 369 l 581 369 l 468 740 l 356 369 m 315 1208 q 403 1181 372 1208 q 435 1101 435 1153 q 403 1023 435 1051 q 315 994 372 994 q 230 1023 261 994 q 199 1101 199 1051 q 230 1181 199 1153 q 315 1208 261 1208 m 621 1208 q 708 1181 676 1208 q 740 1101 740 1153 q 708 1023 740 1051 q 621 994 676 994 q 535 1023 567 994 q 504 1101 504 1051 q 535 1181 504 1153 q 621 1208 567 1208 z "},"Ạ":{"ha":940,"x_min":6,"x_max":935,"o":"m 935 0 l 689 0 l 625 207 l 311 207 l 246 0 l 6 0 l 328 917 l 614 917 l 935 0 m 356 369 l 581 369 l 468 740 l 356 369 m 469 -308 q 376 -280 408 -308 q 343 -197 343 -251 q 376 -114 343 -143 q 469 -85 408 -85 q 566 -114 533 -85 q 599 -197 599 -143 q 566 -280 599 -251 q 469 -308 533 -308 z "},"À":{"ha":940,"x_min":6,"x_max":935,"o":"m 935 0 l 689 0 l 625 207 l 311 207 l 246 0 l 6 0 l 328 917 l 614 917 l 935 0 m 356 369 l 581 369 l 468 740 l 356 369 m 482 1231 l 567 1004 l 394 1004 l 271 1231 l 482 1231 z "},"Ả":{"ha":940,"x_min":6,"x_max":935,"o":"m 935 0 l 689 0 l 625 207 l 311 207 l 246 0 l 6 0 l 328 917 l 614 917 l 935 0 m 356 369 l 581 369 l 468 740 l 356 369 m 472 972 l 421 1042 q 476 1076 460 1058 q 492 1115 492 1093 q 480 1147 492 1135 q 446 1160 468 1160 q 413 1150 425 1160 q 392 1121 400 1140 l 283 1174 q 349 1257 301 1228 q 463 1286 396 1286 q 544 1270 507 1286 q 605 1222 582 1254 q 628 1144 628 1190 q 604 1061 628 1096 q 544 1005 581 1026 q 472 972 508 983 z "},"Ȃ":{"ha":940,"x_min":6,"x_max":935,"o":"m 935 0 l 689 0 l 625 207 l 311 207 l 246 0 l 6 0 l 328 917 l 614 917 l 935 0 m 356 369 l 581 369 l 468 740 l 356 369 m 704 993 l 553 993 q 531 1061 551 1035 q 469 1088 511 1088 q 408 1061 429 1088 q 386 993 388 1035 l 235 993 q 299 1159 235 1099 q 469 1219 363 1219 q 641 1159 578 1219 q 704 993 704 1099 z "},"Ā":{"ha":940,"x_min":6,"x_max":935,"o":"m 935 0 l 689 0 l 625 207 l 311 207 l 246 0 l 6 0 l 328 917 l 614 917 l 935 0 m 356 369 l 581 369 l 468 740 l 356 369 m 722 1158 l 722 1013 l 217 1013 l 217 1158 l 722 1158 z "},"Ą":{"ha":940,"x_min":6,"x_max":943,"o":"m 800 -299 q 702 -281 746 -299 q 633 -229 658 -264 q 607 -142 607 -194 q 667 -19 607 -65 q 832 44 728 28 l 935 0 q 836 -27 872 -11 q 786 -62 800 -43 q 772 -106 772 -82 q 792 -151 772 -135 q 849 -167 813 -167 q 882 -164 864 -167 q 913 -153 900 -161 l 943 -267 q 880 -292 915 -285 q 800 -299 844 -299 m 935 0 l 689 0 l 625 207 l 311 207 l 246 0 l 6 0 l 328 917 l 614 917 l 935 0 m 356 369 l 581 369 l 468 740 l 356 369 z "},"Å":{"ha":940,"x_min":6,"x_max":935,"o":"m 935 0 l 689 0 l 625 207 l 311 207 l 246 0 l 6 0 l 328 917 l 614 917 l 935 0 m 356 369 l 581 369 l 468 740 l 356 369 m 469 1169 q 610 1122 557 1169 q 663 996 663 1075 q 610 868 663 915 q 469 821 557 821 q 328 868 382 821 q 275 996 275 915 q 328 1122 275 1075 q 469 1169 382 1169 m 469 1068 q 415 1049 436 1068 q 394 996 394 1029 q 415 942 394 963 q 469 922 436 922 q 523 942 503 922 q 543 996 543 963 q 523 1049 543 1029 q 469 1068 503 1068 z "},"Ǻ":{"ha":940,"x_min":6,"x_max":935,"o":"m 935 0 l 689 0 l 625 207 l 311 207 l 246 0 l 6 0 l 328 917 l 614 917 l 935 0 m 356 369 l 581 369 l 468 740 l 356 369 m 469 1169 q 610 1122 557 1169 q 663 996 663 1075 q 610 868 663 915 q 469 821 557 821 q 328 868 382 821 q 275 996 275 915 q 328 1122 275 1075 q 469 1169 382 1169 m 469 1068 q 415 1049 436 1068 q 394 996 394 1029 q 415 942 394 963 q 469 922 436 922 q 523 942 503 922 q 543 996 543 963 q 523 1049 543 1029 q 469 1068 503 1068 m 469 1450 l 681 1450 l 557 1224 l 385 1224 l 469 1450 z "},"Ã":{"ha":940,"x_min":6,"x_max":935,"o":"m 935 0 l 689 0 l 625 207 l 311 207 l 246 0 l 6 0 l 328 917 l 614 917 l 935 0 m 356 369 l 581 369 l 468 740 l 356 369 m 744 1219 q 719 1097 742 1146 q 658 1023 696 1047 q 574 999 619 999 q 506 1010 535 999 q 457 1038 478 1022 q 418 1066 436 1054 q 379 1078 400 1078 q 343 1058 356 1078 q 326 1000 331 1039 l 193 1000 q 247 1166 197 1111 q 375 1221 297 1221 q 439 1209 413 1221 q 485 1181 465 1197 q 522 1153 504 1165 q 558 1142 539 1142 q 595 1161 583 1142 q 611 1219 607 1181 l 744 1219 z "},"Æ":{"ha":1283,"x_min":-6,"x_max":1242,"o":"m 807 176 l 1242 176 l 1242 0 l 585 0 l 585 272 l 342 272 l 235 0 l -6 0 l 388 917 l 1222 917 l 1222 740 l 807 740 l 807 543 l 1125 543 l 1125 376 l 807 376 l 807 176 m 393 428 l 585 428 l 585 747 l 526 747 l 393 428 z "},"Ǽ":{"ha":1283,"x_min":-6,"x_max":1242,"o":"m 807 176 l 1242 176 l 1242 0 l 585 0 l 585 272 l 342 272 l 235 0 l -6 0 l 388 917 l 1222 917 l 1222 740 l 807 740 l 807 543 l 1125 543 l 1125 376 l 807 376 l 807 176 m 393 428 l 585 428 l 585 747 l 526 747 l 393 428 m 681 1231 l 892 1231 l 768 1004 l 596 1004 l 681 1231 z "},"B":{"ha":950,"x_min":101,"x_max":901,"o":"m 101 0 l 101 917 l 547 917 q 797 852 717 915 q 878 669 878 789 q 832 535 878 592 q 692 464 786 479 l 692 463 q 849 390 797 449 q 901 247 901 331 q 818 65 901 129 q 568 0 735 0 l 101 0 m 332 168 l 528 168 q 625 194 593 168 q 657 271 657 221 q 625 345 657 319 q 528 371 593 371 l 332 371 l 332 168 m 332 542 l 506 542 q 633 642 633 542 q 506 742 633 742 l 332 742 l 332 542 z "},"C":{"ha":946,"x_min":63,"x_max":914,"o":"m 914 263 q 829 105 888 167 q 690 15 771 43 q 513 -14 610 -14 q 272 42 374 -14 q 117 204 171 99 q 63 458 63 310 q 117 713 63 607 q 272 874 171 818 q 511 931 374 931 q 688 903 607 931 q 824 821 768 876 q 903 678 879 765 l 693 593 q 630 711 674 679 q 519 743 586 743 q 406 711 454 743 q 333 616 358 679 q 307 458 307 553 q 331 301 307 365 q 402 206 354 238 q 521 174 450 174 q 634 210 588 174 q 697 324 681 247 l 914 263 z "},"Ć":{"ha":946,"x_min":63,"x_max":914,"o":"m 914 263 q 829 105 888 167 q 690 15 771 43 q 513 -14 610 -14 q 272 42 374 -14 q 117 204 171 99 q 63 458 63 310 q 117 713 63 607 q 272 874 171 818 q 511 931 374 931 q 688 903 607 931 q 824 821 768 876 q 903 678 879 765 l 693 593 q 630 711 674 679 q 519 743 586 743 q 406 711 454 743 q 333 616 358 679 q 307 458 307 553 q 331 301 307 365 q 402 206 354 238 q 521 174 450 174 q 634 210 588 174 q 697 324 681 247 l 914 263 m 488 1231 l 699 1231 l 575 1004 l 403 1004 l 488 1231 z "},"Č":{"ha":946,"x_min":63,"x_max":914,"o":"m 914 263 q 829 105 888 167 q 690 15 771 43 q 513 -14 610 -14 q 272 42 374 -14 q 117 204 171 99 q 63 458 63 310 q 117 713 63 607 q 272 874 171 818 q 511 931 374 931 q 688 903 607 931 q 824 821 768 876 q 903 678 879 765 l 693 593 q 630 711 674 679 q 519 743 586 743 q 406 711 454 743 q 333 616 358 679 q 307 458 307 553 q 331 301 307 365 q 402 206 354 238 q 521 174 450 174 q 634 210 588 174 q 697 324 681 247 l 914 263 m 757 1231 l 618 1004 l 388 1004 l 249 1231 l 413 1231 l 503 1103 l 593 1231 l 757 1231 z "},"Ç":{"ha":946,"x_min":63,"x_max":914,"o":"m 914 263 q 829 105 888 167 q 690 15 771 43 q 513 -14 610 -14 q 272 42 374 -14 q 117 204 171 99 q 63 458 63 310 q 117 713 63 607 q 272 874 171 818 q 511 931 374 931 q 688 903 607 931 q 824 821 768 876 q 903 678 879 765 l 693 593 q 630 711 674 679 q 519 743 586 743 q 406 711 454 743 q 333 616 358 679 q 307 458 307 553 q 331 301 307 365 q 402 206 354 238 q 521 174 450 174 q 634 210 588 174 q 697 324 681 247 l 914 263 m 393 14 l 450 51 q 610 -8 558 36 q 661 -125 661 -51 q 609 -251 661 -203 q 467 -299 557 -299 q 381 -287 413 -299 q 324 -258 349 -275 l 363 -146 q 399 -163 379 -156 q 446 -171 418 -171 q 504 -150 482 -171 q 526 -92 526 -129 q 497 -35 526 -60 q 393 14 468 -10 z "},"Ḉ":{"ha":946,"x_min":63,"x_max":914,"o":"m 914 263 q 829 105 888 167 q 690 15 771 43 q 513 -14 610 -14 q 272 42 374 -14 q 117 204 171 99 q 63 458 63 310 q 117 713 63 607 q 272 874 171 818 q 511 931 374 931 q 688 903 607 931 q 824 821 768 876 q 903 678 879 765 l 693 593 q 630 711 674 679 q 519 743 586 743 q 406 711 454 743 q 333 616 358 679 q 307 458 307 553 q 331 301 307 365 q 402 206 354 238 q 521 174 450 174 q 634 210 588 174 q 697 324 681 247 l 914 263 m 393 14 l 450 51 q 610 -8 558 36 q 661 -125 661 -51 q 609 -251 661 -203 q 467 -299 557 -299 q 381 -287 413 -299 q 324 -258 349 -275 l 363 -146 q 399 -163 379 -156 q 446 -171 418 -171 q 504 -150 482 -171 q 526 -92 526 -129 q 497 -35 526 -60 q 393 14 468 -10 m 488 1231 l 699 1231 l 575 1004 l 403 1004 l 488 1231 z "},"Ĉ":{"ha":946,"x_min":63,"x_max":914,"o":"m 914 263 q 829 105 888 167 q 690 15 771 43 q 513 -14 610 -14 q 272 42 374 -14 q 117 204 171 99 q 63 458 63 310 q 117 713 63 607 q 272 874 171 818 q 511 931 374 931 q 688 903 607 931 q 824 821 768 876 q 903 678 879 765 l 693 593 q 630 711 674 679 q 519 743 586 743 q 406 711 454 743 q 333 616 358 679 q 307 458 307 553 q 331 301 307 365 q 402 206 354 238 q 521 174 450 174 q 634 210 588 174 q 697 324 681 247 l 914 263 m 757 1004 l 593 1004 l 503 1132 l 413 1004 l 249 1004 l 388 1231 l 618 1231 l 757 1004 z "},"Ċ":{"ha":946,"x_min":63,"x_max":914,"o":"m 914 263 q 829 105 888 167 q 690 15 771 43 q 513 -14 610 -14 q 272 42 374 -14 q 117 204 171 99 q 63 458 63 310 q 117 713 63 607 q 272 874 171 818 q 511 931 374 931 q 688 903 607 931 q 824 821 768 876 q 903 678 879 765 l 693 593 q 630 711 674 679 q 519 743 586 743 q 406 711 454 743 q 333 616 358 679 q 307 458 307 553 q 331 301 307 365 q 402 206 354 238 q 521 174 450 174 q 634 210 588 174 q 697 324 681 247 l 914 263 m 503 1225 q 599 1197 567 1225 q 632 1114 632 1168 q 599 1031 632 1060 q 503 1001 567 1001 q 409 1031 442 1001 q 376 1114 376 1060 q 409 1197 376 1168 q 503 1225 442 1225 z "},"D":{"ha":997,"x_min":101,"x_max":935,"o":"m 490 917 q 820 797 706 917 q 935 458 935 678 q 820 119 935 239 q 490 0 706 0 l 101 0 l 101 917 l 490 917 m 467 181 q 637 251 583 181 q 690 458 690 321 q 637 666 690 596 q 467 736 583 736 l 340 736 l 340 181 l 467 181 z "},"Ǳ":{"ha":1871,"x_min":101,"x_max":1828,"o":"m 490 917 q 820 797 706 917 q 935 458 935 678 q 820 119 935 239 q 490 0 706 0 l 101 0 l 101 917 l 490 917 m 467 181 q 637 251 583 181 q 690 458 690 321 q 637 666 690 596 q 467 736 583 736 l 340 736 l 340 181 l 467 181 m 1229 100 l 1188 181 l 1828 181 l 1828 0 l 1042 0 l 1042 172 l 1626 817 l 1668 736 l 1051 736 l 1051 917 l 1811 917 l 1811 744 l 1229 100 z "},"Ǆ":{"ha":1871,"x_min":101,"x_max":1828,"o":"m 490 917 q 820 797 706 917 q 935 458 935 678 q 820 119 935 239 q 490 0 706 0 l 101 0 l 101 917 l 490 917 m 467 181 q 637 251 583 181 q 690 458 690 321 q 637 666 690 596 q 467 736 583 736 l 340 736 l 340 181 l 467 181 m 1229 100 l 1188 181 l 1828 181 l 1828 0 l 1042 0 l 1042 172 l 1626 817 l 1668 736 l 1051 736 l 1051 917 l 1811 917 l 1811 744 l 1229 100 m 1689 1231 l 1550 1004 l 1319 1004 l 1181 1231 l 1344 1231 l 1435 1103 l 1525 1231 l 1689 1231 z "},"Ð":{"ha":1029,"x_min":18,"x_max":968,"o":"m 18 375 l 18 542 l 554 542 l 554 375 l 18 375 m 522 917 q 853 797 738 917 q 968 458 968 678 q 853 119 968 239 q 522 0 738 0 l 133 0 l 133 917 l 522 917 m 499 181 q 669 251 617 181 q 722 458 722 321 q 669 666 722 596 q 499 736 617 736 l 372 736 l 372 181 l 499 181 z "},"Ď":{"ha":997,"x_min":101,"x_max":935,"o":"m 490 917 q 820 797 706 917 q 935 458 935 678 q 820 119 935 239 q 490 0 706 0 l 101 0 l 101 917 l 490 917 m 467 181 q 637 251 583 181 q 690 458 690 321 q 637 666 690 596 q 467 736 583 736 l 340 736 l 340 181 l 467 181 m 733 1231 l 594 1004 l 364 1004 l 225 1231 l 389 1231 l 479 1103 l 569 1231 l 733 1231 z "},"Đ":{"ha":1029,"x_min":18,"x_max":968,"o":"m 18 375 l 18 542 l 554 542 l 554 375 l 18 375 m 522 917 q 853 797 738 917 q 968 458 968 678 q 853 119 968 239 q 522 0 738 0 l 133 0 l 133 917 l 522 917 m 499 181 q 669 251 617 181 q 722 458 722 321 q 669 666 722 596 q 499 736 617 736 l 372 736 l 372 181 l 499 181 z "},"Ḍ":{"ha":997,"x_min":101,"x_max":935,"o":"m 490 917 q 820 797 706 917 q 935 458 935 678 q 820 119 935 239 q 490 0 706 0 l 101 0 l 101 917 l 490 917 m 467 181 q 637 251 583 181 q 690 458 690 321 q 637 666 690 596 q 467 736 583 736 l 340 736 l 340 181 l 467 181 m 468 -308 q 374 -280 407 -308 q 342 -197 342 -251 q 374 -114 342 -143 q 468 -85 407 -85 q 565 -114 532 -85 q 597 -197 597 -143 q 565 -280 597 -251 q 468 -308 532 -308 z "},"Ḏ":{"ha":997,"x_min":101,"x_max":935,"o":"m 490 917 q 820 797 706 917 q 935 458 935 678 q 820 119 935 239 q 490 0 706 0 l 101 0 l 101 917 l 490 917 m 467 181 q 637 251 583 181 q 690 458 690 321 q 637 666 690 596 q 467 736 583 736 l 340 736 l 340 181 l 467 181 m 721 -96 l 721 -242 l 215 -242 l 215 -96 l 721 -96 z "},"ǲ":{"ha":1711,"x_min":101,"x_max":1667,"o":"m 490 917 q 820 797 706 917 q 935 458 935 678 q 820 119 935 239 q 490 0 706 0 l 101 0 l 101 917 l 490 917 m 467 181 q 637 251 583 181 q 690 458 690 321 q 637 666 690 596 q 467 736 583 736 l 340 736 l 340 181 l 467 181 m 1043 0 l 1043 144 l 1319 458 l 1393 532 l 1283 529 l 1046 529 l 1046 694 l 1654 694 l 1654 550 l 1382 239 l 1306 163 l 1428 165 l 1667 165 l 1667 0 l 1043 0 z "},"ǅ":{"ha":1711,"x_min":101,"x_max":1667,"o":"m 490 917 q 820 797 706 917 q 935 458 935 678 q 820 119 935 239 q 490 0 706 0 l 101 0 l 101 917 l 490 917 m 467 181 q 637 251 583 181 q 690 458 690 321 q 637 666 690 596 q 467 736 583 736 l 340 736 l 340 181 l 467 181 m 1043 0 l 1043 144 l 1319 458 l 1393 532 l 1283 529 l 1046 529 l 1046 694 l 1654 694 l 1654 550 l 1382 239 l 1306 163 l 1428 165 l 1667 165 l 1667 0 l 1043 0 m 1604 1025 l 1453 785 l 1224 785 l 1072 1025 l 1243 1025 l 1338 901 l 1433 1025 l 1604 1025 z "},"E":{"ha":876,"x_min":101,"x_max":833,"o":"m 101 0 l 101 917 l 815 917 l 815 732 l 340 732 l 340 546 l 718 546 l 718 372 l 340 372 l 340 185 l 833 185 l 833 0 l 101 0 z "},"É":{"ha":876,"x_min":101,"x_max":833,"o":"m 101 0 l 101 917 l 815 917 l 815 732 l 340 732 l 340 546 l 718 546 l 718 372 l 340 372 l 340 185 l 833 185 l 833 0 l 101 0 m 435 1231 l 646 1231 l 522 1004 l 350 1004 l 435 1231 z "},"Ĕ":{"ha":876,"x_min":101,"x_max":833,"o":"m 101 0 l 101 917 l 815 917 l 815 732 l 340 732 l 340 546 l 718 546 l 718 372 l 340 372 l 340 185 l 833 185 l 833 0 l 101 0 m 693 1219 q 630 1053 693 1114 q 458 993 567 993 q 288 1053 351 993 q 224 1219 224 1114 l 375 1219 q 397 1151 376 1178 q 458 1125 418 1125 q 520 1151 500 1125 q 542 1219 540 1178 l 693 1219 z "},"Ě":{"ha":876,"x_min":101,"x_max":833,"o":"m 101 0 l 101 917 l 815 917 l 815 732 l 340 732 l 340 546 l 718 546 l 718 372 l 340 372 l 340 185 l 833 185 l 833 0 l 101 0 m 713 1231 l 574 1004 l 343 1004 l 204 1231 l 368 1231 l 458 1103 l 549 1231 l 713 1231 z "},"Ḝ":{"ha":876,"x_min":101,"x_max":833,"o":"m 101 0 l 101 917 l 815 917 l 815 732 l 340 732 l 340 546 l 718 546 l 718 372 l 340 372 l 340 185 l 833 185 l 833 0 l 101 0 m 372 14 l 429 51 q 589 -8 538 36 q 640 -125 640 -51 q 588 -251 640 -203 q 446 -299 536 -299 q 360 -287 392 -299 q 303 -258 328 -275 l 342 -146 q 378 -163 358 -156 q 425 -171 397 -171 q 483 -150 461 -171 q 506 -92 506 -129 q 476 -35 506 -60 q 372 14 447 -10 m 693 1219 q 630 1053 693 1114 q 458 993 567 993 q 288 1053 351 993 q 224 1219 224 1114 l 375 1219 q 397 1151 376 1178 q 458 1125 418 1125 q 520 1151 500 1125 q 542 1219 540 1178 l 693 1219 z "},"Ê":{"ha":876,"x_min":101,"x_max":833,"o":"m 101 0 l 101 917 l 815 917 l 815 732 l 340 732 l 340 546 l 718 546 l 718 372 l 340 372 l 340 185 l 833 185 l 833 0 l 101 0 m 713 1004 l 549 1004 l 458 1132 l 368 1004 l 204 1004 l 343 1231 l 574 1231 l 713 1004 z "},"Ế":{"ha":876,"x_min":101,"x_max":931,"o":"m 707 999 l 549 999 l 458 1115 l 368 999 l 211 999 l 354 1224 l 564 1224 l 707 999 m 740 1347 l 931 1347 l 819 1142 l 664 1142 l 740 1347 m 101 0 l 101 917 l 815 917 l 815 732 l 340 732 l 340 546 l 718 546 l 718 372 l 340 372 l 340 185 l 833 185 l 833 0 l 101 0 z "},"Ệ":{"ha":876,"x_min":101,"x_max":833,"o":"m 101 0 l 101 917 l 815 917 l 815 732 l 340 732 l 340 546 l 718 546 l 718 372 l 340 372 l 340 185 l 833 185 l 833 0 l 101 0 m 476 -308 q 383 -280 415 -308 q 350 -197 350 -251 q 383 -114 350 -143 q 476 -85 415 -85 q 573 -114 540 -85 q 606 -197 606 -143 q 573 -280 606 -251 q 476 -308 540 -308 m 713 1004 l 549 1004 l 458 1132 l 368 1004 l 204 1004 l 343 1231 l 574 1231 l 713 1004 z "},"Ề":{"ha":876,"x_min":101,"x_max":844,"o":"m 707 999 l 549 999 l 458 1115 l 368 999 l 211 999 l 354 1224 l 564 1224 l 707 999 m 768 1347 l 844 1142 l 689 1142 l 578 1347 l 768 1347 m 101 0 l 101 917 l 815 917 l 815 732 l 340 732 l 340 546 l 718 546 l 718 372 l 340 372 l 340 185 l 833 185 l 833 0 l 101 0 z "},"Ể":{"ha":876,"x_min":101,"x_max":861,"o":"m 707 999 l 549 999 l 458 1115 l 368 999 l 211 999 l 354 1224 l 564 1224 l 707 999 m 704 1119 l 653 1189 q 708 1223 692 1206 q 725 1263 725 1240 q 713 1294 725 1282 q 678 1307 701 1307 q 646 1297 658 1307 q 624 1268 633 1288 l 517 1321 q 581 1404 533 1375 q 696 1433 628 1433 q 777 1417 739 1433 q 838 1369 815 1401 q 861 1292 861 1338 q 838 1208 861 1243 q 778 1152 814 1174 q 704 1119 742 1131 m 101 0 l 101 917 l 815 917 l 815 732 l 340 732 l 340 546 l 718 546 l 718 372 l 340 372 l 340 185 l 833 185 l 833 0 l 101 0 z "},"Ễ":{"ha":876,"x_min":101,"x_max":833,"o":"m 707 999 l 549 999 l 458 1115 l 368 999 l 211 999 l 354 1224 l 564 1224 l 707 999 m 714 1458 q 664 1306 710 1356 q 556 1257 618 1257 q 492 1268 518 1257 q 448 1293 467 1279 q 413 1318 429 1307 q 376 1329 396 1329 q 343 1313 354 1329 q 328 1260 332 1296 l 204 1260 q 255 1413 208 1364 q 372 1461 301 1461 q 431 1450 407 1461 q 474 1425 456 1439 q 507 1400 492 1411 q 542 1389 522 1389 q 574 1406 563 1389 q 590 1458 586 1422 l 714 1458 m 101 0 l 101 917 l 815 917 l 815 732 l 340 732 l 340 546 l 718 546 l 718 372 l 340 372 l 340 185 l 833 185 l 833 0 l 101 0 z "},"Ȅ":{"ha":876,"x_min":101,"x_max":833,"o":"m 101 0 l 101 917 l 815 917 l 815 732 l 340 732 l 340 546 l 718 546 l 718 372 l 340 372 l 340 185 l 833 185 l 833 0 l 101 0 m 311 1231 l 396 1004 l 225 1004 l 101 1231 l 311 1231 m 622 1231 l 707 1004 l 535 1004 l 411 1231 l 622 1231 z "},"Ë":{"ha":876,"x_min":101,"x_max":833,"o":"m 101 0 l 101 917 l 815 917 l 815 732 l 340 732 l 340 546 l 718 546 l 718 372 l 340 372 l 340 185 l 833 185 l 833 0 l 101 0 m 304 1208 q 392 1181 361 1208 q 424 1101 424 1153 q 392 1023 424 1051 q 304 994 361 994 q 219 1023 250 994 q 188 1101 188 1051 q 219 1181 188 1153 q 304 1208 250 1208 m 610 1208 q 697 1181 665 1208 q 729 1101 729 1153 q 697 1023 729 1051 q 610 994 665 994 q 524 1023 556 994 q 493 1101 493 1051 q 524 1181 493 1153 q 610 1208 556 1208 z "},"Ė":{"ha":876,"x_min":101,"x_max":833,"o":"m 101 0 l 101 917 l 815 917 l 815 732 l 340 732 l 340 546 l 718 546 l 718 372 l 340 372 l 340 185 l 833 185 l 833 0 l 101 0 m 458 1225 q 555 1197 522 1225 q 588 1114 588 1168 q 555 1031 588 1060 q 458 1001 522 1001 q 365 1031 397 1001 q 332 1114 332 1060 q 365 1197 332 1168 q 458 1225 397 1225 z "},"Ẹ":{"ha":876,"x_min":101,"x_max":833,"o":"m 101 0 l 101 917 l 815 917 l 815 732 l 340 732 l 340 546 l 718 546 l 718 372 l 340 372 l 340 185 l 833 185 l 833 0 l 101 0 m 476 -308 q 383 -280 415 -308 q 350 -197 350 -251 q 383 -114 350 -143 q 476 -85 415 -85 q 573 -114 540 -85 q 606 -197 606 -143 q 573 -280 606 -251 q 476 -308 540 -308 z "},"È":{"ha":876,"x_min":101,"x_max":833,"o":"m 101 0 l 101 917 l 815 917 l 815 732 l 340 732 l 340 546 l 718 546 l 718 372 l 340 372 l 340 185 l 833 185 l 833 0 l 101 0 m 474 1231 l 558 1004 l 386 1004 l 263 1231 l 474 1231 z "},"Ẻ":{"ha":876,"x_min":101,"x_max":833,"o":"m 101 0 l 101 917 l 815 917 l 815 732 l 340 732 l 340 546 l 718 546 l 718 372 l 340 372 l 340 185 l 833 185 l 833 0 l 101 0 m 461 972 l 410 1042 q 465 1076 449 1058 q 481 1115 481 1093 q 469 1147 481 1135 q 435 1160 457 1160 q 401 1150 414 1160 q 381 1121 389 1140 l 272 1174 q 338 1257 290 1228 q 451 1286 385 1286 q 533 1270 496 1286 q 594 1222 571 1254 q 617 1144 617 1190 q 593 1061 617 1096 q 533 1005 569 1026 q 461 972 497 983 z "},"Ȇ":{"ha":876,"x_min":101,"x_max":833,"o":"m 101 0 l 101 917 l 815 917 l 815 732 l 340 732 l 340 546 l 718 546 l 718 372 l 340 372 l 340 185 l 833 185 l 833 0 l 101 0 m 693 993 l 542 993 q 520 1061 540 1035 q 458 1088 500 1088 q 397 1061 418 1088 q 375 993 376 1035 l 224 993 q 288 1159 224 1099 q 458 1219 351 1219 q 630 1159 567 1219 q 693 993 693 1099 z "},"Ē":{"ha":876,"x_min":101,"x_max":833,"o":"m 101 0 l 101 917 l 815 917 l 815 732 l 340 732 l 340 546 l 718 546 l 718 372 l 340 372 l 340 185 l 833 185 l 833 0 l 101 0 m 711 1158 l 711 1013 l 206 1013 l 206 1158 l 711 1158 z "},"Ḗ":{"ha":876,"x_min":101,"x_max":833,"o":"m 101 0 l 101 917 l 815 917 l 815 732 l 340 732 l 340 546 l 718 546 l 718 372 l 340 372 l 340 185 l 833 185 l 833 0 l 101 0 m 711 1158 l 711 1013 l 206 1013 l 206 1158 l 711 1158 m 443 1469 l 654 1469 l 531 1243 l 358 1243 l 443 1469 z "},"Ḕ":{"ha":876,"x_min":101,"x_max":833,"o":"m 101 0 l 101 917 l 815 917 l 815 732 l 340 732 l 340 546 l 718 546 l 718 372 l 340 372 l 340 185 l 833 185 l 833 0 l 101 0 m 711 1158 l 711 1013 l 206 1013 l 206 1158 l 711 1158 m 474 1469 l 558 1243 l 386 1243 l 263 1469 l 474 1469 z "},"Ę":{"ha":876,"x_min":101,"x_max":838,"o":"m 694 -307 q 597 -290 640 -307 q 527 -238 553 -272 q 501 -153 501 -204 q 574 -27 501 -74 q 765 40 646 19 l 835 0 q 703 -51 740 -22 q 667 -114 667 -79 q 688 -159 667 -143 q 743 -175 708 -175 q 776 -172 758 -175 q 807 -161 794 -169 l 838 -276 q 774 -300 810 -293 q 694 -307 739 -307 m 101 0 l 101 917 l 815 917 l 815 732 l 340 732 l 340 546 l 718 546 l 718 372 l 340 372 l 340 185 l 833 185 l 833 0 l 101 0 z "},"Ǝ":{"ha":876,"x_min":42,"x_max":775,"o":"m 775 0 l 42 0 l 42 185 l 536 185 l 536 372 l 158 372 l 158 546 l 536 546 l 536 732 l 61 732 l 61 917 l 775 917 l 775 0 z "},"Ẽ":{"ha":876,"x_min":101,"x_max":833,"o":"m 101 0 l 101 917 l 815 917 l 815 732 l 340 732 l 340 546 l 718 546 l 718 372 l 340 372 l 340 185 l 833 185 l 833 0 l 101 0 m 733 1219 q 708 1097 731 1146 q 647 1023 685 1047 q 563 999 608 999 q 495 1010 524 999 q 446 1038 467 1022 q 407 1066 425 1054 q 368 1078 389 1078 q 332 1058 344 1078 q 315 1000 319 1039 l 182 1000 q 236 1166 186 1111 q 364 1221 286 1221 q 428 1209 401 1221 q 474 1181 454 1197 q 510 1153 493 1165 q 547 1142 528 1142 q 584 1161 572 1142 q 600 1219 596 1181 l 733 1219 z "},"F":{"ha":850,"x_min":101,"x_max":814,"o":"m 814 732 l 340 732 l 340 538 l 718 538 l 718 353 l 340 353 l 340 0 l 101 0 l 101 917 l 814 917 l 814 732 z "},"G":{"ha":1004,"x_min":63,"x_max":922,"o":"m 481 -14 q 263 40 358 -14 q 115 200 168 94 q 63 457 63 306 q 118 711 63 606 q 277 874 174 817 q 521 931 381 931 q 772 874 676 931 q 921 696 868 818 l 700 608 q 636 711 682 679 q 522 743 590 743 q 406 710 454 743 q 332 615 357 678 q 307 458 307 551 q 333 296 307 361 q 409 199 358 231 q 535 168 460 168 q 608 178 575 168 q 667 206 642 188 q 706 253 692 225 q 719 321 719 282 l 719 335 l 510 335 l 510 494 l 922 494 l 922 0 l 760 0 l 742 215 l 781 182 q 676 37 751 88 q 481 -14 600 -14 z "},"Ğ":{"ha":1004,"x_min":63,"x_max":922,"o":"m 481 -14 q 263 40 358 -14 q 115 200 168 94 q 63 457 63 306 q 118 711 63 606 q 277 874 174 817 q 521 931 381 931 q 772 874 676 931 q 921 696 868 818 l 700 608 q 636 711 682 679 q 522 743 590 743 q 406 710 454 743 q 332 615 357 678 q 307 458 307 551 q 333 296 307 361 q 409 199 358 231 q 535 168 460 168 q 608 178 575 168 q 667 206 642 188 q 706 253 692 225 q 719 321 719 282 l 719 335 l 510 335 l 510 494 l 922 494 l 922 0 l 760 0 l 742 215 l 781 182 q 676 37 751 88 q 481 -14 600 -14 m 746 1219 q 683 1053 746 1114 q 511 993 619 993 q 340 1053 404 993 q 276 1219 276 1114 l 428 1219 q 450 1151 429 1178 q 511 1125 471 1125 q 573 1151 553 1125 q 594 1219 593 1178 l 746 1219 z "},"Ǧ":{"ha":1004,"x_min":63,"x_max":922,"o":"m 481 -14 q 263 40 358 -14 q 115 200 168 94 q 63 457 63 306 q 118 711 63 606 q 277 874 174 817 q 521 931 381 931 q 772 874 676 931 q 921 696 868 818 l 700 608 q 636 711 682 679 q 522 743 590 743 q 406 710 454 743 q 332 615 357 678 q 307 458 307 551 q 333 296 307 361 q 409 199 358 231 q 535 168 460 168 q 608 178 575 168 q 667 206 642 188 q 706 253 692 225 q 719 321 719 282 l 719 335 l 510 335 l 510 494 l 922 494 l 922 0 l 760 0 l 742 215 l 781 182 q 676 37 751 88 q 481 -14 600 -14 m 765 1231 l 626 1004 l 396 1004 l 257 1231 l 421 1231 l 511 1103 l 601 1231 l 765 1231 z "},"Ĝ":{"ha":1004,"x_min":63,"x_max":922,"o":"m 481 -14 q 263 40 358 -14 q 115 200 168 94 q 63 457 63 306 q 118 711 63 606 q 277 874 174 817 q 521 931 381 931 q 772 874 676 931 q 921 696 868 818 l 700 608 q 636 711 682 679 q 522 743 590 743 q 406 710 454 743 q 332 615 357 678 q 307 458 307 551 q 333 296 307 361 q 409 199 358 231 q 535 168 460 168 q 608 178 575 168 q 667 206 642 188 q 706 253 692 225 q 719 321 719 282 l 719 335 l 510 335 l 510 494 l 922 494 l 922 0 l 760 0 l 742 215 l 781 182 q 676 37 751 88 q 481 -14 600 -14 m 765 1004 l 601 1004 l 511 1132 l 421 1004 l 257 1004 l 396 1231 l 626 1231 l 765 1004 z "},"Ģ":{"ha":1004,"x_min":63,"x_max":922,"o":"m 481 -14 q 263 40 358 -14 q 115 200 168 94 q 63 457 63 306 q 118 711 63 606 q 277 874 174 817 q 521 931 381 931 q 772 874 676 931 q 921 696 868 818 l 700 608 q 636 711 682 679 q 522 743 590 743 q 406 710 454 743 q 332 615 357 678 q 307 458 307 551 q 333 296 307 361 q 409 199 358 231 q 535 168 460 168 q 608 178 575 168 q 667 206 642 188 q 706 253 692 225 q 719 321 719 282 l 719 335 l 510 335 l 510 494 l 922 494 l 922 0 l 760 0 l 742 215 l 781 182 q 676 37 751 88 q 481 -14 600 -14 m 660 -83 l 561 -335 l 408 -335 l 453 -83 l 660 -83 z "},"Ġ":{"ha":1004,"x_min":63,"x_max":922,"o":"m 481 -14 q 263 40 358 -14 q 115 200 168 94 q 63 457 63 306 q 118 711 63 606 q 277 874 174 817 q 521 931 381 931 q 772 874 676 931 q 921 696 868 818 l 700 608 q 636 711 682 679 q 522 743 590 743 q 406 710 454 743 q 332 615 357 678 q 307 458 307 551 q 333 296 307 361 q 409 199 358 231 q 535 168 460 168 q 608 178 575 168 q 667 206 642 188 q 706 253 692 225 q 719 321 719 282 l 719 335 l 510 335 l 510 494 l 922 494 l 922 0 l 760 0 l 742 215 l 781 182 q 676 37 751 88 q 481 -14 600 -14 m 511 1225 q 608 1197 575 1225 q 640 1114 640 1168 q 608 1031 640 1060 q 511 1001 575 1001 q 417 1031 450 1001 q 385 1114 385 1060 q 417 1197 385 1168 q 511 1225 450 1225 z "},"Ɂ":{"ha":847,"x_min":29,"x_max":815,"o":"m 444 931 q 635 894 551 931 q 767 788 719 857 q 815 622 815 718 q 778 447 815 515 q 677 341 740 379 q 536 286 614 303 l 536 0 l 306 0 l 306 417 q 455 451 400 425 q 533 520 510 478 q 557 619 557 563 q 540 683 557 656 q 493 724 522 710 q 425 739 464 739 q 311 696 354 739 q 257 568 268 653 l 29 646 q 96 792 47 728 q 229 894 144 857 q 444 931 314 931 z "},"Ḡ":{"ha":1004,"x_min":63,"x_max":922,"o":"m 481 -14 q 263 40 358 -14 q 115 200 168 94 q 63 457 63 306 q 118 711 63 606 q 277 874 174 817 q 521 931 381 931 q 772 874 676 931 q 921 696 868 818 l 700 608 q 636 711 682 679 q 522 743 590 743 q 406 710 454 743 q 332 615 357 678 q 307 458 307 551 q 333 296 307 361 q 409 199 358 231 q 535 168 460 168 q 608 178 575 168 q 667 206 642 188 q 706 253 692 225 q 719 321 719 282 l 719 335 l 510 335 l 510 494 l 922 494 l 922 0 l 760 0 l 742 215 l 781 182 q 676 37 751 88 q 481 -14 600 -14 m 764 1158 l 764 1013 l 258 1013 l 258 1158 l 764 1158 z "},"H":{"ha":1031,"x_min":101,"x_max":929,"o":"m 929 917 l 929 0 l 690 0 l 690 917 l 929 917 m 340 917 l 340 0 l 101 0 l 101 917 l 340 917 m 818 554 l 818 369 l 218 369 l 218 554 l 818 554 z "},"Ħ":{"ha":1031,"x_min":3,"x_max":1028,"o":"m 929 917 l 929 0 l 690 0 l 690 917 l 929 917 m 340 917 l 340 0 l 101 0 l 101 917 l 340 917 m 818 554 l 818 369 l 218 369 l 218 554 l 818 554 m 1028 799 l 1028 665 l 3 665 l 3 799 l 1028 799 z "},"Ḫ":{"ha":1031,"x_min":101,"x_max":929,"o":"m 929 917 l 929 0 l 690 0 l 690 917 l 929 917 m 340 917 l 340 0 l 101 0 l 101 917 l 340 917 m 818 554 l 818 369 l 218 369 l 218 554 l 818 554 m 750 -76 q 687 -242 750 -182 q 515 -303 624 -303 q 344 -242 408 -303 q 281 -76 281 -182 l 432 -76 q 454 -144 433 -118 q 515 -171 475 -171 q 577 -144 557 -171 q 599 -76 597 -118 l 750 -76 z "},"Ĥ":{"ha":1031,"x_min":101,"x_max":929,"o":"m 929 917 l 929 0 l 690 0 l 690 917 l 929 917 m 340 917 l 340 0 l 101 0 l 101 917 l 340 917 m 818 554 l 818 369 l 218 369 l 218 554 l 818 554 m 769 1004 l 606 1004 l 515 1132 l 425 1004 l 261 1004 l 400 1231 l 631 1231 l 769 1004 z "},"Ḥ":{"ha":1031,"x_min":101,"x_max":929,"o":"m 929 917 l 929 0 l 690 0 l 690 917 l 929 917 m 340 917 l 340 0 l 101 0 l 101 917 l 340 917 m 818 554 l 818 369 l 218 369 l 218 554 l 818 554 m 515 -308 q 422 -280 454 -308 q 389 -197 389 -251 q 422 -114 389 -143 q 515 -85 454 -85 q 612 -114 579 -85 q 644 -197 644 -143 q 612 -280 644 -251 q 515 -308 579 -308 z "},"I":{"ha":442,"x_min":101,"x_max":340,"o":"m 340 917 l 340 0 l 101 0 l 101 917 l 340 917 z "},"Ĳ":{"ha":1300,"x_min":101,"x_max":1215,"o":"m 340 917 l 340 0 l 101 0 l 101 917 l 340 917 m 1215 917 l 1215 353 q 1115 83 1215 179 q 832 -14 1015 -14 q 615 34 697 -14 q 503 167 533 82 q 490 363 472 253 l 724 404 q 735 226 707 278 q 840 174 764 174 q 946 224 915 174 q 976 378 976 274 l 976 917 l 1215 917 z "},"Í":{"ha":442,"x_min":101,"x_max":421,"o":"m 340 917 l 340 0 l 101 0 l 101 917 l 340 917 m 211 1231 l 422 1231 l 299 1004 l 126 1004 l 211 1231 z "},"Ĭ":{"ha":442,"x_min":-14,"x_max":456,"o":"m 340 917 l 340 0 l 101 0 l 101 917 l 340 917 m 456 1219 q 392 1053 456 1114 q 221 993 329 993 q 50 1053 114 993 q -14 1219 -14 1114 l 138 1219 q 160 1151 139 1178 q 221 1125 181 1125 q 283 1151 263 1125 q 304 1219 303 1178 l 456 1219 z "},"Î":{"ha":442,"x_min":-35,"x_max":475,"o":"m 340 917 l 340 0 l 101 0 l 101 917 l 340 917 m 475 1004 l 311 1004 l 221 1132 l 131 1004 l -33 1004 l 106 1231 l 336 1231 l 475 1004 z "},"Ȉ":{"ha":442,"x_min":-137,"x_max":469,"o":"m 340 917 l 340 0 l 101 0 l 101 917 l 340 917 m 74 1231 l 158 1004 l -12 1004 l -136 1231 l 74 1231 m 385 1231 l 469 1004 l 297 1004 l 174 1231 l 385 1231 z "},"Ï":{"ha":442,"x_min":-36,"x_max":478,"o":"m 78 1208 q 163 1181 132 1208 q 194 1101 194 1153 q 163 1023 194 1051 q 78 994 132 994 q -6 1023 25 994 q -36 1101 -36 1051 q -6 1181 -36 1153 q 78 1208 25 1208 m 361 1208 q 447 1181 415 1208 q 478 1101 478 1153 q 447 1023 478 1051 q 361 994 415 994 q 278 1023 308 994 q 247 1101 247 1051 q 278 1181 247 1153 q 361 1208 308 1208 m 340 917 l 340 0 l 101 0 l 101 917 l 340 917 z "},"Ḯ":{"ha":442,"x_min":-50,"x_max":492,"o":"m 340 917 l 340 0 l 101 0 l 101 917 l 340 917 m 67 1208 q 155 1181 124 1208 q 186 1101 186 1153 q 155 1023 186 1051 q 67 994 124 994 q -19 1023 13 994 q -50 1101 -50 1051 q -19 1181 -50 1153 q 67 1208 13 1208 m 372 1208 q 460 1181 428 1208 q 492 1101 492 1153 q 460 1023 492 1051 q 372 994 428 994 q 287 1023 318 994 q 256 1101 256 1051 q 287 1181 256 1153 q 372 1208 318 1208 m 206 1494 l 417 1494 l 293 1268 l 121 1268 l 206 1494 z "},"İ":{"ha":442,"x_min":94,"x_max":350,"o":"m 340 917 l 340 0 l 101 0 l 101 917 l 340 917 m 221 1225 q 317 1197 285 1225 q 350 1114 350 1168 q 317 1031 350 1060 q 221 1001 285 1001 q 127 1031 160 1001 q 94 1114 94 1060 q 127 1197 94 1168 q 221 1225 160 1225 z "},"Ị":{"ha":442,"x_min":94,"x_max":350,"o":"m 340 917 l 340 0 l 101 0 l 101 917 l 340 917 m 221 -308 q 127 -280 160 -308 q 94 -197 94 -251 q 127 -114 94 -143 q 221 -85 160 -85 q 317 -114 285 -85 q 350 -197 350 -143 q 317 -280 350 -251 q 221 -308 285 -308 z "},"Ì":{"ha":442,"x_min":19,"x_max":340,"o":"m 340 917 l 340 0 l 101 0 l 101 917 l 340 917 m 231 1231 l 315 1004 l 143 1004 l 19 1231 l 231 1231 z "},"Ỉ":{"ha":442,"x_min":33,"x_max":378,"o":"m 340 917 l 340 0 l 101 0 l 101 917 l 340 917 m 222 972 l 171 1042 q 226 1076 210 1058 q 242 1115 242 1093 q 230 1147 242 1135 q 196 1160 218 1160 q 163 1150 175 1160 q 142 1121 150 1140 l 33 1174 q 99 1257 51 1228 q 213 1286 146 1286 q 294 1270 257 1286 q 355 1222 332 1254 q 378 1144 378 1190 q 354 1061 378 1096 q 294 1005 331 1026 q 222 972 258 983 z "},"Ȋ":{"ha":442,"x_min":-14,"x_max":456,"o":"m 340 917 l 340 0 l 101 0 l 101 917 l 340 917 m 456 993 l 304 993 q 283 1061 303 1035 q 221 1088 263 1088 q 160 1061 181 1088 q 138 993 139 1035 l -14 993 q 50 1159 -14 1099 q 221 1219 114 1219 q 392 1159 329 1219 q 456 993 456 1099 z "},"Ī":{"ha":442,"x_min":24,"x_max":417,"o":"m 417 1158 l 417 1013 l 24 1013 l 24 1158 l 417 1158 m 340 917 l 340 0 l 101 0 l 101 917 l 340 917 z "},"Į":{"ha":442,"x_min":21,"x_max":360,"o":"m 219 -315 q 122 -299 168 -315 q 49 -247 76 -282 q 21 -153 21 -211 q 51 -48 21 -89 q 132 17 81 -7 q 249 56 183 42 l 340 0 q 231 -57 267 -29 q 194 -122 194 -85 q 214 -167 194 -150 q 268 -183 233 -183 q 300 -180 283 -183 q 328 -171 317 -176 l 360 -285 q 298 -308 332 -301 q 219 -315 264 -315 m 340 917 l 340 0 l 101 0 l 101 917 l 340 917 z "},"Ĩ":{"ha":442,"x_min":-56,"x_max":496,"o":"m 340 917 l 340 0 l 101 0 l 101 917 l 340 917 m 496 1219 q 470 1097 493 1146 q 409 1023 447 1047 q 325 999 371 999 q 258 1010 286 999 q 208 1038 229 1022 q 169 1066 188 1054 q 131 1078 151 1078 q 94 1058 107 1078 q 78 1000 82 1039 l -56 1000 q -1 1166 -51 1111 q 126 1221 49 1221 q 190 1209 164 1221 q 236 1181 217 1197 q 273 1153 256 1165 q 310 1142 290 1142 q 347 1161 335 1142 q 363 1219 358 1181 l 496 1219 z "},"J":{"ha":858,"x_min":31,"x_max":774,"o":"m 774 917 l 774 353 q 674 83 774 179 q 390 -14 574 -14 q 174 34 256 -14 q 61 167 92 82 q 49 363 31 253 l 282 404 q 294 226 265 278 q 399 174 322 174 q 504 224 474 174 q 535 378 535 274 l 535 917 l 774 917 z "},"Ĵ":{"ha":858,"x_min":31,"x_max":910,"o":"m 774 917 l 774 353 q 674 83 774 179 q 390 -14 574 -14 q 174 34 256 -14 q 61 167 92 82 q 49 363 31 253 l 282 404 q 294 226 265 278 q 399 174 322 174 q 504 224 474 174 q 535 378 535 274 l 535 917 l 774 917 m 908 1004 l 744 1004 l 654 1132 l 564 1004 l 400 1004 l 539 1231 l 769 1231 l 908 1004 z "},"K":{"ha":963,"x_min":101,"x_max":950,"o":"m 933 917 l 503 401 l 488 438 l 269 172 l 224 365 l 668 917 l 933 917 m 340 917 l 340 0 l 101 0 l 101 917 l 340 917 m 581 614 l 950 0 l 679 0 l 401 481 l 581 614 z "},"Ķ":{"ha":963,"x_min":101,"x_max":950,"o":"m 933 917 l 503 401 l 488 438 l 269 172 l 224 365 l 668 917 l 933 917 m 340 917 l 340 0 l 101 0 l 101 917 l 340 917 m 581 614 l 950 0 l 679 0 l 401 481 l 581 614 m 624 -83 l 525 -335 l 372 -335 l 417 -83 l 624 -83 z "},"L":{"ha":836,"x_min":101,"x_max":800,"o":"m 340 185 l 800 185 l 800 0 l 101 0 l 101 917 l 340 917 l 340 185 z "},"Ǉ":{"ha":1694,"x_min":101,"x_max":1610,"o":"m 340 185 l 800 185 l 800 0 l 101 0 l 101 917 l 340 917 l 340 185 m 1610 917 l 1610 353 q 1510 83 1610 179 q 1226 -14 1410 -14 q 1010 34 1092 -14 q 897 167 928 82 q 885 363 867 253 l 1118 404 q 1130 226 1101 278 q 1235 174 1158 174 q 1340 224 1310 174 q 1371 378 1371 274 l 1371 917 l 1610 917 z "},"Ĺ":{"ha":836,"x_min":101,"x_max":800,"o":"m 340 185 l 800 185 l 800 0 l 101 0 l 101 917 l 340 917 l 340 185 m 206 1231 l 417 1231 l 293 1004 l 121 1004 l 206 1231 z "},"Ľ":{"ha":836,"x_min":101,"x_max":800,"o":"m 742 917 l 658 585 l 501 585 l 535 917 l 742 917 m 340 185 l 800 185 l 800 0 l 101 0 l 101 917 l 340 917 l 340 185 z "},"Ļ":{"ha":836,"x_min":101,"x_max":800,"o":"m 340 185 l 800 185 l 800 0 l 101 0 l 101 917 l 340 917 l 340 185 m 586 -83 l 488 -335 l 335 -335 l 379 -83 l 586 -83 z "},"Ŀ":{"ha":894,"x_min":101,"x_max":813,"o":"m 340 185 l 800 185 l 800 0 l 101 0 l 101 917 l 340 917 l 340 185 m 675 649 q 777 615 740 649 q 814 522 814 582 q 777 431 814 464 q 675 397 740 397 q 574 431 611 397 q 536 522 536 464 q 574 615 536 582 q 675 649 611 649 z "},"Ḷ":{"ha":836,"x_min":101,"x_max":800,"o":"m 340 185 l 800 185 l 800 0 l 101 0 l 101 917 l 340 917 l 340 185 m 467 -308 q 373 -280 406 -308 q 340 -197 340 -251 q 373 -114 340 -143 q 467 -85 406 -85 q 563 -114 531 -85 q 596 -197 596 -143 q 563 -280 596 -251 q 467 -308 531 -308 z "},"ǈ":{"ha":1240,"x_min":101,"x_max":1176,"o":"m 340 185 l 800 185 l 800 0 l 101 0 l 101 917 l 340 917 l 340 185 m 1039 775 q 934 802 967 775 q 901 888 901 829 q 934 974 901 947 q 1039 1001 967 1001 q 1143 974 1110 1001 q 1176 888 1176 947 q 1143 802 1176 829 q 1039 775 1110 775 m 1157 694 l 1157 -39 q 1124 -190 1157 -133 q 1032 -273 1092 -247 q 888 -299 972 -299 q 786 -287 832 -299 q 706 -254 740 -275 l 739 -101 q 776 -120 754 -112 q 828 -128 799 -128 q 895 -103 869 -128 q 921 -18 921 -79 l 921 694 l 1157 694 z "},"Ḻ":{"ha":836,"x_min":101,"x_max":800,"o":"m 340 185 l 800 185 l 800 0 l 101 0 l 101 917 l 340 917 l 340 185 m 719 -96 l 719 -242 l 214 -242 l 214 -96 l 719 -96 z "},"Ł":{"ha":928,"x_min":40,"x_max":892,"o":"m 668 704 l 668 531 l 40 231 l 40 404 l 668 704 m 432 185 l 892 185 l 892 0 l 193 0 l 193 917 l 432 917 l 432 185 z "},"M":{"ha":1264,"x_min":101,"x_max":1163,"o":"m 1163 917 l 1163 0 l 951 0 l 951 421 l 958 703 l 956 703 l 729 0 l 536 0 l 310 703 l 307 703 l 314 421 l 314 0 l 101 0 l 101 917 l 442 917 l 586 450 l 638 256 l 640 256 l 693 449 l 836 917 l 1163 917 z "},"Ṃ":{"ha":1264,"x_min":101,"x_max":1163,"o":"m 1163 917 l 1163 0 l 951 0 l 951 421 l 958 703 l 956 703 l 729 0 l 536 0 l 310 703 l 307 703 l 314 421 l 314 0 l 101 0 l 101 917 l 442 917 l 586 450 l 638 256 l 640 256 l 693 449 l 836 917 l 1163 917 m 632 -308 q 538 -280 571 -308 q 506 -197 506 -251 q 538 -114 506 -143 q 632 -85 571 -85 q 728 -114 696 -85 q 761 -197 761 -143 q 728 -280 761 -251 q 632 -308 696 -308 z "},"N":{"ha":1029,"x_min":101,"x_max":928,"o":"m 928 917 l 928 0 l 663 0 l 378 496 l 308 632 l 307 632 l 313 463 l 313 0 l 101 0 l 101 917 l 367 917 l 651 421 l 721 285 l 722 285 l 717 454 l 717 917 l 928 917 z "},"Ǌ":{"ha":1888,"x_min":101,"x_max":1803,"o":"m 928 917 l 928 0 l 663 0 l 378 496 l 308 632 l 307 632 l 313 463 l 313 0 l 101 0 l 101 917 l 367 917 l 651 421 l 721 285 l 722 285 l 717 454 l 717 917 l 928 917 m 1803 917 l 1803 353 q 1703 83 1803 179 q 1419 -14 1603 -14 q 1203 34 1285 -14 q 1090 167 1121 82 q 1078 363 1060 253 l 1311 404 q 1323 226 1294 278 q 1428 174 1351 174 q 1533 224 1503 174 q 1564 378 1564 274 l 1564 917 l 1803 917 z "},"Ń":{"ha":1029,"x_min":101,"x_max":928,"o":"m 928 917 l 928 0 l 663 0 l 378 496 l 308 632 l 307 632 l 313 463 l 313 0 l 101 0 l 101 917 l 367 917 l 651 421 l 721 285 l 722 285 l 717 454 l 717 917 l 928 917 m 501 1231 l 713 1231 l 589 1004 l 417 1004 l 501 1231 z "},"Ň":{"ha":1029,"x_min":101,"x_max":928,"o":"m 928 917 l 928 0 l 663 0 l 378 496 l 308 632 l 307 632 l 313 463 l 313 0 l 101 0 l 101 917 l 367 917 l 651 421 l 721 285 l 722 285 l 717 454 l 717 917 l 928 917 m 771 1231 l 632 1004 l 401 1004 l 263 1231 l 426 1231 l 517 1103 l 607 1231 l 771 1231 z "},"Ņ":{"ha":1029,"x_min":101,"x_max":928,"o":"m 928 917 l 928 0 l 663 0 l 378 496 l 308 632 l 307 632 l 313 463 l 313 0 l 101 0 l 101 917 l 367 917 l 651 421 l 721 285 l 722 285 l 717 454 l 717 917 l 928 917 m 651 -83 l 553 -335 l 400 -335 l 444 -83 l 651 -83 z "},"Ṅ":{"ha":1029,"x_min":101,"x_max":928,"o":"m 928 917 l 928 0 l 663 0 l 378 496 l 308 632 l 307 632 l 313 463 l 313 0 l 101 0 l 101 917 l 367 917 l 651 421 l 721 285 l 722 285 l 717 454 l 717 917 l 928 917 m 517 1225 q 613 1197 581 1225 q 646 1114 646 1168 q 613 1031 646 1060 q 517 1001 581 1001 q 423 1031 456 1001 q 390 1114 390 1060 q 423 1197 390 1168 q 517 1225 456 1225 z "},"Ṇ":{"ha":1029,"x_min":101,"x_max":928,"o":"m 928 917 l 928 0 l 663 0 l 378 496 l 308 632 l 307 632 l 313 463 l 313 0 l 101 0 l 101 917 l 367 917 l 651 421 l 721 285 l 722 285 l 717 454 l 717 917 l 928 917 m 532 -308 q 438 -280 471 -308 q 406 -197 406 -251 q 438 -114 406 -143 q 532 -85 471 -85 q 628 -114 596 -85 q 661 -197 661 -143 q 628 -280 661 -251 q 532 -308 596 -308 z "},"Ŋ":{"ha":1029,"x_min":101,"x_max":928,"o":"m 678 -299 q 583 -289 625 -299 q 507 -261 540 -279 l 536 -96 q 577 -117 553 -108 q 632 -125 601 -125 q 694 -101 671 -125 q 717 -18 717 -76 l 717 7 l 381 506 l 308 635 l 307 635 l 313 463 l 313 0 l 101 0 l 101 917 l 367 917 l 651 479 l 717 358 l 718 358 l 717 917 l 928 917 l 928 -39 q 897 -190 928 -133 q 810 -273 865 -247 q 678 -299 754 -299 z "},"ǋ":{"ha":1433,"x_min":101,"x_max":1369,"o":"m 928 917 l 928 0 l 663 0 l 378 496 l 308 632 l 307 632 l 313 463 l 313 0 l 101 0 l 101 917 l 367 917 l 651 421 l 721 285 l 722 285 l 717 454 l 717 917 l 928 917 m 1232 775 q 1127 802 1160 775 q 1094 888 1094 829 q 1127 974 1094 947 q 1232 1001 1160 1001 q 1336 974 1303 1001 q 1369 888 1369 947 q 1336 802 1369 829 q 1232 775 1303 775 m 1350 694 l 1350 -39 q 1317 -190 1350 -133 q 1225 -273 1285 -247 q 1081 -299 1165 -299 q 979 -287 1025 -299 q 899 -254 933 -275 l 932 -101 q 969 -120 947 -112 q 1021 -128 992 -128 q 1088 -103 1063 -128 q 1114 -18 1114 -79 l 1114 694 l 1350 694 z "},"Ṉ":{"ha":1029,"x_min":101,"x_max":928,"o":"m 928 917 l 928 0 l 663 0 l 378 496 l 308 632 l 307 632 l 313 463 l 313 0 l 101 0 l 101 917 l 367 917 l 651 421 l 721 285 l 722 285 l 717 454 l 717 917 l 928 917 m 785 -96 l 785 -242 l 279 -242 l 279 -96 l 785 -96 z "},"Ñ":{"ha":1029,"x_min":101,"x_max":928,"o":"m 928 917 l 928 0 l 663 0 l 378 496 l 308 632 l 307 632 l 313 463 l 313 0 l 101 0 l 101 917 l 367 917 l 651 421 l 721 285 l 722 285 l 717 454 l 717 917 l 928 917 m 792 1219 q 766 1097 789 1146 q 705 1023 743 1047 q 621 999 667 999 q 553 1010 582 999 q 504 1038 525 1022 q 465 1066 483 1054 q 426 1078 447 1078 q 390 1058 403 1078 q 374 1000 378 1039 l 240 1000 q 294 1166 244 1111 q 422 1221 344 1221 q 486 1209 460 1221 q 532 1181 513 1197 q 569 1153 551 1165 q 606 1142 586 1142 q 642 1161 631 1142 q 658 1219 654 1181 l 792 1219 z "},"O":{"ha":1024,"x_min":63,"x_max":961,"o":"m 513 931 q 752 874 651 931 q 907 713 853 818 q 961 458 961 607 q 907 204 961 310 q 752 42 853 99 q 513 -14 651 -14 q 272 42 374 -14 q 117 204 171 99 q 63 458 63 310 q 117 713 63 607 q 272 874 171 818 q 513 931 374 931 m 513 743 q 400 711 446 743 q 331 616 354 679 q 307 458 307 553 q 331 301 307 365 q 400 206 354 238 q 513 174 446 174 q 624 206 579 174 q 693 301 669 238 q 717 458 717 365 q 693 616 717 553 q 624 711 669 679 q 513 743 579 743 z "},"Ó":{"ha":1024,"x_min":63,"x_max":961,"o":"m 513 931 q 752 874 651 931 q 907 713 853 818 q 961 458 961 607 q 907 204 961 310 q 752 42 853 99 q 513 -14 651 -14 q 272 42 374 -14 q 117 204 171 99 q 63 458 63 310 q 117 713 63 607 q 272 874 171 818 q 513 931 374 931 m 513 743 q 400 711 446 743 q 331 616 354 679 q 307 458 307 553 q 331 301 307 365 q 400 206 354 238 q 513 174 446 174 q 624 206 579 174 q 693 301 669 238 q 717 458 717 365 q 693 616 717 553 q 624 711 669 679 q 513 743 579 743 m 497 1231 l 708 1231 l 585 1004 l 413 1004 l 497 1231 z "},"Ŏ":{"ha":1024,"x_min":63,"x_max":961,"o":"m 513 931 q 752 874 651 931 q 907 713 853 818 q 961 458 961 607 q 907 204 961 310 q 752 42 853 99 q 513 -14 651 -14 q 272 42 374 -14 q 117 204 171 99 q 63 458 63 310 q 117 713 63 607 q 272 874 171 818 q 513 931 374 931 m 513 743 q 400 711 446 743 q 331 616 354 679 q 307 458 307 553 q 331 301 307 365 q 400 206 354 238 q 513 174 446 174 q 624 206 579 174 q 693 301 669 238 q 717 458 717 365 q 693 616 717 553 q 624 711 669 679 q 513 743 579 743 m 747 1219 q 684 1053 747 1114 q 513 993 621 993 q 342 1053 406 993 q 278 1219 278 1114 l 429 1219 q 451 1151 431 1178 q 513 1125 472 1125 q 574 1151 554 1125 q 596 1219 594 1178 l 747 1219 z "},"Ô":{"ha":1024,"x_min":63,"x_max":961,"o":"m 513 931 q 752 874 651 931 q 907 713 853 818 q 961 458 961 607 q 907 204 961 310 q 752 42 853 99 q 513 -14 651 -14 q 272 42 374 -14 q 117 204 171 99 q 63 458 63 310 q 117 713 63 607 q 272 874 171 818 q 513 931 374 931 m 513 743 q 400 711 446 743 q 331 616 354 679 q 307 458 307 553 q 331 301 307 365 q 400 206 354 238 q 513 174 446 174 q 624 206 579 174 q 693 301 669 238 q 717 458 717 365 q 693 616 717 553 q 624 711 669 679 q 513 743 579 743 m 767 1004 l 603 1004 l 513 1132 l 422 1004 l 258 1004 l 397 1231 l 628 1231 l 767 1004 z "},"Ố":{"ha":1024,"x_min":63,"x_max":983,"o":"m 760 999 l 603 999 l 513 1115 l 422 999 l 264 999 l 407 1224 l 617 1224 l 760 999 m 794 1347 l 983 1347 l 872 1142 l 717 1142 l 794 1347 m 513 931 q 752 874 651 931 q 907 713 853 818 q 961 458 961 607 q 907 204 961 310 q 752 42 853 99 q 513 -14 651 -14 q 272 42 374 -14 q 117 204 171 99 q 63 458 63 310 q 117 713 63 607 q 272 874 171 818 q 513 931 374 931 m 513 743 q 400 711 446 743 q 331 616 354 679 q 307 458 307 553 q 331 301 307 365 q 400 206 354 238 q 513 174 446 174 q 624 206 579 174 q 693 301 669 238 q 717 458 717 365 q 693 616 717 553 q 624 711 669 679 q 513 743 579 743 z "},"Ộ":{"ha":1024,"x_min":63,"x_max":961,"o":"m 513 931 q 752 874 651 931 q 907 713 853 818 q 961 458 961 607 q 907 204 961 310 q 752 42 853 99 q 513 -14 651 -14 q 272 42 374 -14 q 117 204 171 99 q 63 458 63 310 q 117 713 63 607 q 272 874 171 818 q 513 931 374 931 m 513 743 q 400 711 446 743 q 331 616 354 679 q 307 458 307 553 q 331 301 307 365 q 400 206 354 238 q 513 174 446 174 q 624 206 579 174 q 693 301 669 238 q 717 458 717 365 q 693 616 717 553 q 624 711 669 679 q 513 743 579 743 m 513 -308 q 419 -280 451 -308 q 386 -197 386 -251 q 419 -114 386 -143 q 513 -85 451 -85 q 609 -114 576 -85 q 642 -197 642 -143 q 609 -280 642 -251 q 513 -308 576 -308 m 767 1004 l 603 1004 l 513 1132 l 422 1004 l 258 1004 l 397 1231 l 628 1231 l 767 1004 z "},"Ồ":{"ha":1024,"x_min":63,"x_max":961,"o":"m 760 999 l 603 999 l 513 1115 l 422 999 l 264 999 l 407 1224 l 617 1224 l 760 999 m 821 1347 l 897 1142 l 743 1142 l 632 1347 l 821 1347 m 513 931 q 752 874 651 931 q 907 713 853 818 q 961 458 961 607 q 907 204 961 310 q 752 42 853 99 q 513 -14 651 -14 q 272 42 374 -14 q 117 204 171 99 q 63 458 63 310 q 117 713 63 607 q 272 874 171 818 q 513 931 374 931 m 513 743 q 400 711 446 743 q 331 616 354 679 q 307 458 307 553 q 331 301 307 365 q 400 206 354 238 q 513 174 446 174 q 624 206 579 174 q 693 301 669 238 q 717 458 717 365 q 693 616 717 553 q 624 711 669 679 q 513 743 579 743 z "},"Ổ":{"ha":1024,"x_min":63,"x_max":961,"o":"m 760 999 l 603 999 l 513 1115 l 422 999 l 264 999 l 407 1224 l 617 1224 l 760 999 m 758 1119 l 707 1189 q 761 1223 744 1206 q 778 1263 778 1240 q 766 1294 778 1282 q 731 1307 754 1307 q 699 1297 711 1307 q 678 1268 686 1288 l 569 1321 q 635 1404 588 1375 q 749 1433 682 1433 q 831 1417 793 1433 q 891 1369 868 1401 q 914 1292 914 1338 q 890 1208 914 1243 q 831 1152 867 1174 q 758 1119 794 1131 m 513 931 q 752 874 651 931 q 907 713 853 818 q 961 458 961 607 q 907 204 961 310 q 752 42 853 99 q 513 -14 651 -14 q 272 42 374 -14 q 117 204 171 99 q 63 458 63 310 q 117 713 63 607 q 272 874 171 818 q 513 931 374 931 m 513 743 q 400 711 446 743 q 331 616 354 679 q 307 458 307 553 q 331 301 307 365 q 400 206 354 238 q 513 174 446 174 q 624 206 579 174 q 693 301 669 238 q 717 458 717 365 q 693 616 717 553 q 624 711 669 679 q 513 743 579 743 z "},"Ỗ":{"ha":1024,"x_min":63,"x_max":961,"o":"m 760 999 l 603 999 l 513 1115 l 422 999 l 264 999 l 407 1224 l 617 1224 l 760 999 m 767 1458 q 717 1306 763 1356 q 608 1257 672 1257 q 547 1268 572 1257 q 501 1293 521 1279 q 465 1318 482 1307 q 429 1329 449 1329 q 397 1313 408 1329 q 381 1260 385 1296 l 257 1260 q 308 1413 263 1364 q 425 1461 354 1461 q 485 1450 460 1461 q 527 1425 510 1439 q 560 1400 544 1411 q 594 1389 576 1389 q 628 1406 617 1389 q 643 1458 639 1422 l 767 1458 m 513 931 q 752 874 651 931 q 907 713 853 818 q 961 458 961 607 q 907 204 961 310 q 752 42 853 99 q 513 -14 651 -14 q 272 42 374 -14 q 117 204 171 99 q 63 458 63 310 q 117 713 63 607 q 272 874 171 818 q 513 931 374 931 m 513 743 q 400 711 446 743 q 331 616 354 679 q 307 458 307 553 q 331 301 307 365 q 400 206 354 238 q 513 174 446 174 q 624 206 579 174 q 693 301 669 238 q 717 458 717 365 q 693 616 717 553 q 624 711 669 679 q 513 743 579 743 z "},"Ȍ":{"ha":1024,"x_min":63,"x_max":961,"o":"m 513 931 q 752 874 651 931 q 907 713 853 818 q 961 458 961 607 q 907 204 961 310 q 752 42 853 99 q 513 -14 651 -14 q 272 42 374 -14 q 117 204 171 99 q 63 458 63 310 q 117 713 63 607 q 272 874 171 818 q 513 931 374 931 m 513 743 q 400 711 446 743 q 331 616 354 679 q 307 458 307 553 q 331 301 307 365 q 400 206 354 238 q 513 174 446 174 q 624 206 579 174 q 693 301 669 238 q 717 458 717 365 q 693 616 717 553 q 624 711 669 679 q 513 743 579 743 m 365 1231 l 450 1004 l 279 1004 l 156 1231 l 365 1231 m 676 1231 l 761 1004 l 589 1004 l 465 1231 l 676 1231 z "},"Ö":{"ha":1024,"x_min":63,"x_max":961,"o":"m 513 931 q 752 874 651 931 q 907 713 853 818 q 961 458 961 607 q 907 204 961 310 q 752 42 853 99 q 513 -14 651 -14 q 272 42 374 -14 q 117 204 171 99 q 63 458 63 310 q 117 713 63 607 q 272 874 171 818 q 513 931 374 931 m 513 743 q 400 711 446 743 q 331 616 354 679 q 307 458 307 553 q 331 301 307 365 q 400 206 354 238 q 513 174 446 174 q 624 206 579 174 q 693 301 669 238 q 717 458 717 365 q 693 616 717 553 q 624 711 669 679 q 513 743 579 743 m 358 1208 q 447 1181 415 1208 q 478 1101 478 1153 q 447 1023 478 1051 q 358 994 415 994 q 273 1023 304 994 q 242 1101 242 1051 q 273 1181 242 1153 q 358 1208 304 1208 m 664 1208 q 751 1181 719 1208 q 783 1101 783 1153 q 751 1023 783 1051 q 664 994 719 994 q 578 1023 610 994 q 547 1101 547 1051 q 578 1181 547 1153 q 664 1208 610 1208 z "},"Ȫ":{"ha":1024,"x_min":63,"x_max":961,"o":"m 513 931 q 752 874 651 931 q 907 713 853 818 q 961 458 961 607 q 907 204 961 310 q 752 42 853 99 q 513 -14 651 -14 q 272 42 374 -14 q 117 204 171 99 q 63 458 63 310 q 117 713 63 607 q 272 874 171 818 q 513 931 374 931 m 513 743 q 400 711 446 743 q 331 616 354 679 q 307 458 307 553 q 331 301 307 365 q 400 206 354 238 q 513 174 446 174 q 624 206 579 174 q 693 301 669 238 q 717 458 717 365 q 693 616 717 553 q 624 711 669 679 q 513 743 579 743 m 358 1208 q 447 1181 415 1208 q 478 1101 478 1153 q 447 1023 478 1051 q 358 994 415 994 q 273 1023 304 994 q 242 1101 242 1051 q 273 1181 242 1153 q 358 1208 304 1208 m 664 1208 q 751 1181 719 1208 q 783 1101 783 1153 q 751 1023 783 1051 q 664 994 719 994 q 578 1023 610 994 q 547 1101 547 1051 q 578 1181 547 1153 q 664 1208 610 1208 m 765 1422 l 765 1276 l 260 1276 l 260 1422 l 765 1422 z "},"Ȱ":{"ha":1024,"x_min":63,"x_max":961,"o":"m 513 931 q 752 874 651 931 q 907 713 853 818 q 961 458 961 607 q 907 204 961 310 q 752 42 853 99 q 513 -14 651 -14 q 272 42 374 -14 q 117 204 171 99 q 63 458 63 310 q 117 713 63 607 q 272 874 171 818 q 513 931 374 931 m 513 743 q 400 711 446 743 q 331 616 354 679 q 307 458 307 553 q 331 301 307 365 q 400 206 354 238 q 513 174 446 174 q 624 206 579 174 q 693 301 669 238 q 717 458 717 365 q 693 616 717 553 q 624 711 669 679 q 513 743 579 743 m 513 1225 q 609 1197 576 1225 q 642 1114 642 1168 q 609 1031 642 1060 q 513 1001 576 1001 q 419 1031 451 1001 q 386 1114 386 1060 q 419 1197 386 1168 q 513 1225 451 1225 m 767 1433 l 767 1288 l 261 1288 l 261 1433 l 767 1433 z "},"Ọ":{"ha":1024,"x_min":63,"x_max":961,"o":"m 513 931 q 752 874 651 931 q 907 713 853 818 q 961 458 961 607 q 907 204 961 310 q 752 42 853 99 q 513 -14 651 -14 q 272 42 374 -14 q 117 204 171 99 q 63 458 63 310 q 117 713 63 607 q 272 874 171 818 q 513 931 374 931 m 513 743 q 400 711 446 743 q 331 616 354 679 q 307 458 307 553 q 331 301 307 365 q 400 206 354 238 q 513 174 446 174 q 624 206 579 174 q 693 301 669 238 q 717 458 717 365 q 693 616 717 553 q 624 711 669 679 q 513 743 579 743 m 513 -308 q 419 -280 451 -308 q 386 -197 386 -251 q 419 -114 386 -143 q 513 -85 451 -85 q 609 -114 576 -85 q 642 -197 642 -143 q 609 -280 642 -251 q 513 -308 576 -308 z "},"Ò":{"ha":1024,"x_min":63,"x_max":961,"o":"m 513 931 q 752 874 651 931 q 907 713 853 818 q 961 458 961 607 q 907 204 961 310 q 752 42 853 99 q 513 -14 651 -14 q 272 42 374 -14 q 117 204 171 99 q 63 458 63 310 q 117 713 63 607 q 272 874 171 818 q 513 931 374 931 m 513 743 q 400 711 446 743 q 331 616 354 679 q 307 458 307 553 q 331 301 307 365 q 400 206 354 238 q 513 174 446 174 q 624 206 579 174 q 693 301 669 238 q 717 458 717 365 q 693 616 717 553 q 624 711 669 679 q 513 743 579 743 m 522 1231 l 607 1004 l 435 1004 l 311 1231 l 522 1231 z "},"Ỏ":{"ha":1024,"x_min":63,"x_max":961,"o":"m 513 931 q 752 874 651 931 q 907 713 853 818 q 961 458 961 607 q 907 204 961 310 q 752 42 853 99 q 513 -14 651 -14 q 272 42 374 -14 q 117 204 171 99 q 63 458 63 310 q 117 713 63 607 q 272 874 171 818 q 513 931 374 931 m 513 743 q 400 711 446 743 q 331 616 354 679 q 307 458 307 553 q 331 301 307 365 q 400 206 354 238 q 513 174 446 174 q 624 206 579 174 q 693 301 669 238 q 717 458 717 365 q 693 616 717 553 q 624 711 669 679 q 513 743 579 743 m 514 972 l 463 1042 q 517 1076 501 1058 q 533 1115 533 1093 q 522 1147 533 1135 q 488 1160 510 1160 q 454 1150 467 1160 q 433 1121 442 1140 l 325 1174 q 390 1257 343 1228 q 504 1286 438 1286 q 586 1270 549 1286 q 647 1222 624 1254 q 669 1144 669 1190 q 646 1061 669 1096 q 586 1005 622 1026 q 514 972 550 983 z "},"Ơ":{"ha":1024,"x_min":63,"x_max":961,"o":"m 938 1064 q 864 857 938 931 q 644 783 790 783 l 633 917 q 742 952 710 917 q 774 1064 774 988 l 938 1064 m 513 931 q 752 874 651 931 q 907 713 853 818 q 961 458 961 607 q 907 204 961 310 q 752 42 853 99 q 513 -14 651 -14 q 272 42 374 -14 q 117 204 171 99 q 63 458 63 310 q 117 713 63 607 q 272 874 171 818 q 513 931 374 931 m 513 743 q 400 711 446 743 q 331 616 354 679 q 307 458 307 553 q 331 301 307 365 q 400 206 354 238 q 513 174 446 174 q 624 206 579 174 q 693 301 669 238 q 717 458 717 365 q 693 616 717 553 q 624 711 669 679 q 513 743 579 743 z "},"Ớ":{"ha":1024,"x_min":63,"x_max":961,"o":"m 938 1064 q 864 857 938 931 q 644 783 790 783 l 633 917 q 742 952 710 917 q 774 1064 774 988 l 938 1064 m 513 931 q 752 874 651 931 q 907 713 853 818 q 961 458 961 607 q 907 204 961 310 q 752 42 853 99 q 513 -14 651 -14 q 272 42 374 -14 q 117 204 171 99 q 63 458 63 310 q 117 713 63 607 q 272 874 171 818 q 513 931 374 931 m 513 743 q 400 711 446 743 q 331 616 354 679 q 307 458 307 553 q 331 301 307 365 q 400 206 354 238 q 513 174 446 174 q 624 206 579 174 q 693 301 669 238 q 717 458 717 365 q 693 616 717 553 q 624 711 669 679 q 513 743 579 743 m 497 1231 l 708 1231 l 585 1004 l 413 1004 l 497 1231 z "},"Ợ":{"ha":1024,"x_min":63,"x_max":961,"o":"m 938 1064 q 864 857 938 931 q 644 783 790 783 l 633 917 q 742 952 710 917 q 774 1064 774 988 l 938 1064 m 513 931 q 752 874 651 931 q 907 713 853 818 q 961 458 961 607 q 907 204 961 310 q 752 42 853 99 q 513 -14 651 -14 q 272 42 374 -14 q 117 204 171 99 q 63 458 63 310 q 117 713 63 607 q 272 874 171 818 q 513 931 374 931 m 513 743 q 400 711 446 743 q 331 616 354 679 q 307 458 307 553 q 331 301 307 365 q 400 206 354 238 q 513 174 446 174 q 624 206 579 174 q 693 301 669 238 q 717 458 717 365 q 693 616 717 553 q 624 711 669 679 q 513 743 579 743 m 513 -308 q 419 -280 451 -308 q 386 -197 386 -251 q 419 -114 386 -143 q 513 -85 451 -85 q 609 -114 576 -85 q 642 -197 642 -143 q 609 -280 642 -251 q 513 -308 576 -308 z "},"Ờ":{"ha":1024,"x_min":63,"x_max":961,"o":"m 938 1064 q 864 857 938 931 q 644 783 790 783 l 633 917 q 742 952 710 917 q 774 1064 774 988 l 938 1064 m 513 931 q 752 874 651 931 q 907 713 853 818 q 961 458 961 607 q 907 204 961 310 q 752 42 853 99 q 513 -14 651 -14 q 272 42 374 -14 q 117 204 171 99 q 63 458 63 310 q 117 713 63 607 q 272 874 171 818 q 513 931 374 931 m 513 743 q 400 711 446 743 q 331 616 354 679 q 307 458 307 553 q 331 301 307 365 q 400 206 354 238 q 513 174 446 174 q 624 206 579 174 q 693 301 669 238 q 717 458 717 365 q 693 616 717 553 q 624 711 669 679 q 513 743 579 743 m 528 1231 l 613 1004 l 440 1004 l 317 1231 l 528 1231 z "},"Ở":{"ha":1024,"x_min":63,"x_max":961,"o":"m 938 1064 q 864 857 938 931 q 644 783 790 783 l 633 917 q 742 952 710 917 q 774 1064 774 988 l 938 1064 m 513 931 q 752 874 651 931 q 907 713 853 818 q 961 458 961 607 q 907 204 961 310 q 752 42 853 99 q 513 -14 651 -14 q 272 42 374 -14 q 117 204 171 99 q 63 458 63 310 q 117 713 63 607 q 272 874 171 818 q 513 931 374 931 m 513 743 q 400 711 446 743 q 331 616 354 679 q 307 458 307 553 q 331 301 307 365 q 400 206 354 238 q 513 174 446 174 q 624 206 579 174 q 693 301 669 238 q 717 458 717 365 q 693 616 717 553 q 624 711 669 679 q 513 743 579 743 m 514 972 l 463 1042 q 517 1076 501 1058 q 533 1115 533 1093 q 522 1147 533 1135 q 488 1160 510 1160 q 454 1150 467 1160 q 433 1121 442 1140 l 325 1174 q 390 1257 343 1228 q 504 1286 438 1286 q 586 1270 549 1286 q 647 1222 624 1254 q 669 1144 669 1190 q 646 1061 669 1096 q 586 1005 622 1026 q 514 972 550 983 z "},"Ỡ":{"ha":1024,"x_min":63,"x_max":961,"o":"m 938 1064 q 864 857 938 931 q 644 783 790 783 l 633 917 q 742 952 710 917 q 774 1064 774 988 l 938 1064 m 513 931 q 752 874 651 931 q 907 713 853 818 q 961 458 961 607 q 907 204 961 310 q 752 42 853 99 q 513 -14 651 -14 q 272 42 374 -14 q 117 204 171 99 q 63 458 63 310 q 117 713 63 607 q 272 874 171 818 q 513 931 374 931 m 513 743 q 400 711 446 743 q 331 616 354 679 q 307 458 307 553 q 331 301 307 365 q 400 206 354 238 q 513 174 446 174 q 624 206 579 174 q 693 301 669 238 q 717 458 717 365 q 693 616 717 553 q 624 711 669 679 q 513 743 579 743 m 751 1219 q 726 1097 749 1146 q 665 1023 703 1047 q 581 999 626 999 q 513 1010 542 999 q 464 1038 485 1022 q 425 1066 443 1054 q 386 1078 407 1078 q 350 1058 363 1078 q 333 1000 338 1039 l 200 1000 q 254 1166 204 1111 q 382 1221 304 1221 q 446 1209 419 1221 q 492 1181 472 1197 q 528 1153 511 1165 q 565 1142 546 1142 q 602 1161 590 1142 q 618 1219 614 1181 l 751 1219 z "},"Ő":{"ha":1024,"x_min":63,"x_max":961,"o":"m 513 931 q 752 874 651 931 q 907 713 853 818 q 961 458 961 607 q 907 204 961 310 q 752 42 853 99 q 513 -14 651 -14 q 272 42 374 -14 q 117 204 171 99 q 63 458 63 310 q 117 713 63 607 q 272 874 171 818 q 513 931 374 931 m 513 743 q 400 711 446 743 q 331 616 354 679 q 307 458 307 553 q 331 301 307 365 q 400 206 354 238 q 513 174 446 174 q 624 206 579 174 q 693 301 669 238 q 717 458 717 365 q 693 616 717 553 q 624 711 669 679 q 513 743 579 743 m 658 1231 l 869 1231 l 746 1004 l 574 1004 l 658 1231 m 349 1231 l 560 1231 l 436 1004 l 264 1004 l 349 1231 z "},"Ȏ":{"ha":1024,"x_min":63,"x_max":961,"o":"m 513 931 q 752 874 651 931 q 907 713 853 818 q 961 458 961 607 q 907 204 961 310 q 752 42 853 99 q 513 -14 651 -14 q 272 42 374 -14 q 117 204 171 99 q 63 458 63 310 q 117 713 63 607 q 272 874 171 818 q 513 931 374 931 m 513 743 q 400 711 446 743 q 331 616 354 679 q 307 458 307 553 q 331 301 307 365 q 400 206 354 238 q 513 174 446 174 q 624 206 579 174 q 693 301 669 238 q 717 458 717 365 q 693 616 717 553 q 624 711 669 679 q 513 743 579 743 m 747 993 l 596 993 q 574 1061 594 1035 q 513 1088 554 1088 q 451 1061 472 1088 q 429 993 431 1035 l 278 993 q 342 1159 278 1099 q 513 1219 406 1219 q 684 1159 621 1219 q 747 993 747 1099 z "},"Ō":{"ha":1024,"x_min":63,"x_max":961,"o":"m 513 931 q 752 874 651 931 q 907 713 853 818 q 961 458 961 607 q 907 204 961 310 q 752 42 853 99 q 513 -14 651 -14 q 272 42 374 -14 q 117 204 171 99 q 63 458 63 310 q 117 713 63 607 q 272 874 171 818 q 513 931 374 931 m 513 743 q 400 711 446 743 q 331 616 354 679 q 307 458 307 553 q 331 301 307 365 q 400 206 354 238 q 513 174 446 174 q 624 206 579 174 q 693 301 669 238 q 717 458 717 365 q 693 616 717 553 q 624 711 669 679 q 513 743 579 743 m 765 1158 l 765 1013 l 260 1013 l 260 1158 l 765 1158 z "},"Ṓ":{"ha":1024,"x_min":63,"x_max":961,"o":"m 513 931 q 752 874 651 931 q 907 713 853 818 q 961 458 961 607 q 907 204 961 310 q 752 42 853 99 q 513 -14 651 -14 q 272 42 374 -14 q 117 204 171 99 q 63 458 63 310 q 117 713 63 607 q 272 874 171 818 q 513 931 374 931 m 513 743 q 400 711 446 743 q 331 616 354 679 q 307 458 307 553 q 331 301 307 365 q 400 206 354 238 q 513 174 446 174 q 624 206 579 174 q 693 301 669 238 q 717 458 717 365 q 693 616 717 553 q 624 711 669 679 q 513 743 579 743 m 765 1158 l 765 1013 l 260 1013 l 260 1158 l 765 1158 m 497 1469 l 708 1469 l 585 1243 l 413 1243 l 497 1469 z "},"Ṑ":{"ha":1024,"x_min":63,"x_max":961,"o":"m 513 931 q 752 874 651 931 q 907 713 853 818 q 961 458 961 607 q 907 204 961 310 q 752 42 853 99 q 513 -14 651 -14 q 272 42 374 -14 q 117 204 171 99 q 63 458 63 310 q 117 713 63 607 q 272 874 171 818 q 513 931 374 931 m 513 743 q 400 711 446 743 q 331 616 354 679 q 307 458 307 553 q 331 301 307 365 q 400 206 354 238 q 513 174 446 174 q 624 206 579 174 q 693 301 669 238 q 717 458 717 365 q 693 616 717 553 q 624 711 669 679 q 513 743 579 743 m 765 1158 l 765 1013 l 260 1013 l 260 1158 l 765 1158 m 528 1469 l 613 1243 l 440 1243 l 317 1469 l 528 1469 z "},"Ǫ":{"ha":1024,"x_min":63,"x_max":961,"o":"m 513 931 q 752 874 651 931 q 907 713 853 818 q 961 458 961 607 q 907 204 961 310 q 752 42 853 99 q 513 -14 651 -14 q 272 42 374 -14 q 117 204 171 99 q 63 458 63 310 q 117 713 63 607 q 272 874 171 818 q 513 931 374 931 m 513 743 q 400 711 446 743 q 331 616 354 679 q 307 458 307 553 q 331 301 307 365 q 400 206 354 238 q 513 174 446 174 q 624 206 579 174 q 693 301 669 238 q 717 458 717 365 q 693 616 717 553 q 624 711 669 679 q 513 743 579 743 m 554 -306 q 417 -264 467 -306 q 368 -151 368 -222 q 426 -24 368 -69 q 585 40 483 22 l 678 10 q 587 -26 621 -8 q 538 -65 553 -44 q 522 -111 522 -85 q 542 -156 522 -140 q 597 -172 563 -172 q 632 -169 615 -172 q 661 -160 649 -165 l 685 -278 q 627 -299 658 -293 q 554 -306 596 -306 z "},"Ø":{"ha":1024,"x_min":63,"x_max":961,"o":"m 350 157 l 282 214 l 656 728 l 726 675 l 350 157 m 86 -37 l 258 188 l 332 132 l 197 -37 l 86 -37 m 761 715 l 688 771 l 826 946 l 938 946 l 761 715 m 513 931 q 752 874 651 931 q 907 713 853 818 q 961 458 961 607 q 907 204 961 310 q 752 42 853 99 q 513 -14 651 -14 q 272 42 374 -14 q 117 204 171 99 q 63 458 63 310 q 117 713 63 607 q 272 874 171 818 q 513 931 374 931 m 513 743 q 400 711 446 743 q 331 616 354 679 q 307 458 307 553 q 331 301 307 365 q 400 206 354 238 q 513 174 446 174 q 624 206 579 174 q 693 301 669 238 q 717 458 717 365 q 693 616 717 553 q 624 711 669 679 q 513 743 579 743 z "},"Ǿ":{"ha":1024,"x_min":63,"x_max":961,"o":"m 350 157 l 282 214 l 656 728 l 726 675 l 350 157 m 86 -37 l 258 188 l 332 132 l 197 -37 l 86 -37 m 761 715 l 688 771 l 826 946 l 938 946 l 761 715 m 513 931 q 752 874 651 931 q 907 713 853 818 q 961 458 961 607 q 907 204 961 310 q 752 42 853 99 q 513 -14 651 -14 q 272 42 374 -14 q 117 204 171 99 q 63 458 63 310 q 117 713 63 607 q 272 874 171 818 q 513 931 374 931 m 513 743 q 400 711 446 743 q 331 616 354 679 q 307 458 307 553 q 331 301 307 365 q 400 206 354 238 q 513 174 446 174 q 624 206 579 174 q 693 301 669 238 q 717 458 717 365 q 693 616 717 553 q 624 711 669 679 q 513 743 579 743 m 497 1231 l 708 1231 l 585 1004 l 413 1004 l 497 1231 z "},"Õ":{"ha":1024,"x_min":63,"x_max":961,"o":"m 513 931 q 752 874 651 931 q 907 713 853 818 q 961 458 961 607 q 907 204 961 310 q 752 42 853 99 q 513 -14 651 -14 q 272 42 374 -14 q 117 204 171 99 q 63 458 63 310 q 117 713 63 607 q 272 874 171 818 q 513 931 374 931 m 513 743 q 400 711 446 743 q 331 616 354 679 q 307 458 307 553 q 331 301 307 365 q 400 206 354 238 q 513 174 446 174 q 624 206 579 174 q 693 301 669 238 q 717 458 717 365 q 693 616 717 553 q 624 711 669 679 q 513 743 579 743 m 788 1219 q 762 1097 785 1146 q 701 1023 739 1047 q 617 999 663 999 q 549 1010 578 999 q 500 1038 521 1022 q 461 1066 479 1054 q 422 1078 443 1078 q 386 1058 399 1078 q 369 1000 374 1039 l 236 1000 q 290 1166 240 1111 q 418 1221 340 1221 q 482 1209 456 1221 q 528 1181 508 1197 q 565 1153 547 1165 q 601 1142 582 1142 q 638 1161 626 1142 q 654 1219 650 1181 l 788 1219 z "},"Ṍ":{"ha":1024,"x_min":63,"x_max":961,"o":"m 513 931 q 752 874 651 931 q 907 713 853 818 q 961 458 961 607 q 907 204 961 310 q 752 42 853 99 q 513 -14 651 -14 q 272 42 374 -14 q 117 204 171 99 q 63 458 63 310 q 117 713 63 607 q 272 874 171 818 q 513 931 374 931 m 513 743 q 400 711 446 743 q 331 616 354 679 q 307 458 307 553 q 331 301 307 365 q 400 206 354 238 q 513 174 446 174 q 624 206 579 174 q 693 301 669 238 q 717 458 717 365 q 693 616 717 553 q 624 711 669 679 q 513 743 579 743 m 788 1219 q 762 1097 785 1146 q 701 1023 739 1047 q 617 999 663 999 q 549 1010 578 999 q 500 1038 521 1022 q 461 1066 479 1054 q 422 1078 443 1078 q 386 1058 399 1078 q 369 1000 374 1039 l 236 1000 q 290 1166 240 1111 q 418 1221 340 1221 q 482 1209 456 1221 q 528 1181 508 1197 q 565 1153 547 1165 q 601 1142 582 1142 q 638 1161 626 1142 q 654 1219 650 1181 l 788 1219 m 496 1517 l 707 1517 l 583 1290 l 411 1290 l 496 1517 z "},"Ṏ":{"ha":1024,"x_min":63,"x_max":961,"o":"m 513 931 q 752 874 651 931 q 907 713 853 818 q 961 458 961 607 q 907 204 961 310 q 752 42 853 99 q 513 -14 651 -14 q 272 42 374 -14 q 117 204 171 99 q 63 458 63 310 q 117 713 63 607 q 272 874 171 818 q 513 931 374 931 m 513 743 q 400 711 446 743 q 331 616 354 679 q 307 458 307 553 q 331 301 307 365 q 400 206 354 238 q 513 174 446 174 q 624 206 579 174 q 693 301 669 238 q 717 458 717 365 q 693 616 717 553 q 624 711 669 679 q 513 743 579 743 m 788 1219 q 762 1097 785 1146 q 701 1023 739 1047 q 617 999 663 999 q 549 1010 578 999 q 500 1038 521 1022 q 461 1066 479 1054 q 422 1078 443 1078 q 386 1058 399 1078 q 369 1000 374 1039 l 236 1000 q 290 1166 240 1111 q 418 1221 340 1221 q 482 1209 456 1221 q 528 1181 508 1197 q 565 1153 547 1165 q 601 1142 582 1142 q 638 1161 626 1142 q 654 1219 650 1181 l 788 1219 m 357 1494 q 445 1467 414 1494 q 476 1388 476 1439 q 445 1309 476 1338 q 357 1281 414 1281 q 272 1309 303 1281 q 240 1388 240 1338 q 272 1467 240 1439 q 357 1494 303 1494 m 663 1494 q 750 1467 718 1494 q 782 1388 782 1439 q 750 1309 782 1338 q 663 1281 718 1281 q 577 1309 608 1281 q 546 1388 546 1338 q 577 1467 546 1439 q 663 1494 608 1494 z "},"Ȭ":{"ha":1024,"x_min":63,"x_max":961,"o":"m 513 931 q 752 874 651 931 q 907 713 853 818 q 961 458 961 607 q 907 204 961 310 q 752 42 853 99 q 513 -14 651 -14 q 272 42 374 -14 q 117 204 171 99 q 63 458 63 310 q 117 713 63 607 q 272 874 171 818 q 513 931 374 931 m 513 743 q 400 711 446 743 q 331 616 354 679 q 307 458 307 553 q 331 301 307 365 q 400 206 354 238 q 513 174 446 174 q 624 206 579 174 q 693 301 669 238 q 717 458 717 365 q 693 616 717 553 q 624 711 669 679 q 513 743 579 743 m 788 1219 q 762 1097 785 1146 q 701 1023 739 1047 q 617 999 663 999 q 549 1010 578 999 q 500 1038 521 1022 q 461 1066 479 1054 q 422 1078 443 1078 q 386 1058 399 1078 q 369 1000 374 1039 l 236 1000 q 290 1166 240 1111 q 418 1221 340 1221 q 482 1209 456 1221 q 528 1181 508 1197 q 565 1153 547 1165 q 601 1142 582 1142 q 638 1161 626 1142 q 654 1219 650 1181 l 788 1219 m 764 1444 l 764 1299 l 258 1299 l 258 1444 l 764 1444 z "},"Œ":{"ha":1456,"x_min":63,"x_max":1414,"o":"m 938 185 l 1414 185 l 1414 0 l 778 0 l 778 110 q 655 19 726 51 q 492 -14 583 -14 q 263 42 360 -14 q 115 204 167 99 q 63 458 63 310 q 115 713 63 607 q 264 874 167 818 q 494 931 361 931 q 656 898 585 931 q 778 808 728 865 l 778 917 l 1396 917 l 1396 732 l 938 732 l 938 546 l 1297 546 l 1297 372 l 938 372 l 938 185 m 504 174 q 612 206 568 174 q 679 301 656 238 q 703 458 703 365 q 679 616 703 553 q 612 711 656 679 q 504 743 568 743 q 394 711 439 743 q 326 616 349 679 q 303 458 303 553 q 326 301 303 365 q 394 206 349 238 q 504 174 439 174 z "},"P":{"ha":928,"x_min":101,"x_max":876,"o":"m 522 917 q 714 881 635 917 q 835 776 793 844 q 876 611 876 708 q 835 446 876 514 q 714 342 793 378 q 522 306 635 306 l 340 306 l 340 0 l 101 0 l 101 917 l 522 917 m 485 485 q 598 516 560 485 q 636 611 636 547 q 598 706 636 675 q 485 738 560 738 l 340 738 l 340 485 l 485 485 z "},"Þ":{"ha":936,"x_min":101,"x_max":882,"o":"m 519 776 q 788 698 694 776 q 882 468 882 619 q 788 238 882 317 q 519 160 694 160 l 221 160 l 221 338 l 493 338 q 642 469 642 338 q 603 567 642 536 q 493 597 565 597 l 221 597 l 221 776 l 519 776 m 340 917 l 340 0 l 101 0 l 101 917 l 340 917 z "},"Q":{"ha":1024,"x_min":63,"x_max":961,"o":"m 744 -282 q 583 -251 653 -282 q 475 -162 514 -221 q 436 -18 436 -104 q 444 40 436 10 q 468 100 451 71 l 607 132 q 586 76 593 101 q 579 31 579 51 q 601 -53 579 -24 q 661 -95 624 -83 q 746 -107 699 -107 q 847 -94 806 -107 q 914 -60 888 -82 l 950 -225 q 857 -267 914 -253 q 744 -282 800 -282 m 513 931 q 752 874 651 931 q 907 713 853 818 q 961 458 961 607 q 907 204 961 310 q 752 42 853 99 q 513 -14 651 -14 q 272 42 374 -14 q 117 204 171 99 q 63 458 63 310 q 117 713 63 607 q 272 874 171 818 q 513 931 374 931 m 513 743 q 400 711 446 743 q 331 616 354 679 q 307 458 307 553 q 331 301 307 365 q 400 206 354 238 q 513 174 446 174 q 624 206 579 174 q 693 301 669 238 q 717 458 717 365 q 693 616 717 553 q 624 711 669 679 q 513 743 579 743 z "},"R":{"ha":957,"x_min":101,"x_max":939,"o":"m 539 917 q 794 840 703 917 q 885 635 885 763 q 794 421 885 494 q 540 347 704 347 l 518 335 l 336 335 l 336 0 l 101 0 l 101 917 l 539 917 m 506 504 q 610 532 575 504 q 644 621 644 560 q 610 708 644 681 q 506 736 575 736 l 336 736 l 336 504 l 506 504 m 646 454 l 939 0 l 675 0 l 440 401 l 646 454 z "},"Ŕ":{"ha":957,"x_min":101,"x_max":939,"o":"m 539 917 q 794 840 703 917 q 885 635 885 763 q 794 421 885 494 q 540 347 704 347 l 518 335 l 336 335 l 336 0 l 101 0 l 101 917 l 539 917 m 506 504 q 610 532 575 504 q 644 621 644 560 q 610 708 644 681 q 506 736 575 736 l 336 736 l 336 504 l 506 504 m 646 454 l 939 0 l 675 0 l 440 401 l 646 454 m 442 1231 l 653 1231 l 529 1004 l 357 1004 l 442 1231 z "},"Ř":{"ha":957,"x_min":101,"x_max":939,"o":"m 539 917 q 794 840 703 917 q 885 635 885 763 q 794 421 885 494 q 540 347 704 347 l 518 335 l 336 335 l 336 0 l 101 0 l 101 917 l 539 917 m 506 504 q 610 532 575 504 q 644 621 644 560 q 610 708 644 681 q 506 736 575 736 l 336 736 l 336 504 l 506 504 m 646 454 l 939 0 l 675 0 l 440 401 l 646 454 m 711 1231 l 572 1004 l 342 1004 l 203 1231 l 367 1231 l 457 1103 l 547 1231 l 711 1231 z "},"Ŗ":{"ha":957,"x_min":101,"x_max":939,"o":"m 539 917 q 794 840 703 917 q 885 635 885 763 q 794 421 885 494 q 540 347 704 347 l 518 335 l 336 335 l 336 0 l 101 0 l 101 917 l 539 917 m 506 504 q 610 532 575 504 q 644 621 644 560 q 610 708 644 681 q 506 736 575 736 l 336 736 l 336 504 l 506 504 m 646 454 l 939 0 l 675 0 l 440 401 l 646 454 m 624 -83 l 525 -335 l 372 -335 l 417 -83 l 624 -83 z "},"Ȑ":{"ha":957,"x_min":100,"x_max":939,"o":"m 539 917 q 794 840 703 917 q 885 635 885 763 q 794 421 885 494 q 540 347 704 347 l 518 335 l 336 335 l 336 0 l 101 0 l 101 917 l 539 917 m 506 504 q 610 532 575 504 q 644 621 644 560 q 610 708 644 681 q 506 736 575 736 l 336 736 l 336 504 l 506 504 m 646 454 l 939 0 l 675 0 l 440 401 l 646 454 m 310 1231 l 394 1004 l 224 1004 l 100 1231 l 310 1231 m 621 1231 l 706 1004 l 533 1004 l 410 1231 l 621 1231 z "},"Ṛ":{"ha":957,"x_min":101,"x_max":939,"o":"m 539 917 q 794 840 703 917 q 885 635 885 763 q 794 421 885 494 q 540 347 704 347 l 518 335 l 336 335 l 336 0 l 101 0 l 101 917 l 539 917 m 506 504 q 610 532 575 504 q 644 621 644 560 q 610 708 644 681 q 506 736 575 736 l 336 736 l 336 504 l 506 504 m 646 454 l 939 0 l 675 0 l 440 401 l 646 454 m 504 -308 q 410 -280 443 -308 q 378 -197 378 -251 q 410 -114 378 -143 q 504 -85 443 -85 q 601 -114 568 -85 q 633 -197 633 -143 q 601 -280 633 -251 q 504 -308 568 -308 z "},"Ȓ":{"ha":957,"x_min":101,"x_max":939,"o":"m 539 917 q 794 840 703 917 q 885 635 885 763 q 794 421 885 494 q 540 347 704 347 l 518 335 l 336 335 l 336 0 l 101 0 l 101 917 l 539 917 m 506 504 q 610 532 575 504 q 644 621 644 560 q 610 708 644 681 q 506 736 575 736 l 336 736 l 336 504 l 506 504 m 646 454 l 939 0 l 675 0 l 440 401 l 646 454 m 692 993 l 540 993 q 519 1061 539 1035 q 457 1088 499 1088 q 396 1061 417 1088 q 374 993 375 1035 l 222 993 q 286 1159 222 1099 q 457 1219 350 1219 q 628 1159 565 1219 q 692 993 692 1099 z "},"Ṟ":{"ha":957,"x_min":101,"x_max":939,"o":"m 539 917 q 794 840 703 917 q 885 635 885 763 q 794 421 885 494 q 540 347 704 347 l 518 335 l 336 335 l 336 0 l 101 0 l 101 917 l 539 917 m 506 504 q 610 532 575 504 q 644 621 644 560 q 610 708 644 681 q 506 736 575 736 l 336 736 l 336 504 l 506 504 m 646 454 l 939 0 l 675 0 l 440 401 l 646 454 m 757 -96 l 757 -242 l 251 -242 l 251 -96 l 757 -96 z "},"S":{"ha":896,"x_min":22,"x_max":856,"o":"m 460 931 q 685 891 588 931 q 856 775 783 851 l 740 621 q 612 715 681 683 q 456 746 543 746 q 372 735 404 746 q 326 704 340 724 q 313 660 313 685 q 340 610 313 631 q 428 576 367 590 l 582 542 q 783 449 719 510 q 847 286 847 388 q 797 122 847 189 q 660 20 747 54 q 460 -14 572 -14 q 285 6 368 -14 q 135 64 201 26 q 22 150 68 101 l 138 310 q 223 238 172 269 q 334 189 274 207 q 457 171 394 171 q 538 181 506 171 q 586 210 571 190 q 601 256 601 229 q 581 305 601 285 q 501 339 560 325 l 332 376 q 194 424 254 394 q 99 505 133 454 q 64 632 64 556 q 111 785 64 718 q 247 892 158 853 q 460 931 336 931 z "},"Ś":{"ha":896,"x_min":22,"x_max":856,"o":"m 460 931 q 685 891 588 931 q 856 775 783 851 l 740 621 q 612 715 681 683 q 456 746 543 746 q 372 735 404 746 q 326 704 340 724 q 313 660 313 685 q 340 610 313 631 q 428 576 367 590 l 582 542 q 783 449 719 510 q 847 286 847 388 q 797 122 847 189 q 660 20 747 54 q 460 -14 572 -14 q 285 6 368 -14 q 135 64 201 26 q 22 150 68 101 l 138 310 q 223 238 172 269 q 334 189 274 207 q 457 171 394 171 q 538 181 506 171 q 586 210 571 190 q 601 256 601 229 q 581 305 601 285 q 501 339 560 325 l 332 376 q 194 424 254 394 q 99 505 133 454 q 64 632 64 556 q 111 785 64 718 q 247 892 158 853 q 460 931 336 931 m 442 1231 l 653 1231 l 529 1004 l 357 1004 l 442 1231 z "},"Ṥ":{"ha":896,"x_min":22,"x_max":856,"o":"m 460 931 q 685 891 588 931 q 856 775 783 851 l 740 621 q 612 715 681 683 q 456 746 543 746 q 372 735 404 746 q 326 704 340 724 q 313 660 313 685 q 340 610 313 631 q 428 576 367 590 l 582 542 q 783 449 719 510 q 847 286 847 388 q 797 122 847 189 q 660 20 747 54 q 460 -14 572 -14 q 285 6 368 -14 q 135 64 201 26 q 22 150 68 101 l 138 310 q 223 238 172 269 q 334 189 274 207 q 457 171 394 171 q 538 181 506 171 q 586 210 571 190 q 601 256 601 229 q 581 305 601 285 q 501 339 560 325 l 332 376 q 194 424 254 394 q 99 505 133 454 q 64 632 64 556 q 111 785 64 718 q 247 892 158 853 q 460 931 336 931 m 442 1231 l 653 1231 l 529 1004 l 357 1004 l 442 1231 m 457 1525 q 553 1497 521 1525 q 586 1414 586 1468 q 553 1331 586 1360 q 457 1301 521 1301 q 363 1331 396 1301 q 331 1414 331 1360 q 363 1497 331 1468 q 457 1525 396 1525 z "},"Š":{"ha":896,"x_min":22,"x_max":856,"o":"m 460 931 q 685 891 588 931 q 856 775 783 851 l 740 621 q 612 715 681 683 q 456 746 543 746 q 372 735 404 746 q 326 704 340 724 q 313 660 313 685 q 340 610 313 631 q 428 576 367 590 l 582 542 q 783 449 719 510 q 847 286 847 388 q 797 122 847 189 q 660 20 747 54 q 460 -14 572 -14 q 285 6 368 -14 q 135 64 201 26 q 22 150 68 101 l 138 310 q 223 238 172 269 q 334 189 274 207 q 457 171 394 171 q 538 181 506 171 q 586 210 571 190 q 601 256 601 229 q 581 305 601 285 q 501 339 560 325 l 332 376 q 194 424 254 394 q 99 505 133 454 q 64 632 64 556 q 111 785 64 718 q 247 892 158 853 q 460 931 336 931 m 711 1231 l 572 1004 l 342 1004 l 203 1231 l 367 1231 l 457 1103 l 547 1231 l 711 1231 z "},"Ṧ":{"ha":896,"x_min":22,"x_max":856,"o":"m 460 931 q 685 891 588 931 q 856 775 783 851 l 740 621 q 612 715 681 683 q 456 746 543 746 q 372 735 404 746 q 326 704 340 724 q 313 660 313 685 q 340 610 313 631 q 428 576 367 590 l 582 542 q 783 449 719 510 q 847 286 847 388 q 797 122 847 189 q 660 20 747 54 q 460 -14 572 -14 q 285 6 368 -14 q 135 64 201 26 q 22 150 68 101 l 138 310 q 223 238 172 269 q 334 189 274 207 q 457 171 394 171 q 538 181 506 171 q 586 210 571 190 q 601 256 601 229 q 581 305 601 285 q 501 339 560 325 l 332 376 q 194 424 254 394 q 99 505 133 454 q 64 632 64 556 q 111 785 64 718 q 247 892 158 853 q 460 931 336 931 m 711 1231 l 572 1004 l 342 1004 l 203 1231 l 367 1231 l 457 1103 l 547 1231 l 711 1231 m 457 1514 q 553 1485 521 1514 q 586 1403 586 1457 q 553 1319 586 1349 q 457 1290 521 1290 q 363 1319 396 1290 q 331 1403 331 1349 q 363 1485 331 1457 q 457 1514 396 1514 z "},"Ş":{"ha":896,"x_min":22,"x_max":856,"o":"m 460 931 q 685 891 588 931 q 856 775 783 851 l 740 621 q 612 715 681 683 q 456 746 543 746 q 372 735 404 746 q 326 704 340 724 q 313 660 313 685 q 340 610 313 631 q 428 576 367 590 l 582 542 q 783 449 719 510 q 847 286 847 388 q 797 122 847 189 q 660 20 747 54 q 460 -14 572 -14 q 285 6 368 -14 q 135 64 201 26 q 22 150 68 101 l 138 310 q 223 238 172 269 q 334 189 274 207 q 457 171 394 171 q 538 181 506 171 q 586 210 571 190 q 601 256 601 229 q 581 305 601 285 q 501 339 560 325 l 332 376 q 194 424 254 394 q 99 505 133 454 q 64 632 64 556 q 111 785 64 718 q 247 892 158 853 q 460 931 336 931 m 349 14 l 406 51 q 565 -8 514 36 q 617 -125 617 -51 q 565 -251 617 -203 q 422 -299 513 -299 q 336 -287 368 -299 q 279 -258 304 -275 l 318 -146 q 354 -163 335 -156 q 401 -171 374 -171 q 460 -150 438 -171 q 482 -92 482 -129 q 453 -35 482 -60 q 349 14 424 -10 z "},"Ŝ":{"ha":896,"x_min":22,"x_max":856,"o":"m 460 931 q 685 891 588 931 q 856 775 783 851 l 740 621 q 612 715 681 683 q 456 746 543 746 q 372 735 404 746 q 326 704 340 724 q 313 660 313 685 q 340 610 313 631 q 428 576 367 590 l 582 542 q 783 449 719 510 q 847 286 847 388 q 797 122 847 189 q 660 20 747 54 q 460 -14 572 -14 q 285 6 368 -14 q 135 64 201 26 q 22 150 68 101 l 138 310 q 223 238 172 269 q 334 189 274 207 q 457 171 394 171 q 538 181 506 171 q 586 210 571 190 q 601 256 601 229 q 581 305 601 285 q 501 339 560 325 l 332 376 q 194 424 254 394 q 99 505 133 454 q 64 632 64 556 q 111 785 64 718 q 247 892 158 853 q 460 931 336 931 m 711 1004 l 547 1004 l 457 1132 l 367 1004 l 203 1004 l 342 1231 l 572 1231 l 711 1004 z "},"Ș":{"ha":896,"x_min":22,"x_max":856,"o":"m 460 931 q 685 891 588 931 q 856 775 783 851 l 740 621 q 612 715 681 683 q 456 746 543 746 q 372 735 404 746 q 326 704 340 724 q 313 660 313 685 q 340 610 313 631 q 428 576 367 590 l 582 542 q 783 449 719 510 q 847 286 847 388 q 797 122 847 189 q 660 20 747 54 q 460 -14 572 -14 q 285 6 368 -14 q 135 64 201 26 q 22 150 68 101 l 138 310 q 223 238 172 269 q 334 189 274 207 q 457 171 394 171 q 538 181 506 171 q 586 210 571 190 q 601 256 601 229 q 581 305 601 285 q 501 339 560 325 l 332 376 q 194 424 254 394 q 99 505 133 454 q 64 632 64 556 q 111 785 64 718 q 247 892 158 853 q 460 931 336 931 m 571 -83 l 472 -335 l 319 -335 l 364 -83 l 571 -83 z "},"Ṡ":{"ha":896,"x_min":22,"x_max":856,"o":"m 460 931 q 685 891 588 931 q 856 775 783 851 l 740 621 q 612 715 681 683 q 456 746 543 746 q 372 735 404 746 q 326 704 340 724 q 313 660 313 685 q 340 610 313 631 q 428 576 367 590 l 582 542 q 783 449 719 510 q 847 286 847 388 q 797 122 847 189 q 660 20 747 54 q 460 -14 572 -14 q 285 6 368 -14 q 135 64 201 26 q 22 150 68 101 l 138 310 q 223 238 172 269 q 334 189 274 207 q 457 171 394 171 q 538 181 506 171 q 586 210 571 190 q 601 256 601 229 q 581 305 601 285 q 501 339 560 325 l 332 376 q 194 424 254 394 q 99 505 133 454 q 64 632 64 556 q 111 785 64 718 q 247 892 158 853 q 460 931 336 931 m 457 1225 q 553 1197 521 1225 q 586 1114 586 1168 q 553 1031 586 1060 q 457 1001 521 1001 q 363 1031 396 1001 q 331 1114 331 1060 q 363 1197 331 1168 q 457 1225 396 1225 z "},"Ṣ":{"ha":896,"x_min":22,"x_max":856,"o":"m 460 931 q 685 891 588 931 q 856 775 783 851 l 740 621 q 612 715 681 683 q 456 746 543 746 q 372 735 404 746 q 326 704 340 724 q 313 660 313 685 q 340 610 313 631 q 428 576 367 590 l 582 542 q 783 449 719 510 q 847 286 847 388 q 797 122 847 189 q 660 20 747 54 q 460 -14 572 -14 q 285 6 368 -14 q 135 64 201 26 q 22 150 68 101 l 138 310 q 223 238 172 269 q 334 189 274 207 q 457 171 394 171 q 538 181 506 171 q 586 210 571 190 q 601 256 601 229 q 581 305 601 285 q 501 339 560 325 l 332 376 q 194 424 254 394 q 99 505 133 454 q 64 632 64 556 q 111 785 64 718 q 247 892 158 853 q 460 931 336 931 m 451 -308 q 358 -280 390 -308 q 325 -197 325 -251 q 358 -114 325 -143 q 451 -85 390 -85 q 548 -114 515 -85 q 581 -197 581 -143 q 548 -280 581 -251 q 451 -308 515 -308 z "},"Ṩ":{"ha":896,"x_min":22,"x_max":856,"o":"m 460 931 q 685 891 588 931 q 856 775 783 851 l 740 621 q 612 715 681 683 q 456 746 543 746 q 372 735 404 746 q 326 704 340 724 q 313 660 313 685 q 340 610 313 631 q 428 576 367 590 l 582 542 q 783 449 719 510 q 847 286 847 388 q 797 122 847 189 q 660 20 747 54 q 460 -14 572 -14 q 285 6 368 -14 q 135 64 201 26 q 22 150 68 101 l 138 310 q 223 238 172 269 q 334 189 274 207 q 457 171 394 171 q 538 181 506 171 q 586 210 571 190 q 601 256 601 229 q 581 305 601 285 q 501 339 560 325 l 332 376 q 194 424 254 394 q 99 505 133 454 q 64 632 64 556 q 111 785 64 718 q 247 892 158 853 q 460 931 336 931 m 457 1225 q 553 1197 521 1225 q 586 1114 586 1168 q 553 1031 586 1060 q 457 1001 521 1001 q 363 1031 396 1001 q 331 1114 331 1060 q 363 1197 331 1168 q 457 1225 396 1225 m 451 -308 q 358 -280 390 -308 q 325 -197 325 -251 q 358 -114 325 -143 q 451 -85 390 -85 q 548 -114 515 -85 q 581 -197 581 -143 q 548 -280 581 -251 q 451 -308 515 -308 z "},"ẞ":{"ha":979,"x_min":88,"x_max":951,"o":"m 654 -7 q 496 14 556 -7 q 400 68 436 35 l 465 213 q 526 176 493 189 q 607 164 560 164 q 673 178 646 164 q 715 216 700 192 q 729 271 729 240 q 694 347 729 322 q 603 371 660 371 l 467 371 l 467 503 l 671 736 l 506 736 q 411 714 451 736 q 348 649 371 692 q 325 547 325 607 l 325 0 l 88 0 l 88 582 q 133 761 88 686 q 265 876 179 836 q 464 917 350 917 l 899 917 l 899 739 l 632 439 l 671 501 l 711 501 q 826 476 771 501 q 917 399 882 451 q 951 265 951 346 q 913 115 951 175 q 807 24 874 54 q 654 -7 740 -7 z "},"Ə":{"ha":983,"x_min":53,"x_max":921,"o":"m 472 -14 q 244 41 339 -14 q 101 194 150 96 q 53 418 53 292 q 54 458 53 438 q 57 499 56 478 l 785 499 l 785 358 l 171 358 l 293 435 q 291 410 292 422 q 290 386 290 399 q 315 268 290 315 q 383 197 340 221 q 481 174 426 174 q 592 206 549 174 q 658 305 636 239 q 681 472 681 371 q 656 621 681 560 q 587 713 632 682 q 475 743 542 743 q 351 706 396 743 q 286 597 306 668 l 63 646 q 151 806 92 743 q 294 899 211 868 q 476 931 378 931 q 715 874 615 931 q 868 713 815 818 q 921 458 921 607 q 866 204 921 310 q 711 42 811 99 q 472 -14 611 -14 z "},"T":{"ha":907,"x_min":35,"x_max":872,"o":"m 872 917 l 872 732 l 574 732 l 574 0 l 335 0 l 335 732 l 35 732 l 35 917 l 872 917 z "},"Ŧ":{"ha":907,"x_min":35,"x_max":872,"o":"m 872 917 l 872 732 l 574 732 l 574 0 l 335 0 l 335 732 l 35 732 l 35 917 l 872 917 m 781 511 l 781 326 l 128 326 l 128 511 l 781 511 z "},"Ť":{"ha":907,"x_min":35,"x_max":872,"o":"m 872 917 l 872 732 l 574 732 l 574 0 l 335 0 l 335 732 l 35 732 l 35 917 l 872 917 m 708 1231 l 569 1004 l 339 1004 l 200 1231 l 364 1231 l 454 1103 l 544 1231 l 708 1231 z "},"Ţ":{"ha":907,"x_min":35,"x_max":872,"o":"m 358 11 l 407 51 q 567 -8 515 36 q 618 -125 618 -51 q 566 -251 618 -203 q 424 -299 514 -299 q 338 -287 369 -299 q 281 -258 306 -275 l 319 -146 q 356 -163 336 -156 q 403 -171 375 -171 q 461 -150 439 -171 q 483 -92 483 -129 q 456 -35 483 -60 q 358 11 428 -11 m 872 917 l 872 732 l 574 732 l 574 0 l 335 0 l 335 732 l 35 732 l 35 917 l 872 917 z "},"Ț":{"ha":907,"x_min":35,"x_max":872,"o":"m 872 917 l 872 732 l 574 732 l 574 0 l 335 0 l 335 732 l 35 732 l 35 917 l 872 917 m 568 -83 l 469 -335 l 317 -335 l 361 -83 l 568 -83 z "},"Ṭ":{"ha":907,"x_min":35,"x_max":872,"o":"m 872 917 l 872 732 l 574 732 l 574 0 l 335 0 l 335 732 l 35 732 l 35 917 l 872 917 m 454 -308 q 360 -280 393 -308 q 328 -197 328 -251 q 360 -114 328 -143 q 454 -85 393 -85 q 551 -114 518 -85 q 583 -197 583 -143 q 551 -280 583 -251 q 454 -308 518 -308 z "},"Ṯ":{"ha":907,"x_min":35,"x_max":872,"o":"m 872 917 l 872 732 l 574 732 l 574 0 l 335 0 l 335 732 l 35 732 l 35 917 l 872 917 m 707 -96 l 707 -242 l 201 -242 l 201 -96 l 707 -96 z "},"U":{"ha":986,"x_min":83,"x_max":903,"o":"m 903 917 l 903 374 q 799 83 903 179 q 493 -14 696 -14 q 188 83 292 -14 q 83 374 83 179 l 83 917 l 324 917 l 324 369 q 366 222 324 271 q 493 174 408 174 q 622 222 579 174 q 664 369 664 271 l 664 917 l 903 917 z "},"Ú":{"ha":986,"x_min":83,"x_max":903,"o":"m 903 917 l 903 374 q 799 83 903 179 q 493 -14 696 -14 q 188 83 292 -14 q 83 374 83 179 l 83 917 l 324 917 l 324 369 q 366 222 324 271 q 493 174 408 174 q 622 222 579 174 q 664 369 664 271 l 664 917 l 903 917 m 478 1217 l 689 1217 l 565 990 l 393 990 l 478 1217 z "},"Ŭ":{"ha":986,"x_min":83,"x_max":903,"o":"m 903 917 l 903 374 q 799 83 903 179 q 493 -14 696 -14 q 188 83 292 -14 q 83 374 83 179 l 83 917 l 324 917 l 324 369 q 366 222 324 271 q 493 174 408 174 q 622 222 579 174 q 664 369 664 271 l 664 917 l 903 917 m 728 1206 q 665 1040 728 1100 q 493 979 601 979 q 322 1040 386 979 q 258 1206 258 1100 l 410 1206 q 432 1138 411 1164 q 493 1111 453 1111 q 555 1138 535 1111 q 576 1206 575 1164 l 728 1206 z "},"Û":{"ha":986,"x_min":83,"x_max":903,"o":"m 903 917 l 903 374 q 799 83 903 179 q 493 -14 696 -14 q 188 83 292 -14 q 83 374 83 179 l 83 917 l 324 917 l 324 369 q 366 222 324 271 q 493 174 408 174 q 622 222 579 174 q 664 369 664 271 l 664 917 l 903 917 m 747 990 l 583 990 l 493 1118 l 403 990 l 239 990 l 378 1217 l 608 1217 l 747 990 z "},"Ȕ":{"ha":986,"x_min":83,"x_max":903,"o":"m 903 917 l 903 374 q 799 83 903 179 q 493 -14 696 -14 q 188 83 292 -14 q 83 374 83 179 l 83 917 l 324 917 l 324 369 q 366 222 324 271 q 493 174 408 174 q 622 222 579 174 q 664 369 664 271 l 664 917 l 903 917 m 346 1217 l 431 990 l 260 990 l 136 1217 l 346 1217 m 657 1217 l 742 990 l 569 990 l 446 1217 l 657 1217 z "},"Ü":{"ha":986,"x_min":83,"x_max":903,"o":"m 903 917 l 903 374 q 799 83 903 179 q 493 -14 696 -14 q 188 83 292 -14 q 83 374 83 179 l 83 917 l 324 917 l 324 369 q 366 222 324 271 q 493 174 408 174 q 622 222 579 174 q 664 369 664 271 l 664 917 l 903 917 m 339 1194 q 427 1167 396 1194 q 458 1088 458 1139 q 427 1009 458 1038 q 339 981 396 981 q 253 1009 285 981 q 222 1088 222 1038 q 253 1167 222 1139 q 339 1194 285 1194 m 644 1194 q 732 1167 700 1194 q 764 1088 764 1139 q 732 1009 764 1038 q 644 981 700 981 q 559 1009 590 981 q 528 1088 528 1038 q 559 1167 528 1139 q 644 1194 590 1194 z "},"Ụ":{"ha":986,"x_min":83,"x_max":903,"o":"m 903 917 l 903 374 q 799 83 903 179 q 493 -14 696 -14 q 188 83 292 -14 q 83 374 83 179 l 83 917 l 324 917 l 324 369 q 366 222 324 271 q 493 174 408 174 q 622 222 579 174 q 664 369 664 271 l 664 917 l 903 917 m 493 -308 q 399 -280 432 -308 q 367 -197 367 -251 q 399 -114 367 -143 q 493 -85 432 -85 q 590 -114 557 -85 q 622 -197 622 -143 q 590 -280 622 -251 q 493 -308 557 -308 z "},"Ù":{"ha":986,"x_min":83,"x_max":903,"o":"m 903 917 l 903 374 q 799 83 903 179 q 493 -14 696 -14 q 188 83 292 -14 q 83 374 83 179 l 83 917 l 324 917 l 324 369 q 366 222 324 271 q 493 174 408 174 q 622 222 579 174 q 664 369 664 271 l 664 917 l 903 917 m 508 1217 l 593 990 l 421 990 l 297 1217 l 508 1217 z "},"Ủ":{"ha":986,"x_min":83,"x_max":903,"o":"m 903 917 l 903 374 q 799 83 903 179 q 493 -14 696 -14 q 188 83 292 -14 q 83 374 83 179 l 83 917 l 324 917 l 324 369 q 366 222 324 271 q 493 174 408 174 q 622 222 579 174 q 664 369 664 271 l 664 917 l 903 917 m 494 958 l 443 1028 q 498 1062 482 1044 q 514 1101 514 1079 q 502 1133 514 1121 q 468 1146 490 1146 q 435 1136 447 1146 q 414 1107 422 1126 l 306 1160 q 371 1243 324 1214 q 485 1272 418 1272 q 567 1256 529 1272 q 627 1208 604 1240 q 650 1131 650 1176 q 626 1047 650 1082 q 567 991 603 1013 q 494 958 531 969 z "},"Ư":{"ha":986,"x_min":83,"x_max":1061,"o":"m 903 917 l 903 374 q 799 83 903 179 q 493 -14 696 -14 q 188 83 292 -14 q 83 374 83 179 l 83 917 l 324 917 l 324 369 q 366 222 324 271 q 493 174 408 174 q 622 222 579 174 q 664 369 664 271 l 664 917 l 903 917 m 1060 1064 q 989 857 1060 931 q 781 783 918 783 l 769 917 q 867 952 838 917 q 896 1064 896 988 l 1060 1064 z "},"Ứ":{"ha":986,"x_min":83,"x_max":1061,"o":"m 903 917 l 903 374 q 799 83 903 179 q 493 -14 696 -14 q 188 83 292 -14 q 83 374 83 179 l 83 917 l 324 917 l 324 369 q 366 222 324 271 q 493 174 408 174 q 622 222 579 174 q 664 369 664 271 l 664 917 l 903 917 m 1060 1064 q 989 857 1060 931 q 781 783 918 783 l 769 917 q 867 952 838 917 q 896 1064 896 988 l 1060 1064 m 478 1217 l 689 1217 l 565 990 l 393 990 l 478 1217 z "},"Ự":{"ha":986,"x_min":83,"x_max":1061,"o":"m 903 917 l 903 374 q 799 83 903 179 q 493 -14 696 -14 q 188 83 292 -14 q 83 374 83 179 l 83 917 l 324 917 l 324 369 q 366 222 324 271 q 493 174 408 174 q 622 222 579 174 q 664 369 664 271 l 664 917 l 903 917 m 1060 1064 q 989 857 1060 931 q 781 783 918 783 l 769 917 q 867 952 838 917 q 896 1064 896 988 l 1060 1064 m 493 -308 q 399 -280 432 -308 q 367 -197 367 -251 q 399 -114 367 -143 q 493 -85 432 -85 q 590 -114 557 -85 q 622 -197 622 -143 q 590 -280 622 -251 q 493 -308 557 -308 z "},"Ừ":{"ha":986,"x_min":83,"x_max":1061,"o":"m 903 917 l 903 374 q 799 83 903 179 q 493 -14 696 -14 q 188 83 292 -14 q 83 374 83 179 l 83 917 l 324 917 l 324 369 q 366 222 324 271 q 493 174 408 174 q 622 222 579 174 q 664 369 664 271 l 664 917 l 903 917 m 1060 1064 q 989 857 1060 931 q 781 783 918 783 l 769 917 q 867 952 838 917 q 896 1064 896 988 l 1060 1064 m 508 1217 l 593 990 l 421 990 l 297 1217 l 508 1217 z "},"Ử":{"ha":986,"x_min":83,"x_max":1061,"o":"m 903 917 l 903 374 q 799 83 903 179 q 493 -14 696 -14 q 188 83 292 -14 q 83 374 83 179 l 83 917 l 324 917 l 324 369 q 366 222 324 271 q 493 174 408 174 q 622 222 579 174 q 664 369 664 271 l 664 917 l 903 917 m 1060 1064 q 989 857 1060 931 q 781 783 918 783 l 769 917 q 867 952 838 917 q 896 1064 896 988 l 1060 1064 m 494 958 l 443 1028 q 498 1062 482 1044 q 514 1101 514 1079 q 502 1133 514 1121 q 468 1146 490 1146 q 435 1136 447 1146 q 414 1107 422 1126 l 306 1160 q 371 1243 324 1214 q 485 1272 418 1272 q 567 1256 529 1272 q 627 1208 604 1240 q 650 1131 650 1176 q 626 1047 650 1082 q 567 991 603 1013 q 494 958 531 969 z "},"Ữ":{"ha":986,"x_min":83,"x_max":1061,"o":"m 903 917 l 903 374 q 799 83 903 179 q 493 -14 696 -14 q 188 83 292 -14 q 83 374 83 179 l 83 917 l 324 917 l 324 369 q 366 222 324 271 q 493 174 408 174 q 622 222 579 174 q 664 369 664 271 l 664 917 l 903 917 m 1060 1064 q 989 857 1060 931 q 781 783 918 783 l 769 917 q 867 952 838 917 q 896 1064 896 988 l 1060 1064 m 768 1206 q 742 1083 765 1132 q 681 1009 719 1033 q 597 985 643 985 q 530 997 558 985 q 481 1024 501 1008 q 442 1052 460 1040 q 403 1064 424 1064 q 367 1044 379 1064 q 350 986 354 1025 l 217 986 q 271 1152 221 1097 q 399 1207 321 1207 q 463 1195 436 1207 q 508 1167 489 1183 q 545 1140 528 1151 q 582 1128 563 1128 q 619 1147 607 1128 q 635 1206 631 1167 l 768 1206 z "},"Ű":{"ha":986,"x_min":83,"x_max":903,"o":"m 903 917 l 903 374 q 799 83 903 179 q 493 -14 696 -14 q 188 83 292 -14 q 83 374 83 179 l 83 917 l 324 917 l 324 369 q 366 222 324 271 q 493 174 408 174 q 622 222 579 174 q 664 369 664 271 l 664 917 l 903 917 m 640 1217 l 851 1217 l 728 990 l 556 990 l 640 1217 m 329 1217 l 540 1217 l 417 990 l 244 990 l 329 1217 z "},"Ȗ":{"ha":986,"x_min":83,"x_max":903,"o":"m 903 917 l 903 374 q 799 83 903 179 q 493 -14 696 -14 q 188 83 292 -14 q 83 374 83 179 l 83 917 l 324 917 l 324 369 q 366 222 324 271 q 493 174 408 174 q 622 222 579 174 q 664 369 664 271 l 664 917 l 903 917 m 728 979 l 576 979 q 555 1047 575 1021 q 493 1074 535 1074 q 432 1047 453 1074 q 410 979 411 1021 l 258 979 q 322 1145 258 1085 q 493 1206 386 1206 q 665 1145 601 1206 q 728 979 728 1085 z "},"Ū":{"ha":986,"x_min":83,"x_max":903,"o":"m 903 917 l 903 374 q 799 83 903 179 q 493 -14 696 -14 q 188 83 292 -14 q 83 374 83 179 l 83 917 l 324 917 l 324 369 q 366 222 324 271 q 493 174 408 174 q 622 222 579 174 q 664 369 664 271 l 664 917 l 903 917 m 746 1144 l 746 999 l 240 999 l 240 1144 l 746 1144 z "},"Ṻ":{"ha":986,"x_min":83,"x_max":903,"o":"m 903 917 l 903 374 q 799 83 903 179 q 493 -14 696 -14 q 188 83 292 -14 q 83 374 83 179 l 83 917 l 324 917 l 324 369 q 366 222 324 271 q 493 174 408 174 q 622 222 579 174 q 664 369 664 271 l 664 917 l 903 917 m 746 1144 l 746 999 l 240 999 l 240 1144 l 746 1144 m 339 1433 q 427 1406 396 1433 q 458 1326 458 1378 q 427 1248 458 1276 q 339 1219 396 1219 q 253 1248 285 1219 q 222 1326 222 1276 q 253 1406 222 1378 q 339 1433 285 1433 m 644 1433 q 732 1406 700 1433 q 764 1326 764 1378 q 732 1248 764 1276 q 644 1219 700 1219 q 559 1248 590 1219 q 528 1326 528 1276 q 559 1406 528 1378 q 644 1433 590 1433 z "},"Ų":{"ha":986,"x_min":83,"x_max":903,"o":"m 903 917 l 903 374 q 799 83 903 179 q 493 -14 696 -14 q 188 83 292 -14 q 83 374 83 179 l 83 917 l 324 917 l 324 369 q 366 222 324 271 q 493 174 408 174 q 622 222 579 174 q 664 369 664 271 l 664 917 l 903 917 m 554 -303 q 417 -261 467 -303 q 368 -149 368 -219 q 426 -21 368 -67 q 585 43 483 25 l 678 13 q 587 -24 621 -6 q 538 -62 553 -42 q 522 -108 522 -82 q 542 -153 522 -137 q 597 -169 563 -169 q 632 -166 615 -169 q 661 -157 649 -162 l 685 -275 q 627 -297 658 -290 q 554 -303 596 -303 z "},"Ů":{"ha":986,"x_min":83,"x_max":903,"o":"m 903 917 l 903 374 q 799 83 903 179 q 493 -14 696 -14 q 188 83 292 -14 q 83 374 83 179 l 83 917 l 324 917 l 324 369 q 366 222 324 271 q 493 174 408 174 q 622 222 579 174 q 664 369 664 271 l 664 917 l 903 917 m 492 1301 q 632 1254 579 1301 q 685 1128 685 1207 q 632 1000 685 1047 q 492 953 579 953 q 351 1000 404 953 q 297 1128 297 1047 q 351 1254 297 1207 q 492 1301 404 1301 m 492 1200 q 438 1181 458 1200 q 417 1128 417 1161 q 438 1074 417 1094 q 492 1054 458 1054 q 545 1074 525 1054 q 565 1128 565 1094 q 545 1181 565 1161 q 492 1200 525 1200 z "},"Ũ":{"ha":986,"x_min":83,"x_max":903,"o":"m 903 917 l 903 374 q 799 83 903 179 q 493 -14 696 -14 q 188 83 292 -14 q 83 374 83 179 l 83 917 l 324 917 l 324 369 q 366 222 324 271 q 493 174 408 174 q 622 222 579 174 q 664 369 664 271 l 664 917 l 903 917 m 768 1206 q 742 1083 765 1132 q 681 1009 719 1033 q 597 985 643 985 q 530 997 558 985 q 481 1024 501 1008 q 442 1052 460 1040 q 403 1064 424 1064 q 367 1044 379 1064 q 350 986 354 1025 l 217 986 q 271 1152 221 1097 q 399 1207 321 1207 q 463 1195 436 1207 q 508 1167 489 1183 q 545 1140 528 1151 q 582 1128 563 1128 q 619 1147 607 1128 q 635 1206 631 1167 l 768 1206 z "},"Ṹ":{"ha":986,"x_min":83,"x_max":903,"o":"m 903 917 l 903 374 q 799 83 903 179 q 493 -14 696 -14 q 188 83 292 -14 q 83 374 83 179 l 83 917 l 324 917 l 324 369 q 366 222 324 271 q 493 174 408 174 q 622 222 579 174 q 664 369 664 271 l 664 917 l 903 917 m 768 1206 q 742 1083 765 1132 q 681 1009 719 1033 q 597 985 643 985 q 530 997 558 985 q 481 1024 501 1008 q 442 1052 460 1040 q 403 1064 424 1064 q 367 1044 379 1064 q 350 986 354 1025 l 217 986 q 271 1152 221 1097 q 399 1207 321 1207 q 463 1195 436 1207 q 508 1167 489 1183 q 545 1140 528 1151 q 582 1128 563 1128 q 619 1147 607 1128 q 635 1206 631 1167 l 768 1206 m 478 1503 l 689 1503 l 565 1276 l 393 1276 l 478 1503 z "},"V":{"ha":949,"x_min":8,"x_max":940,"o":"m 940 917 l 615 0 l 335 0 l 8 917 l 260 917 l 428 363 l 478 182 l 526 360 l 697 917 l 940 917 z "},"W":{"ha":1385,"x_min":14,"x_max":1371,"o":"m 278 0 l 14 917 l 268 917 l 424 193 l 588 917 l 804 917 l 972 194 l 1125 917 l 1371 917 l 1106 0 l 846 0 l 738 444 l 696 668 l 693 668 l 653 444 l 546 0 l 278 0 z "},"Ẃ":{"ha":1385,"x_min":14,"x_max":1371,"o":"m 278 0 l 14 917 l 268 917 l 424 193 l 588 917 l 804 917 l 972 194 l 1125 917 l 1371 917 l 1106 0 l 846 0 l 738 444 l 696 668 l 693 668 l 653 444 l 546 0 l 278 0 m 676 1231 l 888 1231 l 764 1004 l 592 1004 l 676 1231 z "},"Ŵ":{"ha":1385,"x_min":14,"x_max":1371,"o":"m 278 0 l 14 917 l 268 917 l 424 193 l 588 917 l 804 917 l 972 194 l 1125 917 l 1371 917 l 1106 0 l 846 0 l 738 444 l 696 668 l 693 668 l 653 444 l 546 0 l 278 0 m 946 1004 l 782 1004 l 692 1132 l 601 1004 l 438 1004 l 576 1231 l 807 1231 l 946 1004 z "},"Ẅ":{"ha":1385,"x_min":14,"x_max":1371,"o":"m 278 0 l 14 917 l 268 917 l 424 193 l 588 917 l 804 917 l 972 194 l 1125 917 l 1371 917 l 1106 0 l 846 0 l 738 444 l 696 668 l 693 668 l 653 444 l 546 0 l 278 0 m 538 1208 q 626 1181 594 1208 q 657 1101 657 1153 q 626 1023 657 1051 q 538 994 594 994 q 452 1023 483 994 q 421 1101 421 1051 q 452 1181 421 1153 q 538 1208 483 1208 m 843 1208 q 931 1181 899 1208 q 963 1101 963 1153 q 931 1023 963 1051 q 843 994 899 994 q 758 1023 789 994 q 726 1101 726 1051 q 758 1181 726 1153 q 843 1208 789 1208 z "},"Ẁ":{"ha":1385,"x_min":14,"x_max":1371,"o":"m 278 0 l 14 917 l 268 917 l 424 193 l 588 917 l 804 917 l 972 194 l 1125 917 l 1371 917 l 1106 0 l 846 0 l 738 444 l 696 668 l 693 668 l 653 444 l 546 0 l 278 0 m 707 1231 l 792 1004 l 619 1004 l 496 1231 l 707 1231 z "},"X":{"ha":921,"x_min":15,"x_max":910,"o":"m 910 0 l 625 0 l 453 293 l 286 0 l 15 0 l 326 461 l 33 917 l 315 917 l 472 636 l 631 917 l 890 917 l 597 468 l 910 0 z "},"Y":{"ha":913,"x_min":13,"x_max":899,"o":"m 899 917 l 575 335 l 575 0 l 336 0 l 336 335 l 13 917 l 260 917 l 389 665 l 457 513 l 526 665 l 656 917 l 899 917 z "},"Ý":{"ha":913,"x_min":13,"x_max":899,"o":"m 899 917 l 575 335 l 575 0 l 336 0 l 336 335 l 13 917 l 260 917 l 389 665 l 457 513 l 526 665 l 656 917 l 899 917 m 440 1219 l 651 1219 l 528 993 l 356 993 l 440 1219 z "},"Ŷ":{"ha":913,"x_min":13,"x_max":899,"o":"m 899 917 l 575 335 l 575 0 l 336 0 l 336 335 l 13 917 l 260 917 l 389 665 l 457 513 l 526 665 l 656 917 l 899 917 m 710 993 l 546 993 l 456 1121 l 365 993 l 201 993 l 340 1219 l 571 1219 l 710 993 z "},"Ÿ":{"ha":913,"x_min":13,"x_max":899,"o":"m 899 917 l 575 335 l 575 0 l 336 0 l 336 335 l 13 917 l 260 917 l 389 665 l 457 513 l 526 665 l 656 917 l 899 917 m 301 1197 q 390 1169 358 1197 q 421 1090 421 1142 q 390 1012 421 1040 q 301 983 358 983 q 216 1012 247 983 q 185 1090 185 1040 q 216 1169 185 1142 q 301 1197 247 1197 m 607 1197 q 694 1169 663 1197 q 726 1090 726 1142 q 694 1012 726 1040 q 607 983 663 983 q 522 1012 553 983 q 490 1090 490 1040 q 522 1169 490 1142 q 607 1197 553 1197 z "},"Ẏ":{"ha":913,"x_min":13,"x_max":899,"o":"m 899 917 l 575 335 l 575 0 l 336 0 l 336 335 l 13 917 l 260 917 l 389 665 l 457 513 l 526 665 l 656 917 l 899 917 m 456 1214 q 552 1185 519 1214 q 585 1103 585 1157 q 552 1019 585 1049 q 456 990 519 990 q 362 1019 394 990 q 329 1103 329 1049 q 362 1185 329 1157 q 456 1214 394 1214 z "},"Ỵ":{"ha":913,"x_min":13,"x_max":899,"o":"m 899 917 l 575 335 l 575 0 l 336 0 l 336 335 l 13 917 l 260 917 l 389 665 l 457 513 l 526 665 l 656 917 l 899 917 m 456 -308 q 362 -280 394 -308 q 329 -197 329 -251 q 362 -114 329 -143 q 456 -85 394 -85 q 552 -114 519 -85 q 585 -197 585 -143 q 552 -280 585 -251 q 456 -308 519 -308 z "},"Ỳ":{"ha":913,"x_min":13,"x_max":899,"o":"m 899 917 l 575 335 l 575 0 l 336 0 l 336 335 l 13 917 l 260 917 l 389 665 l 457 513 l 526 665 l 656 917 l 899 917 m 471 1219 l 556 993 l 383 993 l 260 1219 l 471 1219 z "},"Ỷ":{"ha":913,"x_min":13,"x_max":899,"o":"m 899 917 l 575 335 l 575 0 l 336 0 l 336 335 l 13 917 l 260 917 l 389 665 l 457 513 l 526 665 l 656 917 l 899 917 m 457 961 l 406 1031 q 460 1065 444 1047 q 476 1104 476 1082 q 465 1136 476 1124 q 431 1149 453 1149 q 397 1139 410 1149 q 376 1110 385 1129 l 268 1163 q 333 1246 286 1217 q 447 1275 381 1275 q 529 1259 492 1275 q 590 1211 567 1243 q 613 1133 613 1179 q 589 1050 613 1085 q 529 994 565 1015 q 457 961 493 972 z "},"Ȳ":{"ha":913,"x_min":13,"x_max":899,"o":"m 899 917 l 575 335 l 575 0 l 336 0 l 336 335 l 13 917 l 260 917 l 389 665 l 457 513 l 526 665 l 656 917 l 899 917 m 708 1147 l 708 1001 l 203 1001 l 203 1147 l 708 1147 z "},"Ỹ":{"ha":913,"x_min":13,"x_max":899,"o":"m 899 917 l 575 335 l 575 0 l 336 0 l 336 335 l 13 917 l 260 917 l 389 665 l 457 513 l 526 665 l 656 917 l 899 917 m 731 1208 q 705 1085 728 1135 q 644 1012 682 1036 q 560 988 606 988 q 492 999 521 988 q 443 1027 464 1011 q 404 1055 422 1043 q 365 1067 386 1067 q 329 1047 342 1067 q 313 989 317 1028 l 179 989 q 233 1155 183 1100 q 361 1210 283 1210 q 425 1198 399 1210 q 471 1170 451 1186 q 508 1142 490 1154 q 544 1131 525 1131 q 581 1150 569 1131 q 597 1208 593 1169 l 731 1208 z "},"Z":{"ha":881,"x_min":51,"x_max":838,"o":"m 239 100 l 197 181 l 838 181 l 838 0 l 51 0 l 51 172 l 636 817 l 678 736 l 61 736 l 61 917 l 821 917 l 821 744 l 239 100 z "},"Ź":{"ha":881,"x_min":51,"x_max":838,"o":"m 239 100 l 197 181 l 838 181 l 838 0 l 51 0 l 51 172 l 636 817 l 678 736 l 61 736 l 61 917 l 821 917 l 821 744 l 239 100 m 429 1231 l 640 1231 l 517 1004 l 344 1004 l 429 1231 z "},"Ž":{"ha":881,"x_min":51,"x_max":838,"o":"m 239 100 l 197 181 l 838 181 l 838 0 l 51 0 l 51 172 l 636 817 l 678 736 l 61 736 l 61 917 l 821 917 l 821 744 l 239 100 m 699 1231 l 560 1004 l 329 1004 l 190 1231 l 354 1231 l 444 1103 l 535 1231 l 699 1231 z "},"Ż":{"ha":881,"x_min":51,"x_max":838,"o":"m 239 100 l 197 181 l 838 181 l 838 0 l 51 0 l 51 172 l 636 817 l 678 736 l 61 736 l 61 917 l 821 917 l 821 744 l 239 100 m 444 1225 q 541 1197 508 1225 q 574 1114 574 1168 q 541 1031 574 1060 q 444 1001 508 1001 q 351 1031 383 1001 q 318 1114 318 1060 q 351 1197 318 1168 q 444 1225 383 1225 z "},"Ẓ":{"ha":881,"x_min":51,"x_max":838,"o":"m 239 100 l 197 181 l 838 181 l 838 0 l 51 0 l 51 172 l 636 817 l 678 736 l 61 736 l 61 917 l 821 917 l 821 744 l 239 100 m 425 -308 q 331 -280 364 -308 q 299 -197 299 -251 q 331 -114 299 -143 q 425 -85 364 -85 q 522 -114 489 -85 q 554 -197 554 -143 q 522 -280 554 -251 q 425 -308 489 -308 z "},"a":{"ha":804,"x_min":44,"x_max":796,"o":"m 472 440 q 445 517 472 489 q 372 546 418 546 q 294 523 326 546 q 249 442 261 500 l 49 489 q 151 649 68 589 q 386 708 235 708 q 559 678 488 708 q 669 590 631 649 q 707 444 707 531 l 707 190 q 756 136 707 136 q 796 142 781 136 l 782 7 q 681 -12 740 -12 q 585 5 626 -12 q 519 58 543 22 q 496 147 496 93 l 496 156 l 522 165 q 487 65 522 106 q 395 6 451 25 q 278 -14 339 -14 q 154 8 207 -14 q 73 73 101 31 q 44 178 44 115 q 90 302 44 253 q 232 371 135 351 l 494 425 l 493 300 l 360 272 q 298 248 318 264 q 278 200 278 232 q 300 154 278 169 q 353 139 322 139 q 398 146 376 139 q 436 167 419 153 q 463 204 453 182 q 472 257 472 226 l 472 440 z "},"á":{"ha":804,"x_min":44,"x_max":796,"o":"m 472 440 q 445 517 472 489 q 372 546 418 546 q 294 523 326 546 q 249 442 261 500 l 49 489 q 151 649 68 589 q 386 708 235 708 q 559 678 488 708 q 669 590 631 649 q 707 444 707 531 l 707 190 q 756 136 707 136 q 796 142 781 136 l 782 7 q 681 -12 740 -12 q 585 5 626 -12 q 519 58 543 22 q 496 147 496 93 l 496 156 l 522 165 q 487 65 522 106 q 395 6 451 25 q 278 -14 339 -14 q 154 8 207 -14 q 73 73 101 31 q 44 178 44 115 q 90 302 44 253 q 232 371 135 351 l 494 425 l 493 300 l 360 272 q 298 248 318 264 q 278 200 278 232 q 300 154 278 169 q 353 139 322 139 q 398 146 376 139 q 436 167 419 153 q 463 204 453 182 q 472 257 472 226 l 472 440 m 371 1025 l 590 1025 l 450 785 l 278 785 l 371 1025 z "},"ă":{"ha":804,"x_min":44,"x_max":796,"o":"m 472 440 q 445 517 472 489 q 372 546 418 546 q 294 523 326 546 q 249 442 261 500 l 49 489 q 151 649 68 589 q 386 708 235 708 q 559 678 488 708 q 669 590 631 649 q 707 444 707 531 l 707 190 q 756 136 707 136 q 796 142 781 136 l 782 7 q 681 -12 740 -12 q 585 5 626 -12 q 519 58 543 22 q 496 147 496 93 l 496 156 l 522 165 q 487 65 522 106 q 395 6 451 25 q 278 -14 339 -14 q 154 8 207 -14 q 73 73 101 31 q 44 178 44 115 q 90 302 44 253 q 232 371 135 351 l 494 425 l 493 300 l 360 272 q 298 248 318 264 q 278 200 278 232 q 300 154 278 169 q 353 139 322 139 q 398 146 376 139 q 436 167 419 153 q 463 204 453 182 q 472 257 472 226 l 472 440 m 619 997 q 556 831 619 892 q 385 771 493 771 q 214 831 278 771 q 150 997 150 892 l 301 997 q 324 929 303 956 q 385 903 344 903 q 447 929 426 903 q 468 997 467 956 l 619 997 z "},"ắ":{"ha":804,"x_min":47,"x_max":794,"o":"m 604 983 q 544 827 604 883 q 385 771 485 771 q 224 827 283 771 q 164 983 164 883 l 304 983 q 326 917 306 943 q 385 892 346 892 q 443 917 424 892 q 464 983 463 943 l 604 983 m 286 1013 l 358 1211 l 551 1211 l 442 1013 l 286 1013 m 472 439 q 447 518 472 490 q 372 546 421 546 q 294 523 326 546 q 251 443 263 500 l 54 488 q 155 649 71 589 q 388 708 239 708 q 560 678 489 708 q 669 591 632 647 q 707 454 707 535 l 707 190 q 760 136 707 136 q 794 142 781 136 l 785 8 q 682 -12 743 -12 q 583 5 626 -12 q 516 58 540 22 q 492 149 492 93 l 492 163 l 521 160 q 477 68 513 107 q 389 8 442 29 q 275 -14 336 -14 q 156 8 207 -14 q 76 72 104 29 q 47 172 47 114 q 97 299 47 250 q 239 365 147 347 l 494 417 l 493 313 l 360 283 q 293 254 314 274 q 272 203 272 235 q 294 153 272 172 q 357 135 317 135 q 400 141 379 135 q 438 161 421 147 q 463 195 454 175 q 472 242 472 215 l 472 439 z "},"ặ":{"ha":804,"x_min":44,"x_max":796,"o":"m 472 440 q 445 517 472 489 q 372 546 418 546 q 294 523 326 546 q 249 442 261 500 l 49 489 q 151 649 68 589 q 386 708 235 708 q 559 678 488 708 q 669 590 631 649 q 707 444 707 531 l 707 190 q 756 136 707 136 q 796 142 781 136 l 782 7 q 681 -12 740 -12 q 585 5 626 -12 q 519 58 543 22 q 496 147 496 93 l 496 156 l 522 165 q 487 65 522 106 q 395 6 451 25 q 278 -14 339 -14 q 154 8 207 -14 q 73 73 101 31 q 44 178 44 115 q 90 302 44 253 q 232 371 135 351 l 494 425 l 493 300 l 360 272 q 298 248 318 264 q 278 200 278 232 q 300 154 278 169 q 353 139 322 139 q 398 146 376 139 q 436 167 419 153 q 463 204 453 182 q 472 257 472 226 l 472 440 m 390 -308 q 297 -280 329 -308 q 264 -197 264 -251 q 297 -114 264 -143 q 390 -85 329 -85 q 487 -114 454 -85 q 519 -197 519 -143 q 487 -280 519 -251 q 390 -308 454 -308 m 619 997 q 556 831 619 892 q 385 771 493 771 q 214 831 278 771 q 150 997 150 892 l 301 997 q 324 929 303 956 q 385 903 344 903 q 447 929 426 903 q 468 997 467 956 l 619 997 z "},"ằ":{"ha":804,"x_min":47,"x_max":794,"o":"m 604 983 q 544 827 604 883 q 385 771 485 771 q 224 827 283 771 q 164 983 164 883 l 304 983 q 326 917 306 943 q 385 892 346 892 q 443 917 424 892 q 464 983 463 943 l 604 983 m 483 1013 l 326 1013 l 217 1211 l 410 1211 l 483 1013 m 472 439 q 447 518 472 490 q 372 546 421 546 q 294 523 326 546 q 251 443 263 500 l 54 488 q 155 649 71 589 q 388 708 239 708 q 560 678 489 708 q 669 591 632 647 q 707 454 707 535 l 707 190 q 760 136 707 136 q 794 142 781 136 l 785 8 q 682 -12 743 -12 q 583 5 626 -12 q 516 58 540 22 q 492 149 492 93 l 492 163 l 521 160 q 477 68 513 107 q 389 8 442 29 q 275 -14 336 -14 q 156 8 207 -14 q 76 72 104 29 q 47 172 47 114 q 97 299 47 250 q 239 365 147 347 l 494 417 l 493 313 l 360 283 q 293 254 314 274 q 272 203 272 235 q 294 153 272 172 q 357 135 317 135 q 400 141 379 135 q 438 161 421 147 q 463 195 454 175 q 472 242 472 215 l 472 439 z "},"ẳ":{"ha":804,"x_min":47,"x_max":794,"o":"m 604 983 q 544 827 604 883 q 385 771 485 771 q 224 827 283 771 q 164 983 164 883 l 304 983 q 326 917 306 943 q 385 892 346 892 q 443 917 424 892 q 464 983 463 943 l 604 983 m 386 990 l 338 1056 q 389 1088 374 1071 q 404 1125 404 1104 q 394 1155 404 1143 q 361 1167 383 1167 q 330 1158 342 1167 q 310 1131 318 1149 l 208 1181 q 269 1258 225 1231 q 378 1286 314 1286 q 453 1270 418 1286 q 510 1224 489 1254 q 532 1153 532 1194 q 510 1074 532 1107 q 454 1022 488 1042 q 386 990 421 1001 m 472 439 q 447 518 472 490 q 372 546 421 546 q 294 523 326 546 q 251 443 263 500 l 54 488 q 155 649 71 589 q 388 708 239 708 q 560 678 489 708 q 669 591 632 647 q 707 454 707 535 l 707 190 q 760 136 707 136 q 794 142 781 136 l 785 8 q 682 -12 743 -12 q 583 5 626 -12 q 516 58 540 22 q 492 149 492 93 l 492 163 l 521 160 q 477 68 513 107 q 389 8 442 29 q 275 -14 336 -14 q 156 8 207 -14 q 76 72 104 29 q 47 172 47 114 q 97 299 47 250 q 239 365 147 347 l 494 417 l 493 313 l 360 283 q 293 254 314 274 q 272 203 272 235 q 294 153 272 172 q 357 135 317 135 q 400 141 379 135 q 438 161 421 147 q 463 195 454 175 q 472 242 472 215 l 472 439 z "},"ẵ":{"ha":804,"x_min":47,"x_max":794,"o":"m 604 983 q 544 827 604 883 q 383 771 485 771 q 224 827 283 771 q 164 983 164 883 l 304 983 q 325 917 306 943 q 383 892 344 892 q 443 917 424 892 q 464 983 463 943 l 604 983 m 639 1221 q 589 1069 635 1118 q 481 1021 543 1021 q 417 1031 443 1021 q 373 1056 392 1042 q 338 1081 354 1069 q 301 1092 321 1092 q 268 1075 279 1092 q 253 1024 257 1058 l 129 1024 q 180 1175 133 1126 q 297 1224 226 1224 q 356 1213 332 1224 q 399 1188 381 1201 q 432 1163 417 1174 q 467 1153 447 1153 q 499 1169 488 1153 q 515 1221 511 1186 l 639 1221 m 472 439 q 447 518 472 490 q 372 546 421 546 q 294 523 326 546 q 251 443 263 500 l 54 488 q 155 649 71 589 q 388 708 239 708 q 560 678 489 708 q 669 591 632 647 q 707 454 707 535 l 707 190 q 760 136 707 136 q 794 142 781 136 l 785 8 q 682 -12 743 -12 q 583 5 626 -12 q 516 58 540 22 q 492 149 492 93 l 492 163 l 521 160 q 477 68 513 107 q 389 8 442 29 q 275 -14 336 -14 q 156 8 207 -14 q 76 72 104 29 q 47 172 47 114 q 97 299 47 250 q 239 365 147 347 l 494 417 l 493 313 l 360 283 q 293 254 314 274 q 272 203 272 235 q 294 153 272 172 q 357 135 317 135 q 400 141 379 135 q 438 161 421 147 q 463 195 454 175 q 472 242 472 215 l 472 439 z "},"â":{"ha":804,"x_min":44,"x_max":796,"o":"m 472 440 q 445 517 472 489 q 372 546 418 546 q 294 523 326 546 q 249 442 261 500 l 49 489 q 151 649 68 589 q 386 708 235 708 q 559 678 488 708 q 669 590 631 649 q 707 444 707 531 l 707 190 q 756 136 707 136 q 796 142 781 136 l 782 7 q 681 -12 740 -12 q 585 5 626 -12 q 519 58 543 22 q 496 147 496 93 l 496 156 l 522 165 q 487 65 522 106 q 395 6 451 25 q 278 -14 339 -14 q 154 8 207 -14 q 73 73 101 31 q 44 178 44 115 q 90 302 44 253 q 232 371 135 351 l 494 425 l 493 300 l 360 272 q 298 248 318 264 q 278 200 278 232 q 300 154 278 169 q 353 139 322 139 q 398 146 376 139 q 436 167 419 153 q 463 204 453 182 q 472 257 472 226 l 472 440 m 650 776 l 481 776 l 385 899 l 289 776 l 119 776 l 271 1017 l 499 1017 l 650 776 z "},"ấ":{"ha":804,"x_min":47,"x_max":856,"o":"m 632 776 l 475 776 l 385 893 l 294 776 l 136 776 l 279 1001 l 489 1001 l 632 776 m 667 1125 l 856 1125 l 744 919 l 589 919 l 667 1125 m 472 439 q 447 518 472 490 q 372 546 421 546 q 294 523 326 546 q 251 443 263 500 l 54 488 q 155 649 71 589 q 388 708 239 708 q 560 678 489 708 q 669 591 632 647 q 707 454 707 535 l 707 190 q 760 136 707 136 q 794 142 781 136 l 785 8 q 682 -12 743 -12 q 583 5 626 -12 q 516 58 540 22 q 492 149 492 93 l 492 163 l 521 160 q 477 68 513 107 q 389 8 442 29 q 275 -14 336 -14 q 156 8 207 -14 q 76 72 104 29 q 47 172 47 114 q 97 299 47 250 q 239 365 147 347 l 494 417 l 493 313 l 360 283 q 293 254 314 274 q 272 203 272 235 q 294 153 272 172 q 357 135 317 135 q 400 141 379 135 q 438 161 421 147 q 463 195 454 175 q 472 242 472 215 l 472 439 z "},"ậ":{"ha":804,"x_min":44,"x_max":796,"o":"m 472 440 q 445 517 472 489 q 372 546 418 546 q 294 523 326 546 q 249 442 261 500 l 49 489 q 151 649 68 589 q 386 708 235 708 q 559 678 488 708 q 669 590 631 649 q 707 444 707 531 l 707 190 q 756 136 707 136 q 796 142 781 136 l 782 7 q 681 -12 740 -12 q 585 5 626 -12 q 519 58 543 22 q 496 147 496 93 l 496 156 l 522 165 q 487 65 522 106 q 395 6 451 25 q 278 -14 339 -14 q 154 8 207 -14 q 73 73 101 31 q 44 178 44 115 q 90 302 44 253 q 232 371 135 351 l 494 425 l 493 300 l 360 272 q 298 248 318 264 q 278 200 278 232 q 300 154 278 169 q 353 139 322 139 q 398 146 376 139 q 436 167 419 153 q 463 204 453 182 q 472 257 472 226 l 472 440 m 390 -308 q 297 -280 329 -308 q 264 -197 264 -251 q 297 -114 264 -143 q 390 -85 329 -85 q 487 -114 454 -85 q 519 -197 519 -143 q 487 -280 519 -251 q 390 -308 454 -308 m 650 776 l 481 776 l 385 899 l 289 776 l 119 776 l 271 1017 l 499 1017 l 650 776 z "},"ầ":{"ha":804,"x_min":47,"x_max":794,"o":"m 632 776 l 475 776 l 385 893 l 294 776 l 136 776 l 279 1001 l 489 1001 l 632 776 m 693 1125 l 769 919 l 615 919 l 504 1125 l 693 1125 m 472 439 q 447 518 472 490 q 372 546 421 546 q 294 523 326 546 q 251 443 263 500 l 54 488 q 155 649 71 589 q 388 708 239 708 q 560 678 489 708 q 669 591 632 647 q 707 454 707 535 l 707 190 q 760 136 707 136 q 794 142 781 136 l 785 8 q 682 -12 743 -12 q 583 5 626 -12 q 516 58 540 22 q 492 149 492 93 l 492 163 l 521 160 q 477 68 513 107 q 389 8 442 29 q 275 -14 336 -14 q 156 8 207 -14 q 76 72 104 29 q 47 172 47 114 q 97 299 47 250 q 239 365 147 347 l 494 417 l 493 313 l 360 283 q 293 254 314 274 q 272 203 272 235 q 294 153 272 172 q 357 135 317 135 q 400 141 379 135 q 438 161 421 147 q 463 195 454 175 q 472 242 472 215 l 472 439 z "},"ẩ":{"ha":804,"x_min":47,"x_max":794,"o":"m 632 776 l 475 776 l 385 893 l 294 776 l 136 776 l 279 1001 l 489 1001 l 632 776 m 631 897 l 579 967 q 633 1001 617 983 q 650 1040 650 1018 q 638 1072 650 1060 q 603 1085 626 1085 q 571 1075 583 1085 q 550 1046 558 1065 l 442 1099 q 507 1182 460 1153 q 621 1211 554 1211 q 703 1195 665 1211 q 763 1147 740 1179 q 786 1069 786 1115 q 763 986 786 1021 q 703 930 739 951 q 631 897 667 908 m 472 439 q 447 518 472 490 q 372 546 421 546 q 294 523 326 546 q 251 443 263 500 l 54 488 q 155 649 71 589 q 388 708 239 708 q 560 678 489 708 q 669 591 632 647 q 707 454 707 535 l 707 190 q 760 136 707 136 q 794 142 781 136 l 785 8 q 682 -12 743 -12 q 583 5 626 -12 q 516 58 540 22 q 492 149 492 93 l 492 163 l 521 160 q 477 68 513 107 q 389 8 442 29 q 275 -14 336 -14 q 156 8 207 -14 q 76 72 104 29 q 47 172 47 114 q 97 299 47 250 q 239 365 147 347 l 494 417 l 493 313 l 360 283 q 293 254 314 274 q 272 203 272 235 q 294 153 272 172 q 357 135 317 135 q 400 141 379 135 q 438 161 421 147 q 463 195 454 175 q 472 242 472 215 l 472 439 z "},"ẫ":{"ha":804,"x_min":47,"x_max":794,"o":"m 632 776 l 475 776 l 385 893 l 294 776 l 136 776 l 279 1001 l 489 1001 l 632 776 m 639 1236 q 590 1084 635 1133 q 481 1035 544 1035 q 419 1046 444 1035 q 374 1071 393 1057 q 338 1096 354 1085 q 301 1107 321 1107 q 269 1090 281 1107 q 253 1038 257 1074 l 129 1038 q 181 1190 135 1142 q 297 1239 226 1239 q 357 1228 332 1239 q 399 1203 382 1217 q 433 1178 417 1189 q 467 1167 449 1167 q 500 1183 489 1167 q 515 1236 511 1200 l 639 1236 m 472 439 q 447 518 472 490 q 372 546 421 546 q 294 523 326 546 q 251 443 263 500 l 54 488 q 155 649 71 589 q 388 708 239 708 q 560 678 489 708 q 669 591 632 647 q 707 454 707 535 l 707 190 q 760 136 707 136 q 794 142 781 136 l 785 8 q 682 -12 743 -12 q 583 5 626 -12 q 516 58 540 22 q 492 149 492 93 l 492 163 l 521 160 q 477 68 513 107 q 389 8 442 29 q 275 -14 336 -14 q 156 8 207 -14 q 76 72 104 29 q 47 172 47 114 q 97 299 47 250 q 239 365 147 347 l 494 417 l 493 313 l 360 283 q 293 254 314 274 q 272 203 272 235 q 294 153 272 172 q 357 135 317 135 q 400 141 379 135 q 438 161 421 147 q 463 195 454 175 q 472 242 472 215 l 472 439 z "},"ȁ":{"ha":804,"x_min":36,"x_max":796,"o":"m 472 440 q 445 517 472 489 q 372 546 418 546 q 294 523 326 546 q 249 442 261 500 l 49 489 q 151 649 68 589 q 386 708 235 708 q 559 678 488 708 q 669 590 631 649 q 707 444 707 531 l 707 190 q 756 136 707 136 q 796 142 781 136 l 782 7 q 681 -12 740 -12 q 585 5 626 -12 q 519 58 543 22 q 496 147 496 93 l 496 156 l 522 165 q 487 65 522 106 q 395 6 451 25 q 278 -14 339 -14 q 154 8 207 -14 q 73 73 101 31 q 44 178 44 115 q 90 302 44 253 q 232 371 135 351 l 494 425 l 493 300 l 360 272 q 298 248 318 264 q 278 200 278 232 q 300 154 278 169 q 353 139 322 139 q 398 146 376 139 q 436 167 419 153 q 463 204 453 182 q 472 257 472 226 l 472 440 m 332 785 l 168 785 l 36 1025 l 236 1025 l 332 785 m 626 785 l 463 785 l 331 1025 l 531 1025 l 626 785 z "},"ä":{"ha":804,"x_min":44,"x_max":796,"o":"m 472 440 q 445 517 472 489 q 372 546 418 546 q 294 523 326 546 q 249 442 261 500 l 49 489 q 151 649 68 589 q 386 708 235 708 q 559 678 488 708 q 669 590 631 649 q 707 444 707 531 l 707 190 q 756 136 707 136 q 796 142 781 136 l 782 7 q 681 -12 740 -12 q 585 5 626 -12 q 519 58 543 22 q 496 147 496 93 l 496 156 l 522 165 q 487 65 522 106 q 395 6 451 25 q 278 -14 339 -14 q 154 8 207 -14 q 73 73 101 31 q 44 178 44 115 q 90 302 44 253 q 232 371 135 351 l 494 425 l 493 300 l 360 272 q 298 248 318 264 q 278 200 278 232 q 300 154 278 169 q 353 139 322 139 q 398 146 376 139 q 436 167 419 153 q 463 204 453 182 q 472 257 472 226 l 472 440 m 231 986 q 319 958 288 986 q 350 879 350 931 q 319 801 350 829 q 231 772 288 772 q 145 801 176 772 q 114 879 114 829 q 145 958 114 931 q 231 986 176 986 m 536 986 q 624 958 592 986 q 656 879 656 931 q 624 801 656 829 q 536 772 592 772 q 451 801 482 772 q 419 879 419 829 q 451 958 419 931 q 536 986 482 986 z "},"ạ":{"ha":804,"x_min":44,"x_max":796,"o":"m 472 440 q 445 517 472 489 q 372 546 418 546 q 294 523 326 546 q 249 442 261 500 l 49 489 q 151 649 68 589 q 386 708 235 708 q 559 678 488 708 q 669 590 631 649 q 707 444 707 531 l 707 190 q 756 136 707 136 q 796 142 781 136 l 782 7 q 681 -12 740 -12 q 585 5 626 -12 q 519 58 543 22 q 496 147 496 93 l 496 156 l 522 165 q 487 65 522 106 q 395 6 451 25 q 278 -14 339 -14 q 154 8 207 -14 q 73 73 101 31 q 44 178 44 115 q 90 302 44 253 q 232 371 135 351 l 494 425 l 493 300 l 360 272 q 298 248 318 264 q 278 200 278 232 q 300 154 278 169 q 353 139 322 139 q 398 146 376 139 q 436 167 419 153 q 463 204 453 182 q 472 257 472 226 l 472 440 m 390 -308 q 297 -280 329 -308 q 264 -197 264 -251 q 297 -114 264 -143 q 390 -85 329 -85 q 487 -114 454 -85 q 519 -197 519 -143 q 487 -280 519 -251 q 390 -308 454 -308 z "},"à":{"ha":804,"x_min":44,"x_max":796,"o":"m 472 440 q 445 517 472 489 q 372 546 418 546 q 294 523 326 546 q 249 442 261 500 l 49 489 q 151 649 68 589 q 386 708 235 708 q 559 678 488 708 q 669 590 631 649 q 707 444 707 531 l 707 190 q 756 136 707 136 q 796 142 781 136 l 782 7 q 681 -12 740 -12 q 585 5 626 -12 q 519 58 543 22 q 496 147 496 93 l 496 156 l 522 165 q 487 65 522 106 q 395 6 451 25 q 278 -14 339 -14 q 154 8 207 -14 q 73 73 101 31 q 44 178 44 115 q 90 302 44 253 q 232 371 135 351 l 494 425 l 493 300 l 360 272 q 298 248 318 264 q 278 200 278 232 q 300 154 278 169 q 353 139 322 139 q 398 146 376 139 q 436 167 419 153 q 463 204 453 182 q 472 257 472 226 l 472 440 m 385 1025 l 478 785 l 306 785 l 165 1025 l 385 1025 z "},"ả":{"ha":804,"x_min":44,"x_max":796,"o":"m 472 440 q 445 517 472 489 q 372 546 418 546 q 294 523 326 546 q 249 442 261 500 l 49 489 q 151 649 68 589 q 386 708 235 708 q 559 678 488 708 q 669 590 631 649 q 707 444 707 531 l 707 190 q 756 136 707 136 q 796 142 781 136 l 782 7 q 681 -12 740 -12 q 585 5 626 -12 q 519 58 543 22 q 496 147 496 93 l 496 156 l 522 165 q 487 65 522 106 q 395 6 451 25 q 278 -14 339 -14 q 154 8 207 -14 q 73 73 101 31 q 44 178 44 115 q 90 302 44 253 q 232 371 135 351 l 494 425 l 493 300 l 360 272 q 298 248 318 264 q 278 200 278 232 q 300 154 278 169 q 353 139 322 139 q 398 146 376 139 q 436 167 419 153 q 463 204 453 182 q 472 257 472 226 l 472 440 m 379 756 l 328 828 q 385 863 368 846 q 403 903 403 881 q 390 935 403 922 q 354 949 378 949 q 323 938 336 949 q 300 908 310 928 l 193 961 q 258 1047 210 1017 q 372 1076 306 1076 q 455 1060 417 1076 q 516 1010 493 1043 q 539 932 539 978 q 515 847 539 882 q 455 790 492 813 q 379 756 418 768 z "},"ȃ":{"ha":804,"x_min":44,"x_max":796,"o":"m 472 440 q 445 517 472 489 q 372 546 418 546 q 294 523 326 546 q 249 442 261 500 l 49 489 q 151 649 68 589 q 386 708 235 708 q 559 678 488 708 q 669 590 631 649 q 707 444 707 531 l 707 190 q 756 136 707 136 q 796 142 781 136 l 782 7 q 681 -12 740 -12 q 585 5 626 -12 q 519 58 543 22 q 496 147 496 93 l 496 156 l 522 165 q 487 65 522 106 q 395 6 451 25 q 278 -14 339 -14 q 154 8 207 -14 q 73 73 101 31 q 44 178 44 115 q 90 302 44 253 q 232 371 135 351 l 494 425 l 493 300 l 360 272 q 298 248 318 264 q 278 200 278 232 q 300 154 278 169 q 353 139 322 139 q 398 146 376 139 q 436 167 419 153 q 463 204 453 182 q 472 257 472 226 l 472 440 m 619 771 l 468 771 q 447 839 467 813 q 385 865 426 865 q 324 839 344 865 q 301 771 303 813 l 150 771 q 214 937 150 876 q 385 997 278 997 q 556 937 493 997 q 619 771 619 876 z "},"ā":{"ha":804,"x_min":44,"x_max":796,"o":"m 472 440 q 445 517 472 489 q 372 546 418 546 q 294 523 326 546 q 249 442 261 500 l 49 489 q 151 649 68 589 q 386 708 235 708 q 559 678 488 708 q 669 590 631 649 q 707 444 707 531 l 707 190 q 756 136 707 136 q 796 142 781 136 l 782 7 q 681 -12 740 -12 q 585 5 626 -12 q 519 58 543 22 q 496 147 496 93 l 496 156 l 522 165 q 487 65 522 106 q 395 6 451 25 q 278 -14 339 -14 q 154 8 207 -14 q 73 73 101 31 q 44 178 44 115 q 90 302 44 253 q 232 371 135 351 l 494 425 l 493 300 l 360 272 q 298 248 318 264 q 278 200 278 232 q 300 154 278 169 q 353 139 322 139 q 398 146 376 139 q 436 167 419 153 q 463 204 453 182 q 472 257 472 226 l 472 440 m 638 936 l 638 790 l 132 790 l 132 936 l 638 936 z "},"ą":{"ha":804,"x_min":47,"x_max":794,"o":"m 658 -307 q 567 -290 610 -307 q 499 -238 525 -272 q 474 -153 474 -204 q 535 -26 474 -72 q 700 40 596 19 l 785 8 q 690 -36 722 -15 q 644 -77 657 -57 q 632 -117 632 -97 q 651 -159 632 -143 q 700 -175 669 -175 q 733 -172 715 -175 q 763 -161 751 -169 l 786 -281 q 730 -301 763 -294 q 658 -307 697 -307 m 472 439 q 447 518 472 490 q 372 546 421 546 q 294 523 326 546 q 251 443 263 500 l 54 488 q 155 649 71 589 q 388 708 239 708 q 560 678 489 708 q 669 591 632 647 q 707 454 707 535 l 707 190 q 760 136 707 136 q 794 142 781 136 l 785 8 q 682 -12 743 -12 q 583 5 626 -12 q 516 58 540 22 q 492 149 492 93 l 492 163 l 521 160 q 477 68 513 107 q 389 8 442 29 q 275 -14 336 -14 q 156 8 207 -14 q 76 72 104 29 q 47 172 47 114 q 97 299 47 250 q 239 365 147 347 l 494 417 l 493 313 l 360 283 q 293 254 314 274 q 272 203 272 235 q 294 153 272 172 q 357 135 317 135 q 400 141 379 135 q 438 161 421 147 q 463 195 454 175 q 472 242 472 215 l 472 439 z "},"å":{"ha":804,"x_min":44,"x_max":796,"o":"m 472 440 q 445 517 472 489 q 372 546 418 546 q 294 523 326 546 q 249 442 261 500 l 49 489 q 151 649 68 589 q 386 708 235 708 q 559 678 488 708 q 669 590 631 649 q 707 444 707 531 l 707 190 q 756 136 707 136 q 796 142 781 136 l 782 7 q 681 -12 740 -12 q 585 5 626 -12 q 519 58 543 22 q 496 147 496 93 l 496 156 l 522 165 q 487 65 522 106 q 395 6 451 25 q 278 -14 339 -14 q 154 8 207 -14 q 73 73 101 31 q 44 178 44 115 q 90 302 44 253 q 232 371 135 351 l 494 425 l 493 300 l 360 272 q 298 248 318 264 q 278 200 278 232 q 300 154 278 169 q 353 139 322 139 q 398 146 376 139 q 436 167 419 153 q 463 204 453 182 q 472 257 472 226 l 472 440 m 383 1114 q 524 1067 471 1114 q 576 940 576 1019 q 524 813 576 860 q 383 765 471 765 q 242 813 296 765 q 189 940 189 860 q 242 1067 189 1019 q 383 1114 296 1114 m 383 1013 q 329 993 350 1013 q 308 940 308 974 q 329 887 308 907 q 383 867 350 867 q 437 887 417 867 q 457 940 457 907 q 437 993 457 974 q 383 1013 417 1013 z "},"ǻ":{"ha":804,"x_min":44,"x_max":796,"o":"m 472 440 q 445 517 472 489 q 372 546 418 546 q 294 523 326 546 q 249 442 261 500 l 49 489 q 151 649 68 589 q 386 708 235 708 q 559 678 488 708 q 669 590 631 649 q 707 444 707 531 l 707 190 q 756 136 707 136 q 796 142 781 136 l 782 7 q 681 -12 740 -12 q 585 5 626 -12 q 519 58 543 22 q 496 147 496 93 l 496 156 l 522 165 q 487 65 522 106 q 395 6 451 25 q 278 -14 339 -14 q 154 8 207 -14 q 73 73 101 31 q 44 178 44 115 q 90 302 44 253 q 232 371 135 351 l 494 425 l 493 300 l 360 272 q 298 248 318 264 q 278 200 278 232 q 300 154 278 169 q 353 139 322 139 q 398 146 376 139 q 436 167 419 153 q 463 204 453 182 q 472 257 472 226 l 472 440 m 383 1114 q 524 1067 471 1114 q 576 940 576 1019 q 524 813 576 860 q 383 765 471 765 q 242 813 296 765 q 189 940 189 860 q 242 1067 189 1019 q 383 1114 296 1114 m 383 1013 q 329 993 350 1013 q 308 940 308 974 q 329 887 308 907 q 383 867 350 867 q 437 887 417 867 q 457 940 457 907 q 437 993 457 974 q 383 1013 417 1013 m 300 1163 l 378 1374 l 588 1374 l 471 1163 l 300 1163 z "},"ã":{"ha":804,"x_min":44,"x_max":796,"o":"m 472 440 q 445 517 472 489 q 372 546 418 546 q 294 523 326 546 q 249 442 261 500 l 49 489 q 151 649 68 589 q 386 708 235 708 q 559 678 488 708 q 669 590 631 649 q 707 444 707 531 l 707 190 q 756 136 707 136 q 796 142 781 136 l 782 7 q 681 -12 740 -12 q 585 5 626 -12 q 519 58 543 22 q 496 147 496 93 l 496 156 l 522 165 q 487 65 522 106 q 395 6 451 25 q 278 -14 339 -14 q 154 8 207 -14 q 73 73 101 31 q 44 178 44 115 q 90 302 44 253 q 232 371 135 351 l 494 425 l 493 300 l 360 272 q 298 248 318 264 q 278 200 278 232 q 300 154 278 169 q 353 139 322 139 q 398 146 376 139 q 436 167 419 153 q 463 204 453 182 q 472 257 472 226 l 472 440 m 660 997 q 634 874 657 924 q 573 801 611 825 q 489 776 535 776 q 422 788 450 776 q 372 816 393 800 q 333 844 351 832 q 294 856 315 856 q 258 836 271 856 q 242 778 246 817 l 108 778 q 163 944 113 889 q 290 999 213 999 q 354 987 328 999 q 400 959 381 975 q 437 931 419 943 q 474 919 454 919 q 510 939 499 919 q 526 997 522 958 l 660 997 z "},"æ":{"ha":1219,"x_min":44,"x_max":1172,"o":"m 289 -14 q 158 8 213 -14 q 74 73 103 31 q 44 178 44 115 q 95 304 44 254 q 235 372 146 354 l 471 419 l 471 438 q 443 517 471 489 q 367 546 415 546 q 294 523 325 546 q 249 442 263 500 l 47 489 q 98 601 56 551 q 210 679 140 650 q 368 708 279 708 q 555 670 482 708 q 646 554 628 632 l 569 551 q 639 636 597 601 q 733 690 681 671 q 847 708 786 708 q 1025 666 953 708 q 1135 549 1097 624 q 1172 379 1172 475 q 1171 333 1172 356 q 1167 288 1169 310 l 699 288 l 699 288 q 745 188 699 222 q 851 153 792 153 q 927 174 900 153 q 969 232 954 194 l 1160 169 q 1095 69 1140 110 q 988 7 1050 28 q 854 -14 926 -14 q 653 42 733 -14 q 544 206 574 97 l 594 197 q 563 115 586 153 q 501 47 539 76 q 409 2 463 18 q 289 -14 356 -14 m 353 138 q 397 145 376 138 q 435 169 418 153 q 461 207 451 185 q 471 258 471 229 l 471 299 l 357 274 q 295 249 314 264 q 276 200 276 233 q 296 156 276 174 q 353 138 315 138 m 699 414 l 949 414 q 933 483 947 454 q 892 528 918 513 q 832 543 867 543 q 743 511 776 543 q 699 414 710 479 z "},"ǽ":{"ha":1222,"x_min":44,"x_max":1172,"o":"m 289 -14 q 158 8 213 -14 q 74 73 103 31 q 44 178 44 115 q 95 304 44 254 q 235 372 146 354 l 471 419 l 471 438 q 443 517 471 489 q 367 546 415 546 q 294 523 325 546 q 249 442 263 500 l 47 489 q 98 601 56 551 q 210 679 140 650 q 368 708 279 708 q 555 670 482 708 q 646 554 628 632 l 569 551 q 639 636 597 601 q 733 690 681 671 q 847 708 786 708 q 1025 666 953 708 q 1135 549 1097 624 q 1172 379 1172 475 q 1171 333 1172 356 q 1167 288 1169 310 l 699 288 l 699 288 q 745 188 699 222 q 851 153 792 153 q 927 174 900 153 q 969 232 954 194 l 1160 169 q 1095 69 1140 110 q 988 7 1050 28 q 854 -14 926 -14 q 653 42 733 -14 q 544 206 574 97 l 594 197 q 563 115 586 153 q 501 47 539 76 q 409 2 463 18 q 289 -14 356 -14 m 353 138 q 397 145 376 138 q 435 169 418 153 q 461 207 451 185 q 471 258 471 229 l 471 299 l 357 274 q 295 249 314 264 q 276 200 276 233 q 296 156 276 174 q 353 138 315 138 m 699 414 l 949 414 q 933 483 947 454 q 892 528 918 513 q 832 543 867 543 q 743 511 776 543 q 699 414 710 479 m 585 1025 l 804 1025 l 664 785 l 492 785 l 585 1025 z "},"b":{"ha":871,"x_min":85,"x_max":817,"o":"m 531 -14 q 410 17 463 -14 q 325 101 358 47 q 282 222 292 154 l 304 251 l 292 0 l 85 0 l 85 989 l 321 989 l 321 476 l 299 510 q 378 652 318 596 q 539 708 438 708 q 683 665 619 708 q 781 541 746 622 q 817 344 817 460 q 781 151 817 232 q 681 28 744 71 q 531 -14 617 -14 m 449 160 q 544 205 510 160 q 579 347 579 250 q 544 490 579 444 q 449 535 510 535 q 380 512 408 535 q 336 447 351 489 q 321 346 321 406 q 336 244 321 286 q 381 181 351 203 q 449 160 410 160 z "},"c":{"ha":788,"x_min":49,"x_max":750,"o":"m 414 708 q 590 678 519 708 q 699 599 660 649 q 749 493 739 550 l 531 421 q 495 510 521 481 q 421 540 469 540 q 347 520 376 540 q 301 456 317 500 q 286 344 286 413 q 303 234 286 276 q 350 173 319 192 q 422 154 381 154 q 480 167 457 154 q 518 206 503 181 q 538 267 533 231 l 750 199 q 698 90 740 138 q 586 14 656 42 q 424 -14 517 -14 q 225 28 310 -14 q 94 152 140 71 q 49 347 49 233 q 94 542 49 461 q 223 666 140 624 q 414 708 306 708 z "},"ć":{"ha":788,"x_min":49,"x_max":750,"o":"m 414 708 q 590 678 519 708 q 699 599 660 649 q 749 493 739 550 l 531 421 q 495 510 521 481 q 421 540 469 540 q 347 520 376 540 q 301 456 317 500 q 286 344 286 413 q 303 234 286 276 q 350 173 319 192 q 422 154 381 154 q 480 167 457 154 q 518 206 503 181 q 538 267 533 231 l 750 199 q 698 90 740 138 q 586 14 656 42 q 424 -14 517 -14 q 225 28 310 -14 q 94 152 140 71 q 49 347 49 233 q 94 542 49 461 q 223 666 140 624 q 414 708 306 708 m 396 1025 l 615 1025 l 475 785 l 303 785 l 396 1025 z "},"č":{"ha":788,"x_min":49,"x_max":750,"o":"m 414 708 q 590 678 519 708 q 699 599 660 649 q 749 493 739 550 l 531 421 q 495 510 521 481 q 421 540 469 540 q 347 520 376 540 q 301 456 317 500 q 286 344 286 413 q 303 234 286 276 q 350 173 319 192 q 422 154 381 154 q 480 167 457 154 q 518 206 503 181 q 538 267 533 231 l 750 199 q 698 90 740 138 q 586 14 656 42 q 424 -14 517 -14 q 225 28 310 -14 q 94 152 140 71 q 49 347 49 233 q 94 542 49 461 q 223 666 140 624 q 414 708 306 708 m 671 1025 l 519 785 l 290 785 l 139 1025 l 310 1025 l 404 901 l 500 1025 l 671 1025 z "},"ç":{"ha":788,"x_min":49,"x_max":750,"o":"m 414 708 q 590 678 519 708 q 699 599 660 649 q 749 493 739 550 l 531 421 q 495 510 521 481 q 421 540 469 540 q 347 520 376 540 q 301 456 317 500 q 286 344 286 413 q 303 234 286 276 q 350 173 319 192 q 422 154 381 154 q 480 167 457 154 q 518 206 503 181 q 538 267 533 231 l 750 199 q 698 90 740 138 q 586 14 656 42 q 424 -14 517 -14 q 225 28 310 -14 q 94 152 140 71 q 49 347 49 233 q 94 542 49 461 q 223 666 140 624 q 414 708 306 708 m 308 14 l 365 51 q 525 -8 474 36 q 576 -125 576 -51 q 524 -251 576 -203 q 382 -299 472 -299 q 296 -287 328 -299 q 239 -258 264 -275 l 278 -146 q 314 -163 294 -156 q 361 -171 333 -171 q 419 -150 397 -171 q 442 -92 442 -129 q 413 -35 442 -60 q 308 14 383 -10 z "},"ḉ":{"ha":788,"x_min":49,"x_max":750,"o":"m 414 708 q 590 678 519 708 q 699 599 660 649 q 749 493 739 550 l 531 421 q 495 510 521 481 q 421 540 469 540 q 347 520 376 540 q 301 456 317 500 q 286 344 286 413 q 303 234 286 276 q 350 173 319 192 q 422 154 381 154 q 480 167 457 154 q 518 206 503 181 q 538 267 533 231 l 750 199 q 698 90 740 138 q 586 14 656 42 q 424 -14 517 -14 q 225 28 310 -14 q 94 152 140 71 q 49 347 49 233 q 94 542 49 461 q 223 666 140 624 q 414 708 306 708 m 308 14 l 365 51 q 525 -8 474 36 q 576 -125 576 -51 q 524 -251 576 -203 q 382 -299 472 -299 q 296 -287 328 -299 q 239 -258 264 -275 l 278 -146 q 314 -163 294 -156 q 361 -171 333 -171 q 419 -150 397 -171 q 442 -92 442 -129 q 413 -35 442 -60 q 308 14 383 -10 m 396 1025 l 615 1025 l 475 785 l 303 785 l 396 1025 z "},"ĉ":{"ha":788,"x_min":49,"x_max":750,"o":"m 414 708 q 590 678 519 708 q 699 599 660 649 q 749 493 739 550 l 531 421 q 495 510 521 481 q 421 540 469 540 q 347 520 376 540 q 301 456 317 500 q 286 344 286 413 q 303 234 286 276 q 350 173 319 192 q 422 154 381 154 q 480 167 457 154 q 518 206 503 181 q 538 267 533 231 l 750 199 q 698 90 740 138 q 586 14 656 42 q 424 -14 517 -14 q 225 28 310 -14 q 94 152 140 71 q 49 347 49 233 q 94 542 49 461 q 223 666 140 624 q 414 708 306 708 m 675 776 l 506 776 l 410 899 l 314 776 l 144 776 l 296 1017 l 524 1017 l 675 776 z "},"ċ":{"ha":788,"x_min":49,"x_max":750,"o":"m 414 708 q 590 678 519 708 q 699 599 660 649 q 749 493 739 550 l 531 421 q 495 510 521 481 q 421 540 469 540 q 347 520 376 540 q 301 456 317 500 q 286 344 286 413 q 303 234 286 276 q 350 173 319 192 q 422 154 381 154 q 480 167 457 154 q 518 206 503 181 q 538 267 533 231 l 750 199 q 698 90 740 138 q 586 14 656 42 q 424 -14 517 -14 q 225 28 310 -14 q 94 152 140 71 q 49 347 49 233 q 94 542 49 461 q 223 666 140 624 q 414 708 306 708 m 410 1003 q 506 974 474 1003 q 539 892 539 946 q 506 808 539 838 q 410 779 474 779 q 316 808 349 779 q 283 892 283 838 q 316 974 283 946 q 410 1003 349 1003 z "},"d":{"ha":871,"x_min":54,"x_max":786,"o":"m 340 -14 q 190 28 254 -14 q 90 151 125 71 q 54 344 54 232 q 91 542 54 461 q 194 665 128 622 q 346 708 260 708 q 498 651 440 708 q 572 504 556 593 l 550 475 l 550 989 l 786 989 l 786 0 l 575 0 l 560 236 l 588 215 q 545 94 579 146 q 459 15 511 43 q 340 -14 407 -14 m 422 160 q 491 181 463 160 q 535 246 519 203 q 550 351 550 289 q 535 451 550 410 q 492 513 521 492 q 424 535 464 535 q 327 490 363 535 q 292 347 292 444 q 326 205 292 250 q 422 160 361 160 z "},"ð":{"ha":839,"x_min":57,"x_max":789,"o":"m 414 -14 q 223 28 303 -14 q 100 148 143 69 q 57 338 57 226 q 99 527 57 449 q 217 647 142 606 q 388 688 292 688 q 538 644 483 688 q 613 531 592 601 l 601 525 q 565 672 592 607 q 494 793 538 738 q 388 899 450 849 q 244 1003 325 950 l 460 1003 q 579 917 522 969 q 681 792 636 865 q 753 627 726 719 q 781 421 781 535 q 735 185 781 282 q 607 37 689 88 q 414 -14 525 -14 m 422 154 q 499 176 469 154 q 542 238 528 197 q 557 338 557 279 q 542 448 557 406 q 499 511 528 490 q 425 532 469 532 q 354 511 383 532 q 310 448 325 490 q 296 338 296 406 q 328 199 296 244 q 422 154 360 154 m 267 749 l 250 833 l 496 881 l 533 806 l 267 749 m 582 814 l 550 889 l 769 935 l 789 854 l 582 814 z "},"ď":{"ha":975,"x_min":54,"x_max":1056,"o":"m 1056 989 l 982 657 l 846 657 l 875 989 l 1056 989 m 340 -14 q 190 28 254 -14 q 90 151 125 71 q 54 344 54 232 q 91 542 54 461 q 194 665 128 622 q 346 708 260 708 q 498 651 440 708 q 572 504 556 593 l 550 475 l 550 989 l 786 989 l 786 0 l 575 0 l 560 236 l 588 215 q 545 94 579 146 q 459 15 511 43 q 340 -14 407 -14 m 422 160 q 491 181 463 160 q 535 246 519 203 q 550 351 550 289 q 535 451 550 410 q 492 513 521 492 q 424 535 464 535 q 327 490 363 535 q 292 347 292 444 q 326 205 292 250 q 422 160 361 160 z "},"đ":{"ha":872,"x_min":54,"x_max":894,"o":"m 372 747 l 372 882 l 894 882 l 894 747 l 372 747 m 340 -14 q 190 28 254 -14 q 90 151 125 71 q 54 344 54 232 q 91 542 54 461 q 194 665 128 622 q 346 708 260 708 q 498 651 440 708 q 572 504 556 593 l 550 475 l 550 989 l 786 989 l 786 0 l 575 0 l 560 236 l 588 215 q 545 94 579 146 q 459 15 511 43 q 340 -14 407 -14 m 422 160 q 491 181 463 160 q 535 246 519 203 q 550 351 550 289 q 535 451 550 410 q 492 513 521 492 q 424 535 464 535 q 327 490 363 535 q 292 347 292 444 q 326 205 292 250 q 422 160 361 160 z "},"ḍ":{"ha":871,"x_min":54,"x_max":786,"o":"m 340 -14 q 190 28 254 -14 q 90 151 125 71 q 54 344 54 232 q 91 542 54 461 q 194 665 128 622 q 346 708 260 708 q 498 651 440 708 q 572 504 556 593 l 550 475 l 550 989 l 786 989 l 786 0 l 575 0 l 560 236 l 588 215 q 545 94 579 146 q 459 15 511 43 q 340 -14 407 -14 m 422 160 q 491 181 463 160 q 535 246 519 203 q 550 351 550 289 q 535 451 550 410 q 492 513 521 492 q 424 535 464 535 q 327 490 363 535 q 292 347 292 444 q 326 205 292 250 q 422 160 361 160 m 428 -308 q 334 -280 367 -308 q 301 -197 301 -251 q 334 -114 301 -143 q 428 -85 367 -85 q 524 -114 492 -85 q 557 -197 557 -143 q 524 -280 557 -251 q 428 -308 492 -308 z "},"ḏ":{"ha":871,"x_min":54,"x_max":786,"o":"m 340 -14 q 190 28 254 -14 q 90 151 125 71 q 54 344 54 232 q 91 542 54 461 q 194 665 128 622 q 346 708 260 708 q 498 651 440 708 q 572 504 556 593 l 550 475 l 550 989 l 786 989 l 786 0 l 575 0 l 560 236 l 588 215 q 545 94 579 146 q 459 15 511 43 q 340 -14 407 -14 m 422 160 q 491 181 463 160 q 535 246 519 203 q 550 351 550 289 q 535 451 550 410 q 492 513 521 492 q 424 535 464 535 q 327 490 363 535 q 292 347 292 444 q 326 205 292 250 q 422 160 361 160 m 681 -96 l 681 -242 l 175 -242 l 175 -96 l 681 -96 z "},"ǳ":{"ha":1588,"x_min":54,"x_max":1543,"o":"m 340 -14 q 190 28 254 -14 q 90 151 125 71 q 54 344 54 232 q 91 542 54 461 q 194 665 128 622 q 346 708 260 708 q 498 651 440 708 q 572 504 556 593 l 550 475 l 550 989 l 786 989 l 786 0 l 575 0 l 560 236 l 588 215 q 545 94 579 146 q 459 15 511 43 q 340 -14 407 -14 m 422 160 q 491 181 463 160 q 535 246 519 203 q 550 351 550 289 q 535 451 550 410 q 492 513 521 492 q 424 535 464 535 q 327 490 363 535 q 292 347 292 444 q 326 205 292 250 q 422 160 361 160 m 919 0 l 919 144 l 1196 458 l 1269 532 l 1160 529 l 922 529 l 922 694 l 1531 694 l 1531 550 l 1258 239 l 1182 163 l 1304 165 l 1543 165 l 1543 0 l 919 0 z "},"ǆ":{"ha":1588,"x_min":54,"x_max":1543,"o":"m 340 -14 q 190 28 254 -14 q 90 151 125 71 q 54 344 54 232 q 91 542 54 461 q 194 665 128 622 q 346 708 260 708 q 498 651 440 708 q 572 504 556 593 l 550 475 l 550 989 l 786 989 l 786 0 l 575 0 l 560 236 l 588 215 q 545 94 579 146 q 459 15 511 43 q 340 -14 407 -14 m 422 160 q 491 181 463 160 q 535 246 519 203 q 550 351 550 289 q 535 451 550 410 q 492 513 521 492 q 424 535 464 535 q 327 490 363 535 q 292 347 292 444 q 326 205 292 250 q 422 160 361 160 m 919 0 l 919 144 l 1196 458 l 1269 532 l 1160 529 l 922 529 l 922 694 l 1531 694 l 1531 550 l 1258 239 l 1182 163 l 1304 165 l 1543 165 l 1543 0 l 919 0 m 1481 1025 l 1329 785 l 1100 785 l 949 1025 l 1119 1025 l 1214 901 l 1310 1025 l 1481 1025 z "},"e":{"ha":804,"x_min":49,"x_max":757,"o":"m 424 -14 q 224 29 308 -14 q 94 153 140 72 q 49 347 49 233 q 94 542 49 461 q 223 665 140 622 q 413 708 306 708 q 599 666 522 708 q 717 549 676 624 q 757 379 757 475 q 756 329 757 354 q 751 288 754 304 l 201 288 l 201 414 l 647 414 l 535 371 q 505 499 535 454 q 413 543 475 543 q 337 522 368 543 q 290 457 306 501 q 274 343 274 413 q 292 233 274 275 q 343 172 310 190 q 424 153 376 153 q 508 174 476 153 q 554 232 539 194 l 743 169 q 676 69 724 110 q 562 7 628 28 q 424 -14 496 -14 z "},"é":{"ha":804,"x_min":49,"x_max":757,"o":"m 424 -14 q 224 29 308 -14 q 94 153 140 72 q 49 347 49 233 q 94 542 49 461 q 223 665 140 622 q 413 708 306 708 q 599 666 522 708 q 717 549 676 624 q 757 379 757 475 q 756 329 757 354 q 751 288 754 304 l 201 288 l 201 414 l 647 414 l 535 371 q 505 499 535 454 q 413 543 475 543 q 337 522 368 543 q 290 457 306 501 q 274 343 274 413 q 292 233 274 275 q 343 172 310 190 q 424 153 376 153 q 508 174 476 153 q 554 232 539 194 l 743 169 q 676 69 724 110 q 562 7 628 28 q 424 -14 496 -14 m 394 1025 l 614 1025 l 474 785 l 301 785 l 394 1025 z "},"ĕ":{"ha":804,"x_min":49,"x_max":757,"o":"m 424 -14 q 224 29 308 -14 q 94 153 140 72 q 49 347 49 233 q 94 542 49 461 q 223 665 140 622 q 413 708 306 708 q 599 666 522 708 q 717 549 676 624 q 757 379 757 475 q 756 329 757 354 q 751 288 754 304 l 201 288 l 201 414 l 647 414 l 535 371 q 505 499 535 454 q 413 543 475 543 q 337 522 368 543 q 290 457 306 501 q 274 343 274 413 q 292 233 274 275 q 343 172 310 190 q 424 153 376 153 q 508 174 476 153 q 554 232 539 194 l 743 169 q 676 69 724 110 q 562 7 628 28 q 424 -14 496 -14 m 643 997 q 580 831 643 892 q 408 771 517 771 q 238 831 301 771 q 174 997 174 892 l 325 997 q 347 929 326 956 q 408 903 368 903 q 470 929 450 903 q 492 997 490 956 l 643 997 z "},"ě":{"ha":804,"x_min":49,"x_max":757,"o":"m 424 -14 q 224 29 308 -14 q 94 153 140 72 q 49 347 49 233 q 94 542 49 461 q 223 665 140 622 q 413 708 306 708 q 599 666 522 708 q 717 549 676 624 q 757 379 757 475 q 756 329 757 354 q 751 288 754 304 l 201 288 l 201 414 l 647 414 l 535 371 q 505 499 535 454 q 413 543 475 543 q 337 522 368 543 q 290 457 306 501 q 274 343 274 413 q 292 233 274 275 q 343 172 310 190 q 424 153 376 153 q 508 174 476 153 q 554 232 539 194 l 743 169 q 676 69 724 110 q 562 7 628 28 q 424 -14 496 -14 m 669 1025 l 518 785 l 289 785 l 138 1025 l 308 1025 l 403 901 l 499 1025 l 669 1025 z "},"ḝ":{"ha":804,"x_min":49,"x_max":757,"o":"m 424 -14 q 224 29 308 -14 q 94 153 140 72 q 49 347 49 233 q 94 542 49 461 q 223 665 140 622 q 413 708 306 708 q 599 666 522 708 q 717 549 676 624 q 757 379 757 475 q 756 329 757 354 q 751 288 754 304 l 201 288 l 201 414 l 647 414 l 535 371 q 505 499 535 454 q 413 543 475 543 q 337 522 368 543 q 290 457 306 501 q 274 343 274 413 q 292 233 274 275 q 343 172 310 190 q 424 153 376 153 q 508 174 476 153 q 554 232 539 194 l 743 169 q 676 69 724 110 q 562 7 628 28 q 424 -14 496 -14 m 310 14 l 367 51 q 526 -8 475 36 q 578 -125 578 -51 q 526 -251 578 -203 q 383 -299 474 -299 q 297 -287 329 -299 q 240 -258 265 -275 l 279 -146 q 315 -163 296 -156 q 363 -171 335 -171 q 421 -150 399 -171 q 443 -92 443 -129 q 414 -35 443 -60 q 310 14 385 -10 m 643 997 q 580 831 643 892 q 408 771 517 771 q 238 831 301 771 q 174 997 174 892 l 325 997 q 347 929 326 956 q 408 903 368 903 q 470 929 450 903 q 492 997 490 956 l 643 997 z "},"ê":{"ha":804,"x_min":49,"x_max":757,"o":"m 424 -14 q 224 29 308 -14 q 94 153 140 72 q 49 347 49 233 q 94 542 49 461 q 223 665 140 622 q 413 708 306 708 q 599 666 522 708 q 717 549 676 624 q 757 379 757 475 q 756 329 757 354 q 751 288 754 304 l 201 288 l 201 414 l 647 414 l 535 371 q 505 499 535 454 q 413 543 475 543 q 337 522 368 543 q 290 457 306 501 q 274 343 274 413 q 292 233 274 275 q 343 172 310 190 q 424 153 376 153 q 508 174 476 153 q 554 232 539 194 l 743 169 q 676 69 724 110 q 562 7 628 28 q 424 -14 496 -14 m 674 776 l 504 776 l 408 899 l 313 776 l 143 776 l 294 1017 l 522 1017 l 674 776 z "},"ế":{"ha":804,"x_min":49,"x_max":879,"o":"m 690 1125 l 879 1125 l 768 919 l 614 919 l 690 1125 m 657 776 l 499 776 l 408 893 l 318 776 l 160 776 l 303 1001 l 514 1001 l 657 776 m 422 -14 q 224 28 308 -14 q 94 152 140 71 q 49 347 49 233 q 94 542 49 461 q 223 666 140 624 q 413 708 306 708 q 599 666 522 708 q 717 549 676 624 q 757 379 757 475 q 755 334 757 356 q 750 297 753 313 l 201 297 l 201 408 l 647 408 l 535 368 q 505 498 535 453 q 413 543 475 543 q 337 522 368 543 q 290 457 306 501 q 274 344 274 413 q 292 233 274 275 q 343 172 310 190 q 424 153 376 153 q 508 174 476 153 q 554 232 539 194 l 744 169 q 676 69 724 110 q 563 7 628 28 q 422 -14 497 -14 z "},"ệ":{"ha":804,"x_min":49,"x_max":757,"o":"m 424 -14 q 224 29 308 -14 q 94 153 140 72 q 49 347 49 233 q 94 542 49 461 q 223 665 140 622 q 413 708 306 708 q 599 666 522 708 q 717 549 676 624 q 757 379 757 475 q 756 329 757 354 q 751 288 754 304 l 201 288 l 201 414 l 647 414 l 535 371 q 505 499 535 454 q 413 543 475 543 q 337 522 368 543 q 290 457 306 501 q 274 343 274 413 q 292 233 274 275 q 343 172 310 190 q 424 153 376 153 q 508 174 476 153 q 554 232 539 194 l 743 169 q 676 69 724 110 q 562 7 628 28 q 424 -14 496 -14 m 414 -308 q 320 -280 353 -308 q 288 -197 288 -251 q 320 -114 288 -143 q 414 -85 353 -85 q 510 -114 478 -85 q 543 -197 543 -143 q 510 -280 543 -251 q 414 -308 478 -308 m 674 776 l 504 776 l 408 899 l 313 776 l 143 776 l 294 1017 l 522 1017 l 674 776 z "},"ề":{"ha":804,"x_min":49,"x_max":793,"o":"m 717 1125 l 793 919 l 639 919 l 528 1125 l 717 1125 m 657 776 l 499 776 l 408 893 l 318 776 l 160 776 l 303 1001 l 514 1001 l 657 776 m 422 -14 q 224 28 308 -14 q 94 152 140 71 q 49 347 49 233 q 94 542 49 461 q 223 666 140 624 q 413 708 306 708 q 599 666 522 708 q 717 549 676 624 q 757 379 757 475 q 755 334 757 356 q 750 297 753 313 l 201 297 l 201 408 l 647 408 l 535 368 q 505 498 535 453 q 413 543 475 543 q 337 522 368 543 q 290 457 306 501 q 274 344 274 413 q 292 233 274 275 q 343 172 310 190 q 424 153 376 153 q 508 174 476 153 q 554 232 539 194 l 744 169 q 676 69 724 110 q 563 7 628 28 q 422 -14 497 -14 z "},"ể":{"ha":804,"x_min":49,"x_max":810,"o":"m 654 897 l 603 967 q 658 1001 642 983 q 674 1040 674 1018 q 662 1072 674 1060 q 628 1085 650 1085 q 595 1075 607 1085 q 574 1046 583 1065 l 465 1099 q 531 1182 483 1153 q 644 1211 578 1211 q 726 1195 689 1211 q 787 1147 764 1179 q 810 1069 810 1115 q 787 986 810 1021 q 728 930 764 951 q 654 897 692 908 m 657 776 l 499 776 l 408 893 l 318 776 l 160 776 l 303 1001 l 514 1001 l 657 776 m 422 -14 q 224 28 308 -14 q 94 152 140 71 q 49 347 49 233 q 94 542 49 461 q 223 666 140 624 q 413 708 306 708 q 599 666 522 708 q 717 549 676 624 q 757 379 757 475 q 755 334 757 356 q 750 297 753 313 l 201 297 l 201 408 l 647 408 l 535 368 q 505 498 535 453 q 413 543 475 543 q 337 522 368 543 q 290 457 306 501 q 274 344 274 413 q 292 233 274 275 q 343 172 310 190 q 424 153 376 153 q 508 174 476 153 q 554 232 539 194 l 744 169 q 676 69 724 110 q 563 7 628 28 q 422 -14 497 -14 z "},"ễ":{"ha":804,"x_min":49,"x_max":757,"o":"m 657 776 l 499 776 l 408 893 l 318 776 l 160 776 l 303 1001 l 514 1001 l 657 776 m 664 1236 q 613 1084 658 1133 q 504 1035 568 1035 q 442 1046 468 1035 q 397 1071 417 1057 q 361 1096 378 1085 q 326 1107 344 1107 q 293 1090 304 1107 q 278 1038 282 1074 l 154 1038 q 205 1190 158 1142 q 322 1239 251 1239 q 381 1228 357 1239 q 424 1203 406 1217 q 457 1178 442 1189 q 492 1167 472 1167 q 524 1183 513 1167 q 540 1236 536 1200 l 664 1236 m 422 -14 q 224 28 308 -14 q 94 152 140 71 q 49 347 49 233 q 94 542 49 461 q 223 666 140 624 q 413 708 306 708 q 599 666 522 708 q 717 549 676 624 q 757 379 757 475 q 755 334 757 356 q 750 297 753 313 l 201 297 l 201 408 l 647 408 l 535 368 q 505 498 535 453 q 413 543 475 543 q 337 522 368 543 q 290 457 306 501 q 274 344 274 413 q 292 233 274 275 q 343 172 310 190 q 424 153 376 153 q 508 174 476 153 q 554 232 539 194 l 744 169 q 676 69 724 110 q 563 7 628 28 q 422 -14 497 -14 z "},"ȅ":{"ha":804,"x_min":49,"x_max":757,"o":"m 424 -14 q 224 29 308 -14 q 94 153 140 72 q 49 347 49 233 q 94 542 49 461 q 223 665 140 622 q 413 708 306 708 q 599 666 522 708 q 717 549 676 624 q 757 379 757 475 q 756 329 757 354 q 751 288 754 304 l 201 288 l 201 414 l 647 414 l 535 371 q 505 499 535 454 q 413 543 475 543 q 337 522 368 543 q 290 457 306 501 q 274 343 274 413 q 292 233 274 275 q 343 172 310 190 q 424 153 376 153 q 508 174 476 153 q 554 232 539 194 l 743 169 q 676 69 724 110 q 562 7 628 28 q 424 -14 496 -14 m 356 785 l 192 785 l 60 1025 l 260 1025 l 356 785 m 650 785 l 486 785 l 354 1025 l 554 1025 l 650 785 z "},"ë":{"ha":804,"x_min":49,"x_max":757,"o":"m 424 -14 q 224 29 308 -14 q 94 153 140 72 q 49 347 49 233 q 94 542 49 461 q 223 665 140 622 q 413 708 306 708 q 599 666 522 708 q 717 549 676 624 q 757 379 757 475 q 756 329 757 354 q 751 288 754 304 l 201 288 l 201 414 l 647 414 l 535 371 q 505 499 535 454 q 413 543 475 543 q 337 522 368 543 q 290 457 306 501 q 274 343 274 413 q 292 233 274 275 q 343 172 310 190 q 424 153 376 153 q 508 174 476 153 q 554 232 539 194 l 743 169 q 676 69 724 110 q 562 7 628 28 q 424 -14 496 -14 m 254 986 q 342 958 311 986 q 374 879 374 931 q 342 801 374 829 q 254 772 311 772 q 169 801 200 772 q 138 879 138 829 q 169 958 138 931 q 254 986 200 986 m 560 986 q 647 958 615 986 q 679 879 679 931 q 647 801 679 829 q 560 772 615 772 q 474 801 506 772 q 443 879 443 829 q 474 958 443 931 q 560 986 506 986 z "},"ė":{"ha":804,"x_min":49,"x_max":757,"o":"m 424 -14 q 224 29 308 -14 q 94 153 140 72 q 49 347 49 233 q 94 542 49 461 q 223 665 140 622 q 413 708 306 708 q 599 666 522 708 q 717 549 676 624 q 757 379 757 475 q 756 329 757 354 q 751 288 754 304 l 201 288 l 201 414 l 647 414 l 535 371 q 505 499 535 454 q 413 543 475 543 q 337 522 368 543 q 290 457 306 501 q 274 343 274 413 q 292 233 274 275 q 343 172 310 190 q 424 153 376 153 q 508 174 476 153 q 554 232 539 194 l 743 169 q 676 69 724 110 q 562 7 628 28 q 424 -14 496 -14 m 408 1003 q 505 974 472 1003 q 538 892 538 946 q 505 808 538 838 q 408 779 472 779 q 315 808 347 779 q 282 892 282 838 q 315 974 282 946 q 408 1003 347 1003 z "},"ẹ":{"ha":804,"x_min":49,"x_max":757,"o":"m 424 -14 q 224 29 308 -14 q 94 153 140 72 q 49 347 49 233 q 94 542 49 461 q 223 665 140 622 q 413 708 306 708 q 599 666 522 708 q 717 549 676 624 q 757 379 757 475 q 756 329 757 354 q 751 288 754 304 l 201 288 l 201 414 l 647 414 l 535 371 q 505 499 535 454 q 413 543 475 543 q 337 522 368 543 q 290 457 306 501 q 274 343 274 413 q 292 233 274 275 q 343 172 310 190 q 424 153 376 153 q 508 174 476 153 q 554 232 539 194 l 743 169 q 676 69 724 110 q 562 7 628 28 q 424 -14 496 -14 m 414 -308 q 320 -280 353 -308 q 288 -197 288 -251 q 320 -114 288 -143 q 414 -85 353 -85 q 510 -114 478 -85 q 543 -197 543 -143 q 510 -280 543 -251 q 414 -308 478 -308 z "},"è":{"ha":804,"x_min":49,"x_max":757,"o":"m 424 -14 q 224 29 308 -14 q 94 153 140 72 q 49 347 49 233 q 94 542 49 461 q 223 665 140 622 q 413 708 306 708 q 599 666 522 708 q 717 549 676 624 q 757 379 757 475 q 756 329 757 354 q 751 288 754 304 l 201 288 l 201 414 l 647 414 l 535 371 q 505 499 535 454 q 413 543 475 543 q 337 522 368 543 q 290 457 306 501 q 274 343 274 413 q 292 233 274 275 q 343 172 310 190 q 424 153 376 153 q 508 174 476 153 q 554 232 539 194 l 743 169 q 676 69 724 110 q 562 7 628 28 q 424 -14 496 -14 m 408 1025 l 501 785 l 329 785 l 189 1025 l 408 1025 z "},"ẻ":{"ha":804,"x_min":49,"x_max":757,"o":"m 424 -14 q 224 29 308 -14 q 94 153 140 72 q 49 347 49 233 q 94 542 49 461 q 223 665 140 622 q 413 708 306 708 q 599 666 522 708 q 717 549 676 624 q 757 379 757 475 q 756 329 757 354 q 751 288 754 304 l 201 288 l 201 414 l 647 414 l 535 371 q 505 499 535 454 q 413 543 475 543 q 337 522 368 543 q 290 457 306 501 q 274 343 274 413 q 292 233 274 275 q 343 172 310 190 q 424 153 376 153 q 508 174 476 153 q 554 232 539 194 l 743 169 q 676 69 724 110 q 562 7 628 28 q 424 -14 496 -14 m 403 756 l 351 828 q 409 863 392 846 q 426 903 426 881 q 414 935 426 922 q 378 949 401 949 q 347 938 360 949 q 324 908 333 928 l 217 961 q 281 1047 233 1017 q 396 1076 329 1076 q 478 1060 440 1076 q 540 1010 517 1043 q 563 932 563 978 q 539 847 563 882 q 478 790 515 813 q 403 756 442 768 z "},"ȇ":{"ha":804,"x_min":49,"x_max":757,"o":"m 424 -14 q 224 29 308 -14 q 94 153 140 72 q 49 347 49 233 q 94 542 49 461 q 223 665 140 622 q 413 708 306 708 q 599 666 522 708 q 717 549 676 624 q 757 379 757 475 q 756 329 757 354 q 751 288 754 304 l 201 288 l 201 414 l 647 414 l 535 371 q 505 499 535 454 q 413 543 475 543 q 337 522 368 543 q 290 457 306 501 q 274 343 274 413 q 292 233 274 275 q 343 172 310 190 q 424 153 376 153 q 508 174 476 153 q 554 232 539 194 l 743 169 q 676 69 724 110 q 562 7 628 28 q 424 -14 496 -14 m 643 771 l 492 771 q 470 839 490 813 q 408 865 450 865 q 347 839 368 865 q 325 771 326 813 l 174 771 q 238 937 174 876 q 408 997 301 997 q 580 937 517 997 q 643 771 643 876 z "},"ē":{"ha":804,"x_min":49,"x_max":757,"o":"m 424 -14 q 224 29 308 -14 q 94 153 140 72 q 49 347 49 233 q 94 542 49 461 q 223 665 140 622 q 413 708 306 708 q 599 666 522 708 q 717 549 676 624 q 757 379 757 475 q 756 329 757 354 q 751 288 754 304 l 201 288 l 201 414 l 647 414 l 535 371 q 505 499 535 454 q 413 543 475 543 q 337 522 368 543 q 290 457 306 501 q 274 343 274 413 q 292 233 274 275 q 343 172 310 190 q 424 153 376 153 q 508 174 476 153 q 554 232 539 194 l 743 169 q 676 69 724 110 q 562 7 628 28 q 424 -14 496 -14 m 661 936 l 661 790 l 156 790 l 156 936 l 661 936 z "},"ḗ":{"ha":804,"x_min":49,"x_max":757,"o":"m 424 -14 q 224 29 308 -14 q 94 153 140 72 q 49 347 49 233 q 94 542 49 461 q 223 665 140 622 q 413 708 306 708 q 599 666 522 708 q 717 549 676 624 q 757 379 757 475 q 756 329 757 354 q 751 288 754 304 l 201 288 l 201 414 l 647 414 l 535 371 q 505 499 535 454 q 413 543 475 543 q 337 522 368 543 q 290 457 306 501 q 274 343 274 413 q 292 233 274 275 q 343 172 310 190 q 424 153 376 153 q 508 174 476 153 q 554 232 539 194 l 743 169 q 676 69 724 110 q 562 7 628 28 q 424 -14 496 -14 m 661 936 l 661 790 l 156 790 l 156 936 l 661 936 m 393 1247 l 604 1247 l 481 1021 l 308 1021 l 393 1247 z "},"ḕ":{"ha":804,"x_min":49,"x_max":757,"o":"m 424 -14 q 224 29 308 -14 q 94 153 140 72 q 49 347 49 233 q 94 542 49 461 q 223 665 140 622 q 413 708 306 708 q 599 666 522 708 q 717 549 676 624 q 757 379 757 475 q 756 329 757 354 q 751 288 754 304 l 201 288 l 201 414 l 647 414 l 535 371 q 505 499 535 454 q 413 543 475 543 q 337 522 368 543 q 290 457 306 501 q 274 343 274 413 q 292 233 274 275 q 343 172 310 190 q 424 153 376 153 q 508 174 476 153 q 554 232 539 194 l 743 169 q 676 69 724 110 q 562 7 628 28 q 424 -14 496 -14 m 661 936 l 661 790 l 156 790 l 156 936 l 661 936 m 424 1247 l 508 1021 l 336 1021 l 213 1247 l 424 1247 z "},"ę":{"ha":804,"x_min":49,"x_max":757,"o":"m 424 -14 q 224 29 308 -14 q 94 153 140 72 q 49 347 49 233 q 94 542 49 461 q 223 665 140 622 q 413 708 306 708 q 599 666 522 708 q 717 549 676 624 q 757 379 757 475 q 756 329 757 354 q 751 288 754 304 l 201 288 l 201 414 l 647 414 l 535 371 q 505 499 535 454 q 413 543 475 543 q 337 522 368 543 q 290 457 306 501 q 274 343 274 413 q 292 233 274 275 q 343 172 310 190 q 424 153 376 153 q 508 174 476 153 q 554 232 539 194 l 743 169 q 676 69 724 110 q 562 7 628 28 q 424 -14 496 -14 m 446 -306 q 309 -264 358 -306 q 260 -151 260 -222 q 317 -24 260 -69 q 476 40 375 22 l 569 10 q 478 -26 513 -8 q 429 -65 444 -44 q 414 -111 414 -85 q 434 -156 414 -140 q 489 -172 454 -172 q 524 -169 507 -172 q 553 -160 540 -165 l 576 -278 q 519 -299 550 -293 q 446 -306 488 -306 z "},"ẽ":{"ha":804,"x_min":49,"x_max":757,"o":"m 424 -14 q 224 29 308 -14 q 94 153 140 72 q 49 347 49 233 q 94 542 49 461 q 223 665 140 622 q 413 708 306 708 q 599 666 522 708 q 717 549 676 624 q 757 379 757 475 q 756 329 757 354 q 751 288 754 304 l 201 288 l 201 414 l 647 414 l 535 371 q 505 499 535 454 q 413 543 475 543 q 337 522 368 543 q 290 457 306 501 q 274 343 274 413 q 292 233 274 275 q 343 172 310 190 q 424 153 376 153 q 508 174 476 153 q 554 232 539 194 l 743 169 q 676 69 724 110 q 562 7 628 28 q 424 -14 496 -14 m 683 997 q 658 874 681 924 q 597 801 635 825 q 513 776 558 776 q 445 788 474 776 q 396 816 417 800 q 357 844 375 832 q 318 856 339 856 q 282 836 294 856 q 265 778 269 817 l 132 778 q 186 944 136 889 q 314 999 236 999 q 378 987 351 999 q 424 959 404 975 q 460 931 443 943 q 497 919 478 919 q 534 939 522 919 q 550 997 546 958 l 683 997 z "},"ǝ":{"ha":804,"x_min":47,"x_max":756,"o":"m 385 708 q 583 666 501 708 q 710 542 665 624 q 756 347 756 461 q 710 152 756 233 q 583 28 664 71 q 394 -14 501 -14 q 207 31 285 -14 q 88 151 129 76 q 47 315 47 225 q 49 361 47 339 q 53 397 51 383 l 603 397 l 603 286 l 156 286 l 269 326 q 283 233 269 272 q 325 172 297 193 q 393 151 353 151 q 469 172 439 151 q 515 238 500 193 q 531 350 531 282 q 514 463 531 421 q 465 523 497 504 q 383 542 432 542 q 298 519 331 542 q 249 458 265 496 l 58 521 q 131 618 83 576 q 244 684 179 660 q 385 708 310 708 z "},"ə":{"ha":804,"x_min":50,"x_max":756,"o":"m 394 -14 q 208 28 285 -14 q 90 145 131 71 q 50 315 50 219 q 51 351 50 333 q 56 388 53 369 l 603 388 l 603 278 l 158 278 l 274 343 q 272 322 272 332 q 271 304 271 313 q 304 192 271 232 q 397 151 338 151 q 497 198 463 151 q 531 346 531 244 q 515 460 531 417 q 468 522 499 503 q 390 542 438 542 q 309 516 340 542 q 263 450 278 490 l 65 508 q 135 615 89 571 q 249 684 182 660 q 396 708 315 708 q 592 666 513 708 q 714 542 672 624 q 756 347 756 461 q 661 81 756 176 q 394 -14 567 -14 z "},"f":{"ha":576,"x_min":21,"x_max":572,"o":"m 408 1008 q 508 997 465 1008 q 572 969 551 985 l 549 822 q 514 838 533 832 q 465 843 494 843 q 385 821 417 843 q 354 743 354 799 l 354 653 l 368 614 l 368 0 l 132 0 l 132 758 q 153 872 132 825 q 214 950 175 919 q 303 994 253 981 q 408 1008 353 1008 m 565 694 l 565 526 l 21 526 l 21 694 l 565 694 z "},"g":{"ha":778,"x_min":31,"x_max":776,"o":"m 757 881 l 776 722 q 760 726 768 725 q 743 726 751 726 q 652 697 682 726 q 622 622 622 667 l 539 653 q 560 763 539 710 q 624 849 581 815 q 735 882 668 882 q 745 882 739 882 q 757 881 751 882 m 518 154 q 703 103 639 154 q 768 -42 768 53 q 721 -185 768 -128 q 588 -270 674 -242 q 386 -299 503 -299 q 114 -251 197 -299 q 31 -124 31 -204 q 78 -29 31 -65 q 235 10 125 7 l 229 -12 q 103 38 144 -1 q 61 143 61 76 q 114 251 61 210 q 254 297 167 293 l 340 257 l 318 257 q 242 239 264 254 q 219 201 219 224 q 239 166 219 178 q 297 154 258 154 l 518 154 m 388 -146 q 498 -137 454 -146 q 564 -112 542 -128 q 586 -75 586 -96 q 571 -42 586 -54 q 515 -31 556 -31 l 267 -31 q 224 -44 240 -31 q 208 -79 208 -58 q 256 -128 208 -111 q 388 -146 303 -146 m 396 708 q 576 681 501 708 q 691 601 651 653 q 731 472 731 549 q 691 344 731 397 q 576 265 651 292 q 396 238 501 238 q 145 299 231 238 q 60 472 60 360 q 99 601 60 549 q 214 681 139 653 q 396 708 289 708 m 396 574 q 322 547 350 574 q 293 472 293 521 q 322 399 293 425 q 396 372 350 372 q 469 399 440 372 q 499 472 499 425 q 469 547 499 521 q 396 574 440 574 z "},"ğ":{"ha":778,"x_min":31,"x_max":793,"o":"m 767 881 l 793 724 q 785 724 789 724 q 778 724 782 724 q 683 695 719 724 q 647 606 647 667 l 567 653 q 594 770 568 719 q 664 851 619 821 q 764 881 708 881 q 765 881 765 881 q 767 881 765 881 m 518 154 q 703 103 639 154 q 768 -42 768 53 q 721 -185 768 -128 q 588 -270 674 -242 q 386 -299 503 -299 q 114 -251 197 -299 q 31 -124 31 -204 q 78 -29 31 -65 q 235 10 125 7 l 229 -12 q 103 38 144 -1 q 61 143 61 76 q 114 251 61 210 q 254 297 167 293 l 340 257 l 318 257 q 242 239 264 254 q 219 201 219 224 q 239 166 219 178 q 297 154 258 154 l 518 154 m 388 -146 q 498 -137 454 -146 q 564 -112 542 -128 q 586 -75 586 -96 q 571 -42 586 -54 q 515 -31 556 -31 l 267 -31 q 224 -44 240 -31 q 208 -79 208 -58 q 256 -128 208 -111 q 388 -146 303 -146 m 396 708 q 576 681 501 708 q 691 601 651 653 q 731 472 731 549 q 691 344 731 397 q 576 265 651 292 q 396 238 501 238 q 145 299 231 238 q 60 472 60 360 q 99 601 60 549 q 214 681 139 653 q 396 708 289 708 m 396 574 q 322 547 350 574 q 293 472 293 521 q 322 399 293 425 q 396 372 350 372 q 469 399 440 372 q 499 472 499 425 q 469 547 499 521 q 396 574 440 574 m 629 997 q 566 831 629 892 q 394 771 503 771 q 224 831 288 771 q 160 997 160 892 l 313 997 q 333 929 313 956 q 394 903 354 903 q 456 929 436 903 q 478 997 476 956 l 629 997 z "},"ǧ":{"ha":778,"x_min":31,"x_max":776,"o":"m 757 881 l 776 722 q 760 726 768 725 q 743 726 751 726 q 652 697 682 726 q 622 622 622 667 l 539 653 q 560 763 539 710 q 624 849 581 815 q 735 882 668 882 q 745 882 739 882 q 757 881 751 882 m 518 154 q 703 103 639 154 q 768 -42 768 53 q 721 -185 768 -128 q 588 -270 674 -242 q 386 -299 503 -299 q 114 -251 197 -299 q 31 -124 31 -204 q 78 -29 31 -65 q 235 10 125 7 l 229 -12 q 103 38 144 -1 q 61 143 61 76 q 114 251 61 210 q 254 297 167 293 l 340 257 l 318 257 q 242 239 264 254 q 219 201 219 224 q 239 166 219 178 q 297 154 258 154 l 518 154 m 388 -146 q 498 -137 454 -146 q 564 -112 542 -128 q 586 -75 586 -96 q 571 -42 586 -54 q 515 -31 556 -31 l 267 -31 q 224 -44 240 -31 q 208 -79 208 -58 q 256 -128 208 -111 q 388 -146 303 -146 m 396 708 q 576 681 501 708 q 691 601 651 653 q 731 472 731 549 q 691 344 731 397 q 576 265 651 292 q 396 238 501 238 q 145 299 231 238 q 60 472 60 360 q 99 601 60 549 q 214 681 139 653 q 396 708 289 708 m 396 574 q 322 547 350 574 q 293 472 293 521 q 322 399 293 425 q 396 372 350 372 q 469 399 440 372 q 499 472 499 425 q 469 547 499 521 q 396 574 440 574 m 622 1025 l 471 785 l 242 785 l 90 1025 l 261 1025 l 356 901 l 451 1025 l 622 1025 z "},"ĝ":{"ha":778,"x_min":31,"x_max":793,"o":"m 136 776 l 251 1017 l 454 1017 l 568 776 l 431 776 l 353 910 l 274 776 l 136 776 m 767 881 l 793 724 q 785 724 789 724 q 778 724 782 724 q 683 695 719 724 q 647 606 647 667 l 567 653 q 594 770 568 719 q 664 851 619 821 q 764 881 708 881 q 765 881 765 881 q 767 881 765 881 m 518 154 q 703 103 639 154 q 768 -42 768 53 q 721 -185 768 -128 q 588 -270 674 -242 q 386 -299 503 -299 q 114 -251 197 -299 q 31 -124 31 -204 q 78 -29 31 -65 q 235 10 125 7 l 229 -12 q 103 38 144 -1 q 61 143 61 76 q 114 251 61 210 q 254 297 167 293 l 340 257 l 318 257 q 242 239 264 254 q 219 201 219 224 q 239 166 219 178 q 297 154 258 154 l 518 154 m 388 -146 q 498 -137 454 -146 q 564 -112 542 -128 q 586 -75 586 -96 q 571 -42 586 -54 q 515 -31 556 -31 l 267 -31 q 224 -44 240 -31 q 208 -79 208 -58 q 256 -128 208 -111 q 388 -146 303 -146 m 396 708 q 576 681 501 708 q 691 601 651 653 q 731 472 731 549 q 691 344 731 397 q 576 265 651 292 q 396 238 501 238 q 145 299 231 238 q 60 472 60 360 q 99 601 60 549 q 214 681 139 653 q 396 708 289 708 m 396 574 q 322 547 350 574 q 293 472 293 521 q 322 399 293 425 q 396 372 350 372 q 469 399 440 372 q 499 472 499 425 q 469 547 499 521 q 396 574 440 574 z "},"ģ":{"ha":778,"x_min":31,"x_max":776,"o":"m 757 881 l 776 722 q 760 726 768 725 q 743 726 751 726 q 652 697 682 726 q 622 622 622 667 l 539 653 q 560 763 539 710 q 624 849 581 815 q 735 882 668 882 q 745 882 739 882 q 757 881 751 882 m 518 154 q 703 103 639 154 q 768 -42 768 53 q 721 -185 768 -128 q 588 -270 674 -242 q 386 -299 503 -299 q 114 -251 197 -299 q 31 -124 31 -204 q 78 -29 31 -65 q 235 10 125 7 l 229 -12 q 103 38 144 -1 q 61 143 61 76 q 114 251 61 210 q 254 297 167 293 l 340 257 l 318 257 q 242 239 264 254 q 219 201 219 224 q 239 166 219 178 q 297 154 258 154 l 518 154 m 388 -146 q 498 -137 454 -146 q 564 -112 542 -128 q 586 -75 586 -96 q 571 -42 586 -54 q 515 -31 556 -31 l 267 -31 q 224 -44 240 -31 q 208 -79 208 -58 q 256 -128 208 -111 q 388 -146 303 -146 m 396 708 q 576 681 501 708 q 691 601 651 653 q 731 472 731 549 q 691 344 731 397 q 576 265 651 292 q 396 238 501 238 q 145 299 231 238 q 60 472 60 360 q 99 601 60 549 q 214 681 139 653 q 396 708 289 708 m 396 574 q 322 547 350 574 q 293 472 293 521 q 322 399 293 425 q 396 372 350 372 q 469 399 440 372 q 499 472 499 425 q 469 547 499 521 q 396 574 440 574 m 532 1072 l 482 782 l 285 782 l 383 1072 l 532 1072 z "},"ġ":{"ha":778,"x_min":31,"x_max":776,"o":"m 757 881 l 776 722 q 760 726 768 725 q 743 726 751 726 q 652 697 682 726 q 622 622 622 667 l 539 653 q 560 763 539 710 q 624 849 581 815 q 735 882 668 882 q 745 882 739 882 q 757 881 751 882 m 518 154 q 703 103 639 154 q 768 -42 768 53 q 721 -185 768 -128 q 588 -270 674 -242 q 386 -299 503 -299 q 114 -251 197 -299 q 31 -124 31 -204 q 78 -29 31 -65 q 235 10 125 7 l 229 -12 q 103 38 144 -1 q 61 143 61 76 q 114 251 61 210 q 254 297 167 293 l 340 257 l 318 257 q 242 239 264 254 q 219 201 219 224 q 239 166 219 178 q 297 154 258 154 l 518 154 m 388 -146 q 498 -137 454 -146 q 564 -112 542 -128 q 586 -75 586 -96 q 571 -42 586 -54 q 515 -31 556 -31 l 267 -31 q 224 -44 240 -31 q 208 -79 208 -58 q 256 -128 208 -111 q 388 -146 303 -146 m 396 708 q 576 681 501 708 q 691 601 651 653 q 731 472 731 549 q 691 344 731 397 q 576 265 651 292 q 396 238 501 238 q 145 299 231 238 q 60 472 60 360 q 99 601 60 549 q 214 681 139 653 q 396 708 289 708 m 396 574 q 322 547 350 574 q 293 472 293 521 q 322 399 293 425 q 396 372 350 372 q 469 399 440 372 q 499 472 499 425 q 469 547 499 521 q 396 574 440 574 m 361 1003 q 458 974 425 1003 q 490 892 490 946 q 458 808 490 838 q 361 779 425 779 q 267 808 300 779 q 235 892 235 838 q 267 974 235 946 q 361 1003 300 1003 z "},"ɂ":{"ha":768,"x_min":7,"x_max":747,"o":"m 390 710 q 574 681 493 710 q 701 595 654 653 q 747 451 747 538 q 711 308 747 364 q 616 221 675 251 q 486 178 557 190 l 486 0 l 250 0 l 250 279 q 397 308 344 290 q 470 354 449 326 q 492 419 492 382 q 463 493 492 468 q 374 518 435 518 q 281 483 314 518 q 236 383 249 447 l 7 457 q 69 586 24 529 q 194 676 115 643 q 390 710 274 710 z "},"ḡ":{"ha":778,"x_min":31,"x_max":776,"o":"m 531 936 l 531 790 l 190 790 l 190 936 l 531 936 m 757 881 l 776 722 q 760 726 768 725 q 743 726 751 726 q 652 697 682 726 q 622 622 622 667 l 539 653 q 560 763 539 710 q 624 849 581 815 q 735 882 668 882 q 745 882 739 882 q 757 881 751 882 m 518 154 q 703 103 639 154 q 768 -42 768 53 q 721 -185 768 -128 q 588 -270 674 -242 q 386 -299 503 -299 q 114 -251 197 -299 q 31 -124 31 -204 q 78 -29 31 -65 q 235 10 125 7 l 229 -12 q 103 38 144 -1 q 61 143 61 76 q 114 251 61 210 q 254 297 167 293 l 340 257 l 318 257 q 242 239 264 254 q 219 201 219 224 q 239 166 219 178 q 297 154 258 154 l 518 154 m 388 -146 q 498 -137 454 -146 q 564 -112 542 -128 q 586 -75 586 -96 q 571 -42 586 -54 q 515 -31 556 -31 l 267 -31 q 224 -44 240 -31 q 208 -79 208 -58 q 256 -128 208 -111 q 388 -146 303 -146 m 396 708 q 576 681 501 708 q 691 601 651 653 q 731 472 731 549 q 691 344 731 397 q 576 265 651 292 q 396 238 501 238 q 145 299 231 238 q 60 472 60 360 q 99 601 60 549 q 214 681 139 653 q 396 708 289 708 m 396 574 q 322 547 350 574 q 293 472 293 521 q 322 399 293 425 q 396 372 350 372 q 469 399 440 372 q 499 472 499 425 q 469 547 499 521 q 396 574 440 574 z "},"h":{"ha":861,"x_min":85,"x_max":781,"o":"m 85 0 l 85 989 l 321 989 l 321 568 q 408 673 351 638 q 540 708 465 708 q 666 681 613 708 q 750 599 719 653 q 781 463 781 544 l 781 0 l 544 0 l 544 397 q 517 501 544 472 q 446 529 490 529 q 383 513 413 529 q 338 460 354 496 q 321 365 321 424 l 321 0 l 85 0 z "},"ħ":{"ha":861,"x_min":-22,"x_max":781,"o":"m -22 882 l 501 882 l 501 747 l -22 747 l -22 882 m 85 0 l 85 989 l 321 989 l 321 568 q 408 673 351 638 q 540 708 465 708 q 666 681 613 708 q 750 599 719 653 q 781 463 781 544 l 781 0 l 544 0 l 544 397 q 517 501 544 472 q 446 529 490 529 q 383 513 413 529 q 338 460 354 496 q 321 365 321 424 l 321 0 l 85 0 z "},"ḫ":{"ha":861,"x_min":85,"x_max":781,"o":"m 85 0 l 85 989 l 321 989 l 321 568 q 408 673 351 638 q 540 708 465 708 q 666 681 613 708 q 750 599 719 653 q 781 463 781 544 l 781 0 l 544 0 l 544 397 q 517 501 544 472 q 446 529 490 529 q 383 513 413 529 q 338 460 354 496 q 321 365 321 424 l 321 0 l 85 0 m 678 -76 q 615 -242 678 -182 q 443 -303 551 -303 q 272 -242 336 -303 q 208 -76 208 -182 l 360 -76 q 382 -144 361 -118 q 443 -171 403 -171 q 505 -144 485 -171 q 526 -76 525 -118 l 678 -76 z "},"ĥ":{"ha":861,"x_min":-53,"x_max":781,"o":"m 85 0 l 85 989 l 321 989 l 321 568 q 408 673 351 638 q 540 708 465 708 q 666 681 613 708 q 750 599 719 653 q 781 463 781 544 l 781 0 l 544 0 l 544 397 q 517 501 544 472 q 446 529 490 529 q 383 513 413 529 q 338 460 354 496 q 321 365 321 424 l 321 0 l 85 0 m 457 1065 l 293 1065 l 203 1193 l 113 1065 l -51 1065 l 88 1292 l 318 1292 l 457 1065 z "},"ḥ":{"ha":861,"x_min":85,"x_max":781,"o":"m 85 0 l 85 989 l 321 989 l 321 568 q 408 673 351 638 q 540 708 465 708 q 666 681 613 708 q 750 599 719 653 q 781 463 781 544 l 781 0 l 544 0 l 544 397 q 517 501 544 472 q 446 529 490 529 q 383 513 413 529 q 338 460 354 496 q 321 365 321 424 l 321 0 l 85 0 m 443 -308 q 349 -280 382 -308 q 317 -197 317 -251 q 349 -114 317 -143 q 443 -85 382 -85 q 540 -114 507 -85 q 572 -197 572 -143 q 540 -280 572 -251 q 443 -308 507 -308 z "},"i":{"ha":404,"x_min":65,"x_max":340,"o":"m 203 775 q 98 802 131 775 q 65 888 65 829 q 98 974 65 947 q 203 1001 131 1001 q 307 974 274 1001 q 340 888 340 947 q 307 802 340 829 q 203 775 274 775 m 321 694 l 321 0 l 85 0 l 85 694 l 321 694 z "},"ı":{"ha":404,"x_min":85,"x_max":321,"o":"m 321 694 l 321 0 l 85 0 l 85 694 l 321 694 z "},"í":{"ha":404,"x_min":85,"x_max":407,"o":"m 321 694 l 321 0 l 85 0 l 85 694 l 321 694 m 189 1025 l 408 1025 l 268 785 l 96 785 l 189 1025 z "},"ĭ":{"ha":404,"x_min":-32,"x_max":438,"o":"m 321 694 l 321 0 l 85 0 l 85 694 l 321 694 m 438 997 q 374 831 438 892 q 203 771 311 771 q 32 831 96 771 q -32 997 -32 892 l 119 997 q 142 929 121 956 q 203 903 163 903 q 265 929 244 903 q 286 997 285 956 l 438 997 z "},"î":{"ha":404,"x_min":-64,"x_max":468,"o":"m 321 694 l 321 0 l 85 0 l 85 694 l 321 694 m 468 776 l 299 776 l 203 899 l 107 776 l -62 776 l 89 1017 l 317 1017 l 468 776 z "},"ȉ":{"ha":404,"x_min":-146,"x_max":444,"o":"m 321 694 l 321 0 l 85 0 l 85 694 l 321 694 m 150 785 l -14 785 l -146 1025 l 54 1025 l 150 785 m 444 785 l 281 785 l 149 1025 l 349 1025 l 444 785 z "},"ï":{"ha":404,"x_min":-43,"x_max":447,"o":"m 336 769 q 253 798 282 769 q 224 879 224 826 q 253 961 224 933 q 336 989 282 989 q 419 961 390 989 q 447 879 447 933 q 419 798 447 826 q 336 769 390 769 m 68 769 q -14 798 15 769 q -43 879 -43 826 q -14 961 -43 933 q 68 989 15 989 q 152 961 124 989 q 181 879 181 933 q 152 798 181 826 q 68 769 124 769 m 321 694 l 321 0 l 85 0 l 85 694 l 321 694 z "},"ḯ":{"ha":404,"x_min":-68,"x_max":472,"o":"m 321 694 l 321 0 l 85 0 l 85 694 l 321 694 m 49 986 q 137 958 106 986 q 168 879 168 931 q 137 801 168 829 q 49 772 106 772 q -37 801 -6 772 q -68 879 -68 829 q -37 958 -68 931 q 49 986 -6 986 m 354 986 q 442 958 410 986 q 474 879 474 931 q 442 801 474 829 q 354 772 410 772 q 269 801 300 772 q 238 879 238 829 q 269 958 238 931 q 354 986 300 986 m 188 1272 l 399 1272 l 275 1046 l 103 1046 l 188 1272 z "},"ị":{"ha":404,"x_min":65,"x_max":340,"o":"m 203 775 q 98 802 131 775 q 65 888 65 829 q 98 974 65 947 q 203 1001 131 1001 q 307 974 274 1001 q 340 888 340 947 q 307 802 340 829 q 203 775 274 775 m 321 694 l 321 0 l 85 0 l 85 694 l 321 694 m 203 -308 q 109 -280 142 -308 q 76 -197 76 -251 q 109 -114 76 -143 q 203 -85 142 -85 q 299 -114 267 -85 q 332 -197 332 -143 q 299 -280 332 -251 q 203 -308 267 -308 z "},"ì":{"ha":404,"x_min":-17,"x_max":321,"o":"m 321 694 l 321 0 l 85 0 l 85 694 l 321 694 m 203 1025 l 296 785 l 124 785 l -17 1025 l 203 1025 z "},"ỉ":{"ha":404,"x_min":10,"x_max":357,"o":"m 321 694 l 321 0 l 85 0 l 85 694 l 321 694 m 197 756 l 146 828 q 203 863 186 846 q 221 903 221 881 q 208 935 221 922 q 172 949 196 949 q 141 938 154 949 q 118 908 128 928 l 11 961 q 76 1047 28 1017 q 190 1076 124 1076 q 273 1060 235 1076 q 334 1010 311 1043 q 357 932 357 978 q 333 847 357 882 q 273 790 310 813 q 197 756 236 768 z "},"ȋ":{"ha":404,"x_min":-32,"x_max":438,"o":"m 321 694 l 321 0 l 85 0 l 85 694 l 321 694 m 438 771 l 286 771 q 265 839 285 813 q 203 865 244 865 q 142 839 163 865 q 119 771 121 813 l -32 771 q 32 937 -32 876 q 203 997 96 997 q 374 937 311 997 q 438 771 438 876 z "},"ĳ":{"ha":808,"x_min":65,"x_max":744,"o":"m 203 775 q 98 802 131 775 q 65 888 65 829 q 98 974 65 947 q 203 1001 131 1001 q 307 974 274 1001 q 340 888 340 947 q 307 802 340 829 q 203 775 274 775 m 321 694 l 321 0 l 85 0 l 85 694 l 321 694 m 607 775 q 502 802 535 775 q 469 888 469 829 q 502 974 469 947 q 607 1001 535 1001 q 711 974 678 1001 q 744 888 744 947 q 711 802 744 829 q 607 775 678 775 m 725 694 l 725 -39 q 692 -190 725 -133 q 600 -273 660 -247 q 456 -299 540 -299 q 354 -287 400 -299 q 274 -254 308 -275 l 307 -101 q 344 -120 322 -112 q 396 -128 367 -128 q 463 -103 438 -128 q 489 -18 489 -79 l 489 694 l 725 694 z "},"ī":{"ha":404,"x_min":15,"x_max":390,"o":"m 390 936 l 390 790 l 15 790 l 15 936 l 390 936 m 321 694 l 321 0 l 85 0 l 85 694 l 321 694 z "},"į":{"ha":404,"x_min":0,"x_max":340,"o":"m 200 -315 q 103 -299 149 -315 q 28 -247 57 -282 q 0 -153 0 -211 q 31 -48 0 -89 q 113 17 61 -7 q 228 56 164 42 l 321 0 q 211 -57 247 -29 q 175 -122 175 -85 q 194 -167 175 -150 q 247 -183 213 -183 q 281 -180 264 -183 q 308 -171 297 -176 l 339 -285 q 278 -308 313 -301 q 200 -315 244 -315 m 203 775 q 98 802 131 775 q 65 888 65 829 q 98 974 65 947 q 203 1001 131 1001 q 307 974 274 1001 q 340 888 340 947 q 307 802 340 829 q 203 775 274 775 m 321 694 l 321 0 l 85 0 l 85 694 l 321 694 z "},"ĩ":{"ha":404,"x_min":-74,"x_max":478,"o":"m 321 694 l 321 0 l 85 0 l 85 694 l 321 694 m 478 997 q 452 874 475 924 q 391 801 429 825 q 307 776 353 776 q 240 788 268 776 q 190 816 211 800 q 151 844 169 832 q 113 856 133 856 q 76 836 89 856 q 60 778 64 817 l -74 778 q -19 944 -69 889 q 108 999 31 999 q 172 987 146 999 q 218 959 199 975 q 255 931 238 943 q 292 919 272 919 q 328 939 317 919 q 344 997 340 958 l 478 997 z "},"j":{"ha":404,"x_min":-131,"x_max":340,"o":"m 203 775 q 98 802 131 775 q 65 888 65 829 q 98 974 65 947 q 203 1001 131 1001 q 307 974 274 1001 q 340 888 340 947 q 307 802 340 829 q 203 775 274 775 m 321 694 l 321 -39 q 288 -190 321 -133 q 196 -273 256 -247 q 51 -299 136 -299 q -50 -287 -4 -299 q -131 -254 -96 -275 l -97 -101 q -60 -120 -82 -112 q -8 -128 -37 -128 q 59 -103 33 -128 q 85 -18 85 -79 l 85 694 l 321 694 z "},"ȷ":{"ha":404,"x_min":-131,"x_max":321,"o":"m 321 694 l 321 -39 q 288 -190 321 -133 q 196 -273 256 -247 q 51 -299 136 -299 q -50 -287 -4 -299 q -131 -254 -96 -275 l -97 -101 q -60 -120 -82 -112 q -8 -128 -37 -128 q 59 -103 33 -128 q 85 -18 85 -79 l 85 694 l 321 694 z "},"ĵ":{"ha":404,"x_min":-131,"x_max":468,"o":"m 321 694 l 321 -39 q 288 -190 321 -133 q 196 -273 256 -247 q 51 -299 136 -299 q -50 -287 -4 -299 q -131 -254 -96 -275 l -97 -101 q -60 -120 -82 -112 q -8 -128 -37 -128 q 59 -103 33 -128 q 85 -18 85 -79 l 85 694 l 321 694 m 468 776 l 299 776 l 203 899 l 107 776 l -62 776 l 89 1017 l 317 1017 l 468 776 z "},"k":{"ha":864,"x_min":85,"x_max":863,"o":"m 847 694 l 514 339 l 469 326 l 271 104 l 269 346 l 585 694 l 847 694 m 321 989 l 321 0 l 85 0 l 85 989 l 321 989 m 550 486 l 863 0 l 601 0 l 396 347 l 550 486 z "},"ķ":{"ha":864,"x_min":85,"x_max":863,"o":"m 847 694 l 514 339 l 469 326 l 271 104 l 269 346 l 585 694 l 847 694 m 321 989 l 321 0 l 85 0 l 85 989 l 321 989 m 550 486 l 863 0 l 601 0 l 396 347 l 550 486 m 575 -83 l 476 -335 l 324 -335 l 368 -83 l 575 -83 z "},"ĸ":{"ha":864,"x_min":85,"x_max":863,"o":"m 847 694 l 514 339 l 469 326 l 271 104 l 269 346 l 586 694 l 847 694 m 321 694 l 321 0 l 85 0 l 85 694 l 321 694 m 550 486 l 863 0 l 601 0 l 396 347 l 550 486 z "},"l":{"ha":454,"x_min":82,"x_max":453,"o":"m 318 989 l 318 236 q 333 171 318 190 q 385 151 349 151 q 419 154 406 151 q 453 163 433 157 l 438 21 q 372 -4 413 6 q 293 -14 332 -14 q 132 38 182 -14 q 82 206 82 89 l 82 989 l 318 989 z "},"ĺ":{"ha":454,"x_min":82,"x_max":453,"o":"m 318 989 l 318 236 q 333 171 318 190 q 385 151 349 151 q 419 154 406 151 q 453 163 433 157 l 438 21 q 372 -4 413 6 q 293 -14 332 -14 q 132 38 182 -14 q 82 206 82 89 l 82 989 l 318 989 m 85 1067 l 163 1278 l 372 1278 l 256 1067 l 85 1067 z "},"ľ":{"ha":543,"x_min":82,"x_max":581,"o":"m 581 989 l 507 657 l 371 657 l 401 989 l 581 989 m 318 989 l 318 236 q 333 171 318 190 q 385 151 349 151 q 419 154 406 151 q 453 163 433 157 l 438 21 q 372 -4 413 6 q 293 -14 332 -14 q 132 38 182 -14 q 82 206 82 89 l 82 989 l 318 989 z "},"ļ":{"ha":454,"x_min":82,"x_max":453,"o":"m 318 989 l 318 236 q 333 171 318 190 q 385 151 349 151 q 419 154 406 151 q 453 163 433 157 l 438 21 q 372 -4 413 6 q 293 -14 332 -14 q 132 38 182 -14 q 82 206 82 89 l 82 989 l 318 989 m 390 -83 l 292 -335 l 139 -335 l 183 -83 l 390 -83 z "},"ŀ":{"ha":690,"x_min":82,"x_max":686,"o":"m 318 989 l 318 236 q 333 171 318 190 q 385 151 349 151 q 419 154 406 151 q 453 163 433 157 l 438 21 q 372 -4 413 6 q 293 -14 332 -14 q 132 38 182 -14 q 82 206 82 89 l 82 989 l 318 989 m 547 622 q 649 589 613 622 q 686 496 686 556 q 649 404 686 438 q 547 371 613 371 q 446 404 483 371 q 408 496 408 438 q 446 589 408 556 q 547 622 483 622 z "},"ḷ":{"ha":454,"x_min":82,"x_max":453,"o":"m 318 989 l 318 236 q 333 171 318 190 q 385 151 349 151 q 419 154 406 151 q 453 163 433 157 l 438 21 q 372 -4 413 6 q 293 -14 332 -14 q 132 38 182 -14 q 82 206 82 89 l 82 989 l 318 989 m 271 -308 q 177 -280 210 -308 q 144 -197 144 -251 q 177 -114 144 -143 q 271 -85 210 -85 q 367 -114 335 -85 q 400 -197 400 -143 q 367 -280 400 -251 q 271 -308 335 -308 z "},"ǉ":{"ha":858,"x_min":82,"x_max":794,"o":"m 318 989 l 318 236 q 333 171 318 190 q 385 151 349 151 q 419 154 406 151 q 453 163 433 157 l 438 21 q 372 -4 413 6 q 293 -14 332 -14 q 132 38 182 -14 q 82 206 82 89 l 82 989 l 318 989 m 657 775 q 552 802 585 775 q 519 888 519 829 q 552 974 519 947 q 657 1001 585 1001 q 761 974 728 1001 q 794 888 794 947 q 761 802 794 829 q 657 775 728 775 m 775 694 l 775 -39 q 742 -190 775 -133 q 650 -273 710 -247 q 506 -299 590 -299 q 404 -287 450 -299 q 324 -254 358 -275 l 357 -101 q 394 -120 372 -112 q 446 -128 417 -128 q 513 -103 488 -128 q 539 -18 539 -79 l 539 694 l 775 694 z "},"ḻ":{"ha":454,"x_min":79,"x_max":463,"o":"m 463 -96 l 463 -242 l 79 -242 l 79 -96 l 463 -96 m 318 989 l 318 236 q 333 171 318 190 q 385 151 349 151 q 419 154 406 151 q 453 163 433 157 l 438 21 q 372 -4 413 6 q 293 -14 332 -14 q 132 38 182 -14 q 82 206 82 89 l 82 989 l 318 989 z "},"ł":{"ha":565,"x_min":31,"x_max":531,"o":"m 531 707 l 531 542 l 344 426 l 263 393 l 31 256 l 31 421 l 226 535 l 307 564 l 531 707 m 386 989 l 386 236 q 401 171 386 190 q 453 151 417 151 q 488 154 474 151 q 521 163 501 157 l 506 21 q 440 -4 481 6 q 361 -14 400 -14 q 200 38 250 -14 q 150 206 150 89 l 150 989 l 386 989 z "},"m":{"ha":1307,"x_min":85,"x_max":1226,"o":"m 85 0 l 85 694 l 296 694 l 303 560 q 397 671 336 633 q 536 708 457 708 q 671 674 614 708 q 756 571 728 639 q 813 647 778 617 q 894 693 849 678 q 989 708 940 708 q 1111 681 1058 708 q 1195 599 1164 654 q 1226 463 1226 544 l 1226 0 l 990 0 l 990 408 q 965 501 990 475 q 896 528 939 528 q 833 510 861 528 q 789 458 804 493 q 774 371 774 424 l 774 0 l 538 0 l 538 408 q 511 501 538 475 q 443 528 485 528 q 383 511 411 528 q 338 459 354 494 q 321 367 321 424 l 321 0 l 85 0 z "},"ṃ":{"ha":1307,"x_min":85,"x_max":1226,"o":"m 85 0 l 85 694 l 296 694 l 303 560 q 397 671 336 633 q 536 708 457 708 q 671 674 614 708 q 756 571 728 639 q 813 647 778 617 q 894 693 849 678 q 989 708 940 708 q 1111 681 1058 708 q 1195 599 1164 654 q 1226 463 1226 544 l 1226 0 l 990 0 l 990 408 q 965 501 990 475 q 896 528 939 528 q 833 510 861 528 q 789 458 804 493 q 774 371 774 424 l 774 0 l 538 0 l 538 408 q 511 501 538 475 q 443 528 485 528 q 383 511 411 528 q 338 459 354 494 q 321 367 321 424 l 321 0 l 85 0 m 656 -308 q 562 -280 594 -308 q 529 -197 529 -251 q 562 -114 529 -143 q 656 -85 594 -85 q 752 -114 719 -85 q 785 -197 785 -143 q 752 -280 785 -251 q 656 -308 719 -308 z "},"n":{"ha":861,"x_min":85,"x_max":781,"o":"m 85 0 l 85 694 l 296 694 l 308 456 l 282 482 q 331 607 296 557 q 420 683 367 657 q 540 708 474 708 q 666 681 613 708 q 750 599 719 653 q 781 463 781 544 l 781 0 l 544 0 l 544 400 q 517 500 544 472 q 446 528 489 528 q 383 512 413 528 q 338 461 354 496 q 321 368 321 426 l 321 0 l 85 0 z "},"ń":{"ha":861,"x_min":85,"x_max":781,"o":"m 85 0 l 85 694 l 296 694 l 308 456 l 282 482 q 331 607 296 557 q 420 683 367 657 q 540 708 474 708 q 666 681 613 708 q 750 599 719 653 q 781 463 781 544 l 781 0 l 544 0 l 544 400 q 517 500 544 472 q 446 528 489 528 q 383 512 413 528 q 338 461 354 496 q 321 368 321 426 l 321 0 l 85 0 m 421 1025 l 640 1025 l 500 785 l 328 785 l 421 1025 z "},"ň":{"ha":861,"x_min":85,"x_max":781,"o":"m 85 0 l 85 694 l 296 694 l 308 456 l 282 482 q 331 607 296 557 q 420 683 367 657 q 540 708 474 708 q 666 681 613 708 q 750 599 719 653 q 781 463 781 544 l 781 0 l 544 0 l 544 400 q 517 500 544 472 q 446 528 489 528 q 383 512 413 528 q 338 461 354 496 q 321 368 321 426 l 321 0 l 85 0 m 696 1025 l 544 785 l 315 785 l 164 1025 l 335 1025 l 429 901 l 525 1025 l 696 1025 z "},"ņ":{"ha":861,"x_min":85,"x_max":781,"o":"m 85 0 l 85 694 l 296 694 l 308 456 l 282 482 q 331 607 296 557 q 420 683 367 657 q 540 708 474 708 q 666 681 613 708 q 750 599 719 653 q 781 463 781 544 l 781 0 l 544 0 l 544 400 q 517 500 544 472 q 446 528 489 528 q 383 512 413 528 q 338 461 354 496 q 321 368 321 426 l 321 0 l 85 0 m 563 -83 l 464 -335 l 311 -335 l 356 -83 l 563 -83 z "},"ṅ":{"ha":861,"x_min":85,"x_max":781,"o":"m 85 0 l 85 694 l 296 694 l 308 456 l 282 482 q 331 607 296 557 q 420 683 367 657 q 540 708 474 708 q 666 681 613 708 q 750 599 719 653 q 781 463 781 544 l 781 0 l 544 0 l 544 400 q 517 500 544 472 q 446 528 489 528 q 383 512 413 528 q 338 461 354 496 q 321 368 321 426 l 321 0 l 85 0 m 435 1003 q 531 974 499 1003 q 564 892 564 946 q 531 808 564 838 q 435 779 499 779 q 341 808 374 779 q 308 892 308 838 q 341 974 308 946 q 435 1003 374 1003 z "},"ṇ":{"ha":861,"x_min":85,"x_max":781,"o":"m 85 0 l 85 694 l 296 694 l 308 456 l 282 482 q 331 607 296 557 q 420 683 367 657 q 540 708 474 708 q 666 681 613 708 q 750 599 719 653 q 781 463 781 544 l 781 0 l 544 0 l 544 400 q 517 500 544 472 q 446 528 489 528 q 383 512 413 528 q 338 461 354 496 q 321 368 321 426 l 321 0 l 85 0 m 443 -308 q 349 -280 382 -308 q 317 -197 317 -251 q 349 -114 317 -143 q 443 -85 382 -85 q 540 -114 507 -85 q 572 -197 572 -143 q 540 -280 572 -251 q 443 -308 507 -308 z "},"ŋ":{"ha":861,"x_min":85,"x_max":781,"o":"m 781 253 l 781 -22 q 748 -185 781 -125 q 656 -272 715 -246 q 518 -299 597 -299 q 410 -287 456 -299 q 329 -254 364 -275 l 363 -101 q 400 -120 378 -112 q 451 -128 422 -128 q 519 -103 493 -128 q 544 -18 544 -79 l 544 253 l 781 253 m 85 0 l 85 694 l 296 694 l 308 456 l 282 482 q 331 607 296 557 q 420 683 367 657 q 540 708 474 708 q 666 681 613 708 q 750 599 719 653 q 781 463 781 544 l 781 0 l 544 0 l 544 400 q 517 500 544 472 q 446 528 489 528 q 383 512 413 528 q 338 461 354 496 q 321 368 321 426 l 321 0 l 85 0 z "},"ǌ":{"ha":1265,"x_min":85,"x_max":1200,"o":"m 85 0 l 85 694 l 296 694 l 308 456 l 282 482 q 331 607 296 557 q 420 683 367 657 q 540 708 474 708 q 666 681 613 708 q 750 599 719 653 q 781 463 781 544 l 781 0 l 544 0 l 544 400 q 517 500 544 472 q 446 528 489 528 q 383 512 413 528 q 338 461 354 496 q 321 368 321 426 l 321 0 l 85 0 m 1064 775 q 959 802 992 775 q 926 888 926 829 q 959 974 926 947 q 1064 1001 992 1001 q 1168 974 1135 1001 q 1201 888 1201 947 q 1168 802 1201 829 q 1064 775 1135 775 m 1182 694 l 1182 -39 q 1149 -190 1182 -133 q 1057 -273 1117 -247 q 913 -299 997 -299 q 811 -287 857 -299 q 731 -254 765 -275 l 764 -101 q 801 -120 779 -112 q 853 -128 824 -128 q 920 -103 894 -128 q 946 -18 946 -79 l 946 694 l 1182 694 z "},"ṉ":{"ha":861,"x_min":85,"x_max":781,"o":"m 85 0 l 85 694 l 296 694 l 308 456 l 282 482 q 331 607 296 557 q 420 683 367 657 q 540 708 474 708 q 666 681 613 708 q 750 599 719 653 q 781 463 781 544 l 781 0 l 544 0 l 544 400 q 517 500 544 472 q 446 528 489 528 q 383 512 413 528 q 338 461 354 496 q 321 368 321 426 l 321 0 l 85 0 m 696 -96 l 696 -242 l 190 -242 l 190 -96 l 696 -96 z "},"ñ":{"ha":861,"x_min":85,"x_max":781,"o":"m 85 0 l 85 694 l 296 694 l 308 456 l 282 482 q 331 607 296 557 q 420 683 367 657 q 540 708 474 708 q 666 681 613 708 q 750 599 719 653 q 781 463 781 544 l 781 0 l 544 0 l 544 400 q 517 500 544 472 q 446 528 489 528 q 383 512 413 528 q 338 461 354 496 q 321 368 321 426 l 321 0 l 85 0 m 710 997 q 684 874 707 924 q 623 801 661 825 q 539 776 585 776 q 472 788 500 776 q 422 816 443 800 q 383 844 401 832 q 344 856 365 856 q 308 836 321 856 q 292 778 296 817 l 158 778 q 213 944 163 889 q 340 999 263 999 q 404 987 378 999 q 450 959 431 975 q 487 931 469 943 q 524 919 504 919 q 560 939 549 919 q 576 997 572 958 l 710 997 z "},"o":{"ha":832,"x_min":49,"x_max":783,"o":"m 415 708 q 608 666 525 708 q 737 542 690 624 q 783 347 783 461 q 737 152 783 233 q 608 28 690 71 q 415 -14 525 -14 q 225 28 308 -14 q 95 152 142 71 q 49 347 49 233 q 95 542 49 461 q 225 666 142 624 q 415 708 308 708 m 415 540 q 346 521 375 540 q 301 458 317 501 q 286 347 286 415 q 301 237 286 279 q 346 174 317 194 q 415 154 375 154 q 486 174 457 154 q 531 237 515 194 q 546 347 546 279 q 531 458 546 415 q 486 521 515 501 q 415 540 457 540 z "},"ó":{"ha":832,"x_min":49,"x_max":783,"o":"m 415 708 q 608 666 525 708 q 737 542 690 624 q 783 347 783 461 q 737 152 783 233 q 608 28 690 71 q 415 -14 525 -14 q 225 28 308 -14 q 95 152 142 71 q 49 347 49 233 q 95 542 49 461 q 225 666 142 624 q 415 708 308 708 m 415 540 q 346 521 375 540 q 301 458 317 501 q 286 347 286 415 q 301 237 286 279 q 346 174 317 194 q 415 154 375 154 q 486 174 457 154 q 531 237 515 194 q 546 347 546 279 q 531 458 546 415 q 486 521 515 501 q 415 540 457 540 m 401 1025 l 621 1025 l 481 785 l 308 785 l 401 1025 z "},"ŏ":{"ha":832,"x_min":49,"x_max":783,"o":"m 415 708 q 608 666 525 708 q 737 542 690 624 q 783 347 783 461 q 737 152 783 233 q 608 28 690 71 q 415 -14 525 -14 q 225 28 308 -14 q 95 152 142 71 q 49 347 49 233 q 95 542 49 461 q 225 666 142 624 q 415 708 308 708 m 415 540 q 346 521 375 540 q 301 458 317 501 q 286 347 286 415 q 301 237 286 279 q 346 174 317 194 q 415 154 375 154 q 486 174 457 154 q 531 237 515 194 q 546 347 546 279 q 531 458 546 415 q 486 521 515 501 q 415 540 457 540 m 650 997 q 587 831 650 892 q 415 771 524 771 q 244 831 308 771 q 181 997 181 892 l 332 997 q 354 929 333 956 q 415 903 375 903 q 477 929 457 903 q 499 997 497 956 l 650 997 z "},"ô":{"ha":832,"x_min":49,"x_max":783,"o":"m 415 708 q 608 666 525 708 q 737 542 690 624 q 783 347 783 461 q 737 152 783 233 q 608 28 690 71 q 415 -14 525 -14 q 225 28 308 -14 q 95 152 142 71 q 49 347 49 233 q 95 542 49 461 q 225 666 142 624 q 415 708 308 708 m 415 540 q 346 521 375 540 q 301 458 317 501 q 286 347 286 415 q 301 237 286 279 q 346 174 317 194 q 415 154 375 154 q 486 174 457 154 q 531 237 515 194 q 546 347 546 279 q 531 458 546 415 q 486 521 515 501 q 415 540 457 540 m 681 776 l 511 776 l 415 899 l 319 776 l 150 776 l 301 1017 l 529 1017 l 681 776 z "},"ố":{"ha":832,"x_min":49,"x_max":888,"o":"m 697 1125 l 888 1125 l 776 919 l 621 919 l 697 1125 m 664 776 l 506 776 l 415 893 l 325 776 l 168 776 l 311 1001 l 521 1001 l 664 776 m 415 708 q 608 666 525 708 q 737 542 690 624 q 783 347 783 461 q 737 152 783 233 q 608 28 690 71 q 415 -14 525 -14 q 225 28 308 -14 q 95 152 142 71 q 49 347 49 233 q 95 542 49 461 q 225 666 142 624 q 415 708 308 708 m 415 540 q 346 521 375 540 q 301 458 317 501 q 286 347 286 415 q 301 237 286 279 q 346 174 317 194 q 415 154 375 154 q 486 174 457 154 q 531 237 515 194 q 546 347 546 279 q 531 458 546 415 q 486 521 515 501 q 415 540 457 540 z "},"ộ":{"ha":832,"x_min":49,"x_max":783,"o":"m 415 708 q 608 666 525 708 q 737 542 690 624 q 783 347 783 461 q 737 152 783 233 q 608 28 690 71 q 415 -14 525 -14 q 225 28 308 -14 q 95 152 142 71 q 49 347 49 233 q 95 542 49 461 q 225 666 142 624 q 415 708 308 708 m 415 540 q 346 521 375 540 q 301 458 317 501 q 286 347 286 415 q 301 237 286 279 q 346 174 317 194 q 415 154 375 154 q 486 174 457 154 q 531 237 515 194 q 546 347 546 279 q 531 458 546 415 q 486 521 515 501 q 415 540 457 540 m 415 -308 q 322 -280 354 -308 q 289 -197 289 -251 q 322 -114 289 -143 q 415 -85 354 -85 q 512 -114 479 -85 q 544 -197 544 -143 q 512 -280 544 -251 q 415 -308 479 -308 m 681 776 l 511 776 l 415 899 l 319 776 l 150 776 l 301 1017 l 529 1017 l 681 776 z "},"ồ":{"ha":832,"x_min":49,"x_max":801,"o":"m 725 1125 l 801 919 l 646 919 l 535 1125 l 725 1125 m 664 776 l 506 776 l 415 893 l 325 776 l 168 776 l 311 1001 l 521 1001 l 664 776 m 415 708 q 608 666 525 708 q 737 542 690 624 q 783 347 783 461 q 737 152 783 233 q 608 28 690 71 q 415 -14 525 -14 q 225 28 308 -14 q 95 152 142 71 q 49 347 49 233 q 95 542 49 461 q 225 666 142 624 q 415 708 308 708 m 415 540 q 346 521 375 540 q 301 458 317 501 q 286 347 286 415 q 301 237 286 279 q 346 174 317 194 q 415 154 375 154 q 486 174 457 154 q 531 237 515 194 q 546 347 546 279 q 531 458 546 415 q 486 521 515 501 q 415 540 457 540 z "},"ổ":{"ha":832,"x_min":49,"x_max":818,"o":"m 661 897 l 610 967 q 665 1001 649 983 q 682 1040 682 1018 q 670 1072 682 1060 q 635 1085 658 1085 q 603 1075 615 1085 q 581 1046 590 1065 l 474 1099 q 538 1182 490 1153 q 653 1211 585 1211 q 734 1195 696 1211 q 795 1147 772 1179 q 818 1069 818 1115 q 794 986 818 1021 q 735 930 771 951 q 661 897 699 908 m 664 776 l 506 776 l 415 893 l 325 776 l 168 776 l 311 1001 l 521 1001 l 664 776 m 415 708 q 608 666 525 708 q 737 542 690 624 q 783 347 783 461 q 737 152 783 233 q 608 28 690 71 q 415 -14 525 -14 q 225 28 308 -14 q 95 152 142 71 q 49 347 49 233 q 95 542 49 461 q 225 666 142 624 q 415 708 308 708 m 415 540 q 346 521 375 540 q 301 458 317 501 q 286 347 286 415 q 301 237 286 279 q 346 174 317 194 q 415 154 375 154 q 486 174 457 154 q 531 237 515 194 q 546 347 546 279 q 531 458 546 415 q 486 521 515 501 q 415 540 457 540 z "},"ỗ":{"ha":832,"x_min":49,"x_max":783,"o":"m 664 776 l 506 776 l 415 893 l 325 776 l 168 776 l 311 1001 l 521 1001 l 664 776 m 671 1236 q 621 1084 667 1133 q 513 1035 575 1035 q 449 1046 475 1035 q 405 1071 424 1057 q 369 1096 386 1085 q 333 1107 353 1107 q 300 1090 311 1107 q 285 1038 289 1074 l 161 1038 q 212 1190 165 1142 q 329 1239 258 1239 q 388 1228 364 1239 q 431 1203 413 1217 q 464 1178 449 1189 q 499 1167 479 1167 q 531 1183 519 1167 q 547 1236 543 1200 l 671 1236 m 415 708 q 608 666 525 708 q 737 542 690 624 q 783 347 783 461 q 737 152 783 233 q 608 28 690 71 q 415 -14 525 -14 q 225 28 308 -14 q 95 152 142 71 q 49 347 49 233 q 95 542 49 461 q 225 666 142 624 q 415 708 308 708 m 415 540 q 346 521 375 540 q 301 458 317 501 q 286 347 286 415 q 301 237 286 279 q 346 174 317 194 q 415 154 375 154 q 486 174 457 154 q 531 237 515 194 q 546 347 546 279 q 531 458 546 415 q 486 521 515 501 q 415 540 457 540 z "},"ȍ":{"ha":832,"x_min":49,"x_max":783,"o":"m 415 708 q 608 666 525 708 q 737 542 690 624 q 783 347 783 461 q 737 152 783 233 q 608 28 690 71 q 415 -14 525 -14 q 225 28 308 -14 q 95 152 142 71 q 49 347 49 233 q 95 542 49 461 q 225 666 142 624 q 415 708 308 708 m 415 540 q 346 521 375 540 q 301 458 317 501 q 286 347 286 415 q 301 237 286 279 q 346 174 317 194 q 415 154 375 154 q 486 174 457 154 q 531 237 515 194 q 546 347 546 279 q 531 458 546 415 q 486 521 515 501 q 415 540 457 540 m 363 785 l 199 785 l 67 1025 l 267 1025 l 363 785 m 657 785 l 493 785 l 361 1025 l 561 1025 l 657 785 z "},"ö":{"ha":832,"x_min":49,"x_max":783,"o":"m 415 708 q 608 666 525 708 q 737 542 690 624 q 783 347 783 461 q 737 152 783 233 q 608 28 690 71 q 415 -14 525 -14 q 225 28 308 -14 q 95 152 142 71 q 49 347 49 233 q 95 542 49 461 q 225 666 142 624 q 415 708 308 708 m 415 540 q 346 521 375 540 q 301 458 317 501 q 286 347 286 415 q 301 237 286 279 q 346 174 317 194 q 415 154 375 154 q 486 174 457 154 q 531 237 515 194 q 546 347 546 279 q 531 458 546 415 q 486 521 515 501 q 415 540 457 540 m 261 986 q 349 958 318 986 q 381 879 381 931 q 349 801 381 829 q 261 772 318 772 q 176 801 207 772 q 144 879 144 829 q 176 958 144 931 q 261 986 207 986 m 567 986 q 654 958 622 986 q 686 879 686 931 q 654 801 686 829 q 567 772 622 772 q 481 801 513 772 q 450 879 450 829 q 481 958 450 931 q 567 986 513 986 z "},"ȫ":{"ha":832,"x_min":49,"x_max":783,"o":"m 415 708 q 608 666 525 708 q 737 542 690 624 q 783 347 783 461 q 737 152 783 233 q 608 28 690 71 q 415 -14 525 -14 q 225 28 308 -14 q 95 152 142 71 q 49 347 49 233 q 95 542 49 461 q 225 666 142 624 q 415 708 308 708 m 415 540 q 346 521 375 540 q 301 458 317 501 q 286 347 286 415 q 301 237 286 279 q 346 174 317 194 q 415 154 375 154 q 486 174 457 154 q 531 237 515 194 q 546 347 546 279 q 531 458 546 415 q 486 521 515 501 q 415 540 457 540 m 261 986 q 349 958 318 986 q 381 879 381 931 q 349 801 381 829 q 261 772 318 772 q 176 801 207 772 q 144 879 144 829 q 176 958 144 931 q 261 986 207 986 m 567 986 q 654 958 622 986 q 686 879 686 931 q 654 801 686 829 q 567 772 622 772 q 481 801 513 772 q 450 879 450 829 q 481 958 450 931 q 567 986 513 986 m 668 1200 l 668 1054 l 163 1054 l 163 1200 l 668 1200 z "},"ȱ":{"ha":832,"x_min":49,"x_max":783,"o":"m 415 708 q 608 666 525 708 q 737 542 690 624 q 783 347 783 461 q 737 152 783 233 q 608 28 690 71 q 415 -14 525 -14 q 225 28 308 -14 q 95 152 142 71 q 49 347 49 233 q 95 542 49 461 q 225 666 142 624 q 415 708 308 708 m 415 540 q 346 521 375 540 q 301 458 317 501 q 286 347 286 415 q 301 237 286 279 q 346 174 317 194 q 415 154 375 154 q 486 174 457 154 q 531 237 515 194 q 546 347 546 279 q 531 458 546 415 q 486 521 515 501 q 415 540 457 540 m 415 1003 q 512 974 479 1003 q 544 892 544 946 q 512 808 544 838 q 415 779 479 779 q 322 808 354 779 q 289 892 289 838 q 322 974 289 946 q 415 1003 354 1003 m 671 1211 l 671 1065 l 165 1065 l 165 1211 l 671 1211 z "}}}
